<?xml version="1.0" encoding="UTF-8" standalone="no"?>
<svg width="86.4306mm" height="59.6194mm"
 viewBox="0 0 245 169"
 xmlns="http://www.w3.org/2000/svg" xmlns:xlink="http://www.w3.org/1999/xlink"  version="1.2" baseProfile="tiny">
<title>Qt SVG Document</title>
<desc>MATLAB, The MathWorks, Inc. Version 25.1.0.2973910 R2025a Update 1</desc>
<defs>
</defs>
<g fill="none" stroke="black" stroke-width="1" fill-rule="evenodd" stroke-linecap="square" stroke-linejoin="bevel" >

<g fill="#ffffff" fill-opacity="1" stroke="none" transform="matrix(0.506281,0,0,0.502063,-6.29674,-8.0392)"
font-family=".AppleSystemUIFont" font-size="13" font-weight="400" font-style="normal" 
>
<path vector-effect="none" fill-rule="evenodd" d="M12,15 L496,15 L496,352 L12,352 L12,15"/>
</g>

<g fill="#ffffff" fill-opacity="1" stroke="none" transform="matrix(5.06281e-05,0,0,5.02063e-05,-6.29674,-8.0392)"
font-family=".AppleSystemUIFont" font-size="13" font-weight="400" font-style="normal" 
>
<path vector-effect="none" fill-rule="evenodd" d="M700000,270000 L700000,2.98e+06 L4.89e+06,2.98e+06 L4.89e+06,270000 L700000,270000"/>
</g>

<g fill="#212121" fill-opacity="1" stroke="#212121" stroke-opacity="1" stroke-width="1" stroke-linecap="square" stroke-linejoin="bevel" transform="matrix(0.506281,0,0,0.502063,61.0387,164.47)"
font-family="Helvetica" font-size="24" font-weight="400" font-style="normal" 
>
<text fill="#212121" fill-opacity="1" stroke="none" xml:space="preserve" x="0" y="0.46875" font-family="Helvetica" font-size="24" font-weight="400" font-style="normal" 
 >Cable Stroke Distance (cm)</text>
</g>

<g fill="#212121" fill-opacity="1" stroke="#212121" stroke-opacity="1" stroke-width="1" stroke-linecap="square" stroke-linejoin="round" transform="matrix(0.506281,0,0,0.502063,-6.29674,-8.0392)"
font-family="Helvetica" font-size="24" font-weight="400" font-style="normal" 
>
<polyline fill="none" vector-effect="none" points="70,298 489,298 " />
<polyline fill="none" vector-effect="none" points="70,27 489,27 " />
<polyline fill="none" vector-effect="none" points="70,298 70,293.81 " />
<polyline fill="none" vector-effect="none" points="70,31.19 70,27 " />
<polyline fill="none" vector-effect="none" points="174.75,298 174.75,293.81 " />
<polyline fill="none" vector-effect="none" points="174.75,31.19 174.75,27 " />
<polyline fill="none" vector-effect="none" points="279.5,298 279.5,293.81 " />
<polyline fill="none" vector-effect="none" points="279.5,31.19 279.5,27 " />
<polyline fill="none" vector-effect="none" points="384.25,298 384.25,293.81 " />
<polyline fill="none" vector-effect="none" points="384.25,31.19 384.25,27 " />
<polyline fill="none" vector-effect="none" points="489,298 489,293.81 " />
<polyline fill="none" vector-effect="none" points="489,31.19 489,27 " />
</g>

<g fill="#212121" fill-opacity="1" stroke="#212121" stroke-opacity="1" stroke-width="1" stroke-linecap="square" stroke-linejoin="bevel" transform="matrix(0.506281,0,0,0.502063,26.6116,151.416)"
font-family="Helvetica" font-size="18" font-weight="400" font-style="normal" 
>
<text fill="#212121" fill-opacity="1" stroke="none" xml:space="preserve" x="0" y="-0.140625" font-family="Helvetica" font-size="18" font-weight="400" font-style="normal" 
 >0</text>
</g>

<g fill="#212121" fill-opacity="1" stroke="#212121" stroke-opacity="1" stroke-width="1" stroke-linecap="square" stroke-linejoin="bevel" transform="matrix(0.506281,0,0,0.502063,79.6445,151.416)"
font-family="Helvetica" font-size="18" font-weight="400" font-style="normal" 
>
<text fill="#212121" fill-opacity="1" stroke="none" xml:space="preserve" x="0" y="-0.140625" font-family="Helvetica" font-size="18" font-weight="400" font-style="normal" 
 >2</text>
</g>

<g fill="#212121" fill-opacity="1" stroke="#212121" stroke-opacity="1" stroke-width="1" stroke-linecap="square" stroke-linejoin="bevel" transform="matrix(0.506281,0,0,0.502063,132.678,151.416)"
font-family="Helvetica" font-size="18" font-weight="400" font-style="normal" 
>
<text fill="#212121" fill-opacity="1" stroke="none" xml:space="preserve" x="0" y="-0.140625" font-family="Helvetica" font-size="18" font-weight="400" font-style="normal" 
 >4</text>
</g>

<g fill="#212121" fill-opacity="1" stroke="#212121" stroke-opacity="1" stroke-width="1" stroke-linecap="square" stroke-linejoin="bevel" transform="matrix(0.506281,0,0,0.502063,185.71,151.416)"
font-family="Helvetica" font-size="18" font-weight="400" font-style="normal" 
>
<text fill="#212121" fill-opacity="1" stroke="none" xml:space="preserve" x="0" y="-0.140625" font-family="Helvetica" font-size="18" font-weight="400" font-style="normal" 
 >6</text>
</g>

<g fill="#212121" fill-opacity="1" stroke="#212121" stroke-opacity="1" stroke-width="1" stroke-linecap="square" stroke-linejoin="bevel" transform="matrix(0.506281,0,0,0.502063,238.743,151.416)"
font-family="Helvetica" font-size="18" font-weight="400" font-style="normal" 
>
<text fill="#212121" fill-opacity="1" stroke="none" xml:space="preserve" x="0" y="-0.140625" font-family="Helvetica" font-size="18" font-weight="400" font-style="normal" 
 >8</text>
</g>

<g fill="#212121" fill-opacity="1" stroke="#212121" stroke-opacity="1" stroke-width="1" stroke-linecap="square" stroke-linejoin="bevel" transform="matrix(0,-0.502063,0.506281,0,10.6131,121.744)"
font-family="Helvetica" font-size="24" font-weight="400" font-style="normal" 
>
<text fill="#212121" fill-opacity="1" stroke="none" xml:space="preserve" x="0" y="0.46875" font-family="Helvetica" font-size="24" font-weight="400" font-style="normal" 
 >Cable Tension (N)</text>
</g>

<g fill="#212121" fill-opacity="1" stroke="#212121" stroke-opacity="1" stroke-width="1" stroke-linecap="square" stroke-linejoin="round" transform="matrix(0.506281,0,0,0.502063,-6.29674,-8.0392)"
font-family="Helvetica" font-size="24" font-weight="400" font-style="normal" 
>
<polyline fill="none" vector-effect="none" points="70,298 70,27 " />
<polyline fill="none" vector-effect="none" points="489,298 489,27 " />
<polyline fill="none" vector-effect="none" points="70,298 74.19,298 " />
<polyline fill="none" vector-effect="none" points="484.81,298 489,298 " />
<polyline fill="none" vector-effect="none" points="70,230.25 74.19,230.25 " />
<polyline fill="none" vector-effect="none" points="484.81,230.25 489,230.25 " />
<polyline fill="none" vector-effect="none" points="70,162.5 74.19,162.5 " />
<polyline fill="none" vector-effect="none" points="484.81,162.5 489,162.5 " />
<polyline fill="none" vector-effect="none" points="70,94.75 74.19,94.75 " />
<polyline fill="none" vector-effect="none" points="484.81,94.75 489,94.75 " />
<polyline fill="none" vector-effect="none" points="70,27 74.19,27 " />
<polyline fill="none" vector-effect="none" points="484.81,27 489,27 " />
</g>

<g fill="#212121" fill-opacity="1" stroke="#212121" stroke-opacity="1" stroke-width="1" stroke-linecap="square" stroke-linejoin="bevel" transform="matrix(0.506281,0,0,0.502063,21.245,144.086)"
font-family="Helvetica" font-size="18" font-weight="400" font-style="normal" 
>
<text fill="#212121" fill-opacity="1" stroke="none" xml:space="preserve" x="0" y="-0.140625" font-family="Helvetica" font-size="18" font-weight="400" font-style="normal" 
 >0</text>
</g>

<g fill="#212121" fill-opacity="1" stroke="#212121" stroke-opacity="1" stroke-width="1" stroke-linecap="square" stroke-linejoin="bevel" transform="matrix(0.506281,0,0,0.502063,16.1822,110.071)"
font-family="Helvetica" font-size="18" font-weight="400" font-style="normal" 
>
<text fill="#212121" fill-opacity="1" stroke="none" xml:space="preserve" x="0" y="-0.140625" font-family="Helvetica" font-size="18" font-weight="400" font-style="normal" 
 >20</text>
</g>

<g fill="#212121" fill-opacity="1" stroke="#212121" stroke-opacity="1" stroke-width="1" stroke-linecap="square" stroke-linejoin="bevel" transform="matrix(0.506281,0,0,0.502063,16.1822,76.0564)"
font-family="Helvetica" font-size="18" font-weight="400" font-style="normal" 
>
<text fill="#212121" fill-opacity="1" stroke="none" xml:space="preserve" x="0" y="-0.140625" font-family="Helvetica" font-size="18" font-weight="400" font-style="normal" 
 >40</text>
</g>

<g fill="#212121" fill-opacity="1" stroke="#212121" stroke-opacity="1" stroke-width="1" stroke-linecap="square" stroke-linejoin="bevel" transform="matrix(0.506281,0,0,0.502063,16.1822,42.0416)"
font-family="Helvetica" font-size="18" font-weight="400" font-style="normal" 
>
<text fill="#212121" fill-opacity="1" stroke="none" xml:space="preserve" x="0" y="-0.140625" font-family="Helvetica" font-size="18" font-weight="400" font-style="normal" 
 >60</text>
</g>

<g fill="#212121" fill-opacity="1" stroke="#212121" stroke-opacity="1" stroke-width="1" stroke-linecap="square" stroke-linejoin="bevel" transform="matrix(0.506281,0,0,0.502063,16.1822,8.02682)"
font-family="Helvetica" font-size="18" font-weight="400" font-style="normal" 
>
<text fill="#212121" fill-opacity="1" stroke="none" xml:space="preserve" x="0" y="-0.140625" font-family="Helvetica" font-size="18" font-weight="400" font-style="normal" 
 >80</text>
</g>

<g fill="none" stroke="#298c8c" stroke-opacity="1" stroke-width="4" stroke-linecap="butt" stroke-linejoin="round" transform="matrix(0.506281,0,0,0.502063,-6.29674,-8.0392)"
font-family="Helvetica" font-size="18" font-weight="400" font-style="normal" 
>
<polyline fill="none" vector-effect="none" points="412.747,281.101 412.747,281.356 412.747,281.253 412.747,280.921 412.744,281.157 412.748,281.123 412.745,281.068 412.742,281.139 412.739,281.126 412.725,281.065 412.715,281.173 412.699,281.046 412.657,281.045 412.618,281.024 412.557,281.074 412.454,281.256 412.333,280.647 412.108,281.109 411.88,281.285 411.667,280.706 411.397,281.236 411.225,281.073 411.093,281.347 410.577,280.966 410.215,280.862 410.072,281.238 409.766,281.03 409.469,280.596 409.187,281.516 408.898,280.848 408.595,280.641 408.31,281.088 407.982,280.784 407.707,281.344 407.366,280.483 407.069,280.996 406.751,281.233 406.438,281.11 406.113,281.109 405.808,280.736 405.492,280.492 405.118,280.987 404.786,281.002 404.454,280.851 404.054,280.536 403.713,280.77 403.283,280.842 402.886,280.613 402.47,281.382 401.998,280.672 401.506,280.397 401.013,280.943 400.43,280.658 399.871,280.556 399.303,280.676 398.667,280.35 398.105,280.419 397.555,281.017 396.976,279.899 396.277,280.363 395.646,280.702 395.007,280.845 394.366,280.072 393.731,280.448 393.213,280.422 392.693,280.93 391.844,279.854 391.181,280.534 390.656,280.483 390.047,280.23 389.41,280.56 388.727,279.968 388.026,280.587 387.262,279.891 386.559,280.289 385.851,279.946 385.139,280.22 384.362,280.079 383.635,280.332 382.855,279.918 382.107,280.21 381.338,280.155 380.578,280.474 379.744,279.469 378.945,280.289 378.255,279.711 377.591,280.524 376.517,279.472 375.56,280.116 374.706,279.255 373.768,280.338 372.844,279.536 371.903,279.988 370.982,279.796 370.062,279.344 369.146,279.779 368.228,280.186 367.277,279.776 366.325,279.527 365.428,279.257 364.666,280.478 363.899,279.072 362.742,279.534 361.8,279.361 360.982,280.182 360.05,279.777 359.082,279.346 358.122,279.349 357.149,279.618 356.155,279.402 355.154,279.422 354.106,279.034 353.077,279.353 352.128,279.245 351.202,279.404 349.9,278.63 348.741,279.16 347.638,278.879 346.425,279.125 345.261,279.207 344.107,278.576 342.897,278.935 341.737,278.959 340.696,278.576 339.686,279.241 338.324,277.938 337.092,279.073 336.128,277.795 335.019,278.371 333.87,277.899 332.743,277.951 331.611,278.396 330.451,278.111 329.453,278.038 328.455,277.436 327.12,278.051 325.891,278.011 324.932,277.246 323.81,277.886 322.577,276.823 321.409,277.512 320.236,277.257 319.118,277.568 318.059,276.905 316.609,277.152 315.246,277.145 314.131,276.907 312.844,276.058 311.52,276.444 310.224,276.845 309.042,276.395 307.891,275.704 306.441,275.934 305.162,276.049 304.127,275.72 302.937,275.715 301.765,275.256 300.583,275.254 299.488,275.784 298.49,275.576 297.069,274.421 295.788,274.428 294.564,274.714 293.289,274.195 292.051,274.788 290.862,273.938 289.779,273.912 288.257,273.234 286.86,273.81 285.691,273.744 284.361,272.886 282.932,272.797 281.736,272.97 280.631,272.726 279.1,272.65 277.654,271.637 276.434,272.128 274.99,271.114 273.62,270.999 272.316,270.634 271.098,271.022 269.543,269.699 268.089,269.66 266.8,269.151 265.382,268.701 264.085,268.267 262.905,268.143 261.422,267.071 260.01,266.35 258.866,266.626 257.51,265.757 256.202,264.308 255.023,265.025 253.916,263.678 252.357,262.557 250.932,262.523 249.682,261.048 248.238,260.055 247.109,259.562 245.959,259.2 244.465,257.875 243.029,256.798 241.811,256.257 240.46,255.241 239.27,253.057 238.179,252.64 236.642,250.865 235.185,248.703 234.065,248.409 232.619,246.034 231.43,245.011 230.361,244.016 228.858,241.75 227.378,240.042 226.321,238.496 224.952,235.765 223.755,234.279 222.868,234.107 221.353,230.423 219.954,228.218 218.932,227.219 217.669,224.21 216.493,222.795 215.584,220.849 214.202,217.284 212.779,214.665 211.67,211.942 210.518,209.13 209.34,206.434 208.405,203.23 206.85,199.453 205.529,196.34 204.431,192.02 203.122,187.759 201.888,184.24 200.778,181.16 199.838,176.693 198.363,171.839 197.014,166.959 195.929,161.939 194.84,157.348 193.725,152.109 192.866,147.993 191.458,142.587 190.066,135.332 189.159,130.602 187.874,125.393 186.924,117.967 186.061,113.714 184.677,104.697 183.449,97.2394 182.454,92.5929 181.386,85.0481 180.5,77.4554 179.671,70.8531 178.431,64.6844 177.122,59.4212 176.332,65.0141 175.332,73.5309 174.247,77.8553 173.233,87.0275 172.276,94.0289 170.852,95.6478 169.359,106.904 168.003,111.754 166.625,119.661 165.031,126.673 163.608,132.051 162.242,140.231 160.242,144.04 158.365,145.75 156.799,154.127 154.989,155.652 153.197,164.458 151.466,164.574 149.897,170.091 147.961,171.027 145.977,174.396 144.563,178.977 143.042,178.913 141.446,183.043 140.203,184.689 139.05,188.67 137.46,189.702 135.984,190.46 134.853,191.919 133.773,193.752 132.646,196.104 131.417,196.212 130.467,198.218 129.602,199.673 128.27,201.796 127.111,202.917 126.145,202.909 125.163,205.165 124.156,206.137 123.14,208.158 122.357,208.57 121.53,209.857 120.362,210.714 119.315,212.384 118.5,213.343 117.671,213.508 116.756,214.509 115.851,215.409 114.992,217.274 114.187,217.314 113.656,218.598 112.561,218.956 111.576,220.499 110.895,221.071 110,221.209 109.205,222.733 108.357,223.356 107.603,225.244 106.826,224.774 106.05,226.107 105.546,227.37 104.555,227.462 103.684,228.365 103.073,227.681 102.295,229.239 101.462,229.819 100.757,231.829 99.9766,231.755 99.1846,232.004 98.4141,233.123 97.7423,234.221 97.3033,234.847 96.3913,234.618 95.5422,235.211 94.9459,236.047 94.2617,237.192 93.5926,237.953 92.9647,238.391 92.2112,238.253 91.5533,239.017 90.8796,239.408 90.2844,239.926 89.6156,240.426 89.0602,240.886 88.5314,241.853 88.1792,242.343 87.3865,242.385 86.5735,242.727 86.2277,243.784 85.5841,243.882 85.1227,244.476 84.4762,244.241 83.8894,245.069 83.4248,245.998 82.9297,245.749 82.4187,245.457 81.9279,246.075 81.4175,247.108 80.9875,247.447 80.4904,247.418 80.0071,247.939 79.6021,248.08 79.3802,248.904 78.803,249.242 78.3012,248.294 78.0617,248.668 77.7439,249.583 77.3926,250.089 77.0033,249.837 76.6275,250.178 76.2776,250.422 75.8855,250.492 75.5482,250.945 75.2755,251.085 74.9362,251.054 74.6493,251.805 74.3738,251.814 74.1699,251.728 73.9257,251.221 73.6711,251.853 73.3592,251.941 73.0663,252.394 72.8143,252.462 72.5506,252.538 72.2434,253.043 71.9653,253.215 71.7197,253.351 71.5016,253.434 71.2768,253.382 71.0624,253.746 70.9295,253.764 70.7761,253.908 70.6718,253.895 70.5168,254.101 70.3724,254.165 70.4261,254.553 70.4646,254.283 70.2036,254.088 70.0907,254.509 70.1509,254.595 70.104,254.203 70.0606,254.282 70.0188,254.132 70.0199,254.499 70,254.591 70.0312,254.563 70.0595,254.674 70.0869,254.625 70.1383,254.554 70.2031,254.418 70.2573,254.476 70.3235,254.275 70.3502,254.733 70.397,254.746 70.4402,254.617 70.4523,254.765 70.4918,254.774 70.504,254.893 70.5417,254.257 70.5849,254.334 70.6006,254.523 70.642,254.403 70.6779,254.354 70.7156,254.33 70.743,254.471 70.7479,254.743 70.7801,254.973 70.8075,254.337 70.8124,254.465 70.8398,254.302 70.869,254.863 70.8982,254.244 70.9,254.144 70.8951,254.388 70.8695,254.535 70.8695,254.387 70.8695,254.468 70.8422,254.409 70.8373,254.252 70.8373,254.534 70.8373,254.269 70.8391,254.084 70.8409,254.469 70.8427,254.381 70.8445,254.636 70.8427,254.356 70.8427,254.39 70.8427,254.508 70.8427,254.776 70.8427,254.382 70.8427,254.509 70.8445,254.458 70.8445,254.599 70.8463,254.527 70.8463,254.027 70.8463,254.228 70.8463,254.645 70.8445,254.447 70.8445,254.281 70.8409,254.358 70.8427,254.297 70.8427,254.409 70.8427,254.447 70.8427,253.976 70.8427,254.083 70.8427,254.165 70.8427,254.42 70.8427,254.436 70.8427,254.153 70.8427,254.379 70.8427,254.183 70.8427,254.529 70.8427,254.197 70.8427,254.43 70.8427,254.298 70.8427,254.247 70.8427,254.431 70.8427,253.979 70.8427,254.454 70.8427,254.44 70.8427,254.666 70.8427,254.263 70.8427,254.416 70.8427,254.516 70.8427,254.473 70.8427,254.206 70.8427,254.182 70.8427,254.249 70.8427,254.255 70.8427,254.386 70.8427,254.433 70.8427,254.23 70.8427,254.211 70.8427,254.47 70.8427,254.245 70.8427,254.119 70.8427,254.291 70.8427,254.342 70.8427,254.625 70.8427,254.134 70.8427,254.072 70.8427,254.232 70.8427,254.566 70.8427,254.18 70.8427,254.412 70.8427,254.508 70.8427,254.36 70.8427,254.386 70.8427,254.119 70.8427,254.255 70.8427,254.269 70.8427,254.651 70.8427,254.575 70.8427,254.393 70.8427,254.378 70.8427,254.202 70.8427,254.632 70.8427,254.257 70.8427,254.035 70.8427,254.446 70.8427,254.411 70.8427,254.647 70.8427,254.424 70.8427,254.555 70.8427,254.147 70.8427,254.61 70.8427,254.449 70.8427,254.425 70.8427,254.3 70.8427,254.49 70.8427,254.316 70.8427,254.179 70.8427,254.646 70.8427,254.213 70.8427,254.337 70.8427,254.396 70.8427,254.059 70.8427,254.299 70.8427,254.325 70.8427,254.151 70.8427,254.333 70.8427,254.504 70.8427,254.419 70.8427,254.385 70.8427,254.237 70.8427,254.418 70.8427,254.531 70.8427,254.628 70.8427,254.504 70.8445,254.39 70.8445,254.282 70.8427,254.711 70.8427,254.474 70.8427,254.164 70.8427,254.555 70.8427,254.117 70.8427,254.599 70.8427,254.283 70.8427,254.485 70.8427,254.377 70.8427,254.438 70.8427,254.458 70.8427,254.443 70.8427,254.218 70.8427,254.116 70.8427,254.514 70.8427,254.128 70.8427,254.104 70.8427,254.607 70.8445,254.194 70.8427,254.38 70.8427,254.136 70.8427,254.501 70.8427,254.212 70.8427,254.651 70.8427,254.219 70.8427,254.313 70.8427,254.34 70.8427,254.433 70.8445,254.655 70.8427,254.242 70.8427,254.37 70.8427,254.448 70.8445,254.274 70.8427,254.184 70.8427,254.367 70.8427,254.472 70.8427,254.563 70.8427,254.452 70.8427,254.377 70.8427,254.493 70.8427,254.282 70.8427,254.711 70.8427,254.361 70.8427,254.263 70.8427,254.169 70.8427,254.32 70.8445,254.386 70.8427,254.362 70.8427,254.312 70.8427,254.493 70.8445,254.487 70.8427,254.51 " />
</g>

<g fill="none" stroke="#f1a226" stroke-opacity="1" stroke-width="4" stroke-linecap="butt" stroke-linejoin="round" transform="matrix(0.506281,0,0,0.502063,-6.29674,-8.0392)"
font-family="Helvetica" font-size="18" font-weight="400" font-style="normal" 
>
<polyline fill="none" vector-effect="none" points="70.8427,253.982 70.8427,254.187 70.8427,254.494 70.8427,254.645 70.8427,253.958 70.8427,254.038 70.8427,254.355 70.8427,254.506 70.8445,254.384 70.8427,254.316 70.8427,254.568 70.8445,254.154 70.8445,254.239 70.8427,254.368 70.8427,254.407 70.8427,254.305 70.8427,254.413 70.8427,254.305 70.8427,254.321 70.8445,254.295 70.8427,254.206 70.8427,254.295 70.8427,254.494 70.8445,254.004 70.8445,254.466 70.8427,254.733 70.8445,254.42 70.8427,254.376 70.8427,254.107 70.8427,254.495 70.8445,254.255 70.8427,254.329 70.8445,254.363 70.8445,254.46 70.8427,254.711 70.8427,254.52 70.8427,254.212 70.8427,254.591 70.8427,254.286 70.8445,254.642 70.8427,254.095 70.8445,254.176 70.8427,254.484 70.8445,254.529 70.8427,254.274 70.8445,254.171 70.8445,254.306 70.8427,254.518 70.8427,254.243 70.8445,254.359 70.8445,254.274 70.8445,254.049 70.8445,254.348 70.8427,254.27 70.8427,254.27 70.8427,254.356 70.8445,254.369 70.8445,254.516 70.8427,254.312 70.8445,254.212 70.8445,254.583 70.8427,254.316 70.8427,254.551 70.8445,254.109 70.8427,254.484 70.8427,254.584 70.8445,254.402 70.8427,254.193 70.8445,254.406 70.8445,254.288 70.8445,254.357 70.8445,254.385 70.8445,254.216 70.8445,254.311 70.8445,254.554 70.8427,254.234 70.8445,254.277 70.8427,254.56 70.8445,254.441 70.8427,254.395 70.8427,254.38 70.8445,254.276 70.8445,254.222 70.8445,254.326 70.8445,254.295 70.8427,254.387 70.8427,254.073 70.8445,254.518 70.8427,254.28 70.8427,254.447 70.8445,254.358 70.8445,254.219 70.8445,254.248 70.8427,254.694 70.8445,254.586 70.8445,254.092 70.8427,254.45 70.8445,254.262 70.8427,254.396 70.8445,254.381 70.8445,254.407 70.8445,254.368 70.8445,254.65 70.8445,254.399 70.8427,254.099 70.8427,254.442 70.8445,254.63 70.8445,254.764 70.8445,254.223 70.8445,254.354 70.8427,254.494 70.8445,254.531 70.8445,254.08 70.8445,254.213 70.8445,254.381 70.8445,254.422 70.8445,254.492 70.8445,254.307 70.8427,254.622 70.8445,254.151 70.8445,254.485 70.8427,254.368 70.8445,254.239 70.8445,254.257 70.8427,254.239 70.8445,254.459 70.8427,254.148 70.8445,254.281 70.8445,254.583 70.8445,254.26 70.8445,254.347 70.8445,254.314 70.8445,254.459 70.8427,254.646 70.8427,254.663 70.8445,254.212 70.8445,254.524 70.8445,254.279 70.8427,254.598 70.8445,254.286 70.8445,254.383 70.8445,254.727 70.8445,254.25 70.8445,254.23 70.8445,254.115 70.8445,254.213 70.8427,254.524 70.8445,254.298 70.8445,254.339 70.8445,254.346 70.8445,254.419 70.8445,254.237 70.8427,254.549 70.8445,254.248 70.8445,254.333 70.8445,254.571 70.8445,254.563 70.8445,254.604 70.8445,254.35 70.8445,254.307 70.8445,254.307 70.8445,254.42 70.8445,254.453 70.8445,254.154 70.8445,254.64 70.8445,254.227 70.8445,254.35 70.8445,254.203 70.8445,254.26 70.8445,254.367 70.8445,254.298 70.8445,254.307 70.8445,254.245 70.8445,254.339 70.8445,254.372 70.8445,254.334 70.8445,254.111 70.8445,254.549 70.8445,254.384 70.8445,254.424 70.8445,254.187 70.8445,254.435 70.8445,254.58 70.8445,254.591 70.8445,254.384 70.8445,254.454 70.8445,254.341 70.8445,254.537 70.8445,254.288 70.8427,254.249 70.8445,254.522 70.8445,254.517 70.8445,254.418 70.8445,254.402 70.8445,254.392 70.8445,254.274 70.8427,254.249 70.8445,254.579 70.8427,254.195 70.8447,254.42 70.8429,254.655 70.8445,254.703 70.8445,254.329 70.8502,253.99 70.8611,254.496 70.8683,254.55 70.8846,254.362 70.9155,254.68 70.9298,254.19 70.9823,254.502 70.9844,254.564 71.0821,254.686 71.046,254.309 71.03,254.503 71.3399,254.939 71.6116,255.034 71.5352,254.225 71.6458,254.496 71.8245,254.032 71.9719,254.134 72.148,254.108 72.3218,254.362 72.4959,254.024 72.5979,254.269 72.7434,254.427 72.9865,254.209 73.2204,253.577 73.5049,253.914 73.8357,253.601 74.0948,253.134 74.364,253.533 74.7759,253.163 75.1161,252.613 75.4094,252.492 75.7568,252.343 76.1068,251.7 76.414,251.607 76.8377,251.735 77.2057,251.545 77.7111,251.292 78.2125,250.393 78.631,250.732 79.0914,249.773 79.6155,249.627 80.0243,249.092 80.5026,248.781 80.8397,248.802 81.1671,248.352 81.8688,248.222 82.4364,248.2 82.7793,247.498 83.307,247.679 83.8429,247.11 84.3022,246.436 84.8298,246.255 85.434,246.229 86.0056,245.733 86.5962,245.155 87.0929,245.098 87.7373,244.924 88.3665,244.538 88.9346,243.548 89.6096,242.847 90.1104,241.958 90.6894,241.699 91.5054,241.209 92.2722,241.042 92.7961,240.634 93.534,240.138 94.1789,239.511 94.878,238.603 95.6132,237.87 96.3469,237.525 97.0331,237.242 97.7391,236.441 98.5116,235.39 99.1161,235.552 99.7566,234.775 100.712,235.033 101.694,234.152 102.369,232.991 103.244,231.967 104.144,231.551 105.029,230.075 105.958,228.892 106.889,227.917 107.814,227.304 108.719,226.422 109.555,225.094 110.243,224.262 111.403,224.184 112.257,223.048 113.093,222.353 114.032,221.254 114.984,220.144 115.989,218.897 116.937,218.029 117.863,216.624 118.696,215.267 119.892,215.174 121.057,214.104 121.904,212.797 122.998,211.328 123.979,209.551 124.984,208.486 126.08,206.915 126.991,204.853 127.902,203.382 129.136,202.466 130.263,201.741 131.255,200.73 132.322,198.452 133.353,196.72 134.478,195.729 135.557,193.883 136.571,192.512 137.365,190.018 138.665,189.39 139.916,188.823 140.787,186.839 141.775,185.07 142.861,184.011 143.914,181.939 144.863,180.891 145.655,178.59 146.945,176.505 148.226,175.738 149.26,173.984 150.404,172.528 151.513,170.109 152.524,167.255 153.529,165.064 154.945,163.457 156.215,161.883 157.373,159.893 158.582,156.115 159.737,154.347 160.854,152.152 161.812,148.452 163.355,145.533 164.73,143.477 165.873,140.284 167.171,135.448 168.457,131.016 169.614,123.954 170.72,119.474 172.237,116.048 173.784,111.719 174.947,105.087 176.336,94.9633 177.57,89.4843 178.672,81.5218 180.392,83.1048 181.939,112.37 183.207,118.668 184.709,128.592 186.01,143.947 187.151,134.043 187.978,142.318 189.233,155.699 190.416,150.581 191.17,162.416 192.108,157.139 192.736,158.295 193.303,167.93 194.407,167.698 195.426,170.097 196.154,175.795 196.93,172.927 197.616,184.055 198.42,183.656 199.755,186.37 200.641,190.721 201.624,194.718 202.836,199.368 203.974,202.491 204.907,203.444 205.912,209.243 207.48,211.643 208.742,217.175 209.857,218.095 211.119,219.35 212.276,223.007 213.324,226.451 214.867,228.491 216.286,230.875 217.562,232.537 218.797,234.072 219.965,237.473 220.993,238.907 222.445,240.125 223.919,243.108 225.097,244.819 226.358,246.418 227.669,248.439 228.72,248.19 230.365,250.203 231.938,252.774 233.252,254.18 234.624,255.245 235.963,256.078 237.148,257.934 238.704,259.078 240.278,260.729 241.559,260.252 242.977,261.162 244.274,263.04 245.395,262.875 247.065,264.587 248.669,264.643 249.925,265.862 251.348,266.311 252.791,266.882 254.083,267.743 255.315,267.397 256.974,268.888 258.595,269.561 259.918,269.79 261.369,269.78 262.577,270.615 263.981,271.103 265.658,270.961 267.083,272.742 268.43,272.256 269.859,272.441 271.114,273.532 272.347,273.198 274.028,273.195 275.563,273.996 276.758,273.745 278.298,274.701 279.656,274.554 280.927,274.734 282.133,274.625 283.828,276.006 285.272,275.054 286.585,275.293 288.006,276.084 289.418,276.312 290.616,274.818 291.88,276.483 293.493,277.219 295.015,276.504 296.196,275.872 297.486,277.214 298.803,276.701 300.146,277.271 301.308,276.764 302.499,277.229 303.886,276.669 305.193,277.828 306.369,278.117 307.599,277.507 308.879,278.066 310.01,277.58 311.032,277.917 312.449,278.084 313.837,278.81 314.934,277.657 316.17,278.606 317.446,278.647 318.688,278.013 319.768,277.905 320.926,278.767 322.367,279.001 323.629,278.299 324.64,279.026 325.89,279.178 327.056,279.322 328.262,278.368 329.46,278.908 330.478,279.533 331.517,279.252 332.817,279.29 334.017,278.959 335.043,279.576 336.227,279.633 337.33,279.396 338.493,279.598 339.609,280.027 340.697,279.05 341.716,279.8 342.681,279.5 343.949,280.212 345.06,279.62 346.07,279.41 347.181,280.121 348.246,279.822 349.415,279.818 350.491,279.878 351.496,280.099 352.503,280.018 353.41,279.862 354.351,280.225 355.468,280.227 356.495,279.924 357.388,280.102 358.374,280.017 359.367,280.479 360.316,279.678 361.336,280.505 362.29,280.584 363.284,280.459 364.225,280.446 365.162,279.82 366.058,280.644 366.862,280.003 367.92,281.212 368.884,279.771 369.741,280.117 370.693,280.439 371.655,281.198 372.541,280.33 373.433,280.067 374.282,280.758 375.066,280.707 375.852,280.942 376.632,280.302 377.423,280.835 378.203,280.27 378.872,281.029 379.473,280.403 380.43,281.093 381.237,280.219 381.961,280.664 382.738,280.584 383.525,281.161 384.282,280.664 385.067,280.649 385.805,280.514 386.53,281.663 387.268,280.977 387.922,281.137 388.532,280.706 389.234,281.1 389.909,281.339 390.551,280.7 391.159,281.233 391.774,280.723 392.428,281.316 393.056,280.218 393.747,281.005 394.271,281.293 394.713,281.111 395.506,281.565 396.182,281.035 396.717,280.855 397.356,281.134 397.983,281.559 398.573,280.968 399.047,281.013 399.539,280.985 400.003,281.269 400.479,280.673 400.98,281.186 401.468,281.134 401.916,280.669 402.368,281.223 402.835,281.082 403.279,281.202 403.74,281.205 404.2,281.199 404.637,280.612 405.117,280.871 405.531,281.12 405.98,281.212 406.446,280.891 406.894,280.835 407.299,281.227 407.712,281.517 408.042,281.223 408.413,281.512 408.727,280.694 409.015,281.882 409.275,280.874 409.569,281.308 409.826,280.946 410.091,281.123 410.352,280.928 410.55,280.925 410.828,281.182 411.025,281.186 411.28,280.942 411.519,281.067 411.699,281.248 411.912,281.111 412.083,281.269 412.215,281.564 412.361,281.341 412.48,280.973 412.595,281.396 412.717,281.014 412.8,281.154 412.933,280.69 412.925,281.164 412.92,280.885 413.16,281.019 413.231,281.207 413.08,281.301 413.029,281.188 413.002,281.237 " />
</g>

<g fill="none" stroke="#3594cc" stroke-opacity="1" stroke-dasharray="4,4" stroke-dashoffset="0" stroke-width="4" stroke-linecap="butt" stroke-linejoin="round" transform="matrix(0.506281,0,0,0.502063,-6.29674,-8.0392)"
font-family="Helvetica" font-size="18" font-weight="400" font-style="normal" 
>
<polyline fill="none" vector-effect="none" points="374.339,298 372.422,297.793 370.507,297.59 368.592,297.39 366.676,297.191 364.759,296.994 362.842,296.798 360.925,296.603 359.008,296.409 357.09,296.215 355.172,296.021 353.255,295.826 351.338,295.63 349.421,295.433 347.506,295.235 345.59,295.034 343.676,294.831 341.763,294.626 339.851,294.419 337.941,294.209 336.032,293.997 334.124,293.783 332.219,293.567 330.315,293.349 328.414,293.129 326.515,292.906 324.618,292.681 322.724,292.453 320.832,292.222 318.942,291.987 317.057,291.75 315.174,291.509 313.293,291.265 311.416,291.017 309.543,290.766 307.673,290.51 305.806,290.25 303.943,289.986 302.085,289.718 300.231,289.445 298.38,289.168 296.532,288.885 294.69,288.597 292.852,288.303 291.018,288.004 289.19,287.699 287.366,287.388 285.545,287.071 283.729,286.746 281.919,286.415 280.113,286.076 278.313,285.73 276.518,285.375 274.728,285.013 272.943,284.642 271.163,284.262 269.389,283.873 267.62,283.474 265.857,283.065 264.099,282.645 262.346,282.213 260.598,281.77 258.855,281.314 257.117,280.845 255.385,280.363 253.659,279.866 251.937,279.355 250.222,278.827 248.512,278.283 246.807,277.722 245.108,277.143 243.415,276.543 241.728,275.916 240.042,275.26 238.361,274.574 236.686,273.855 235.016,273.102 233.353,272.314 231.695,271.487 230.037,270.615 228.383,269.698 226.737,268.734 225.095,267.72 223.453,266.648 221.816,265.516 220.184,264.322 218.554,263.057 216.93,261.72 215.307,260.303 213.683,258.794 212.064,257.194 210.465,255.508 208.911,253.757 207.413,251.955 205.975,250.106 204.592,248.209 203.259,246.262 201.973,244.265 200.73,242.217 199.529,240.115 198.366,237.959 197.238,235.747 196.143,233.48 195.08,231.156 194.047,228.774 193.041,226.333 192.061,223.831 191.105,221.267 190.172,218.64 189.261,215.95 188.369,213.195 187.497,210.376 186.643,207.49 185.806,204.538 184.984,201.518 184.178,198.43 183.385,195.274 182.606,192.048 181.839,188.752 181.084,185.385 180.34,181.947 179.606,178.437 178.882,174.855 178.167,171.2 177.46,167.471 176.761,163.669 176.07,159.794 175.385,155.853 174.707,151.838 174.034,147.749 173.366,143.584 172.704,139.346 172.046,135.05 171.391,130.679 170.741,126.233 170.093,121.716 169.448,117.145 168.805,112.502 168.164,107.783 167.525,103.016 166.886,98.1845 166.249,93.2836 165.611,88.4206 164.974,83.8561 164.336,79.6115 163.697,75.7276 163.057,72.2221 162.415,69.1039 161.771,66.3727 161.125,64.0071 160.475,62.0131 159.823,60.4082 159.167,59.1865 158.506,58.3294 157.841,57.8089 157.171,57.7052 156.496,57.9747 155.814,58.615 155.126,59.6703 154.431,61.0647 153.728,62.8179 153.017,64.945 152.298,67.4543 151.569,70.3359 150.83,73.5869 150.081,77.215 149.32,81.2443 148.547,85.6637 147.761,90.3235 146.962,95.0844 146.148,99.9079 145.319,104.807 144.473,109.755 143.61,114.731 142.729,119.724 141.827,124.724 140.905,129.728 139.961,134.733 138.994,139.715 138,144.66 136.981,149.572 135.933,154.592 134.855,159.394 133.744,164.131 132.598,168.804 131.416,173.403 130.195,177.923 128.931,182.359 127.621,186.706 126.263,190.957 124.854,195.11 123.388,199.164 121.858,203.119 120.268,206.957 118.625,210.658 116.941,214.194 115.225,217.534 113.475,220.686 111.69,223.668 109.869,226.488 108.013,229.158 106.12,231.686 104.191,234.082 102.226,236.354 100.225,238.509 98.1842,240.558 96.1157,242.496 94.0439,244.307 91.9842,245.988 89.937,247.55 87.9009,249.007 85.8747,250.371 83.8583,251.658 81.8514,252.877 79.8541,254.031 77.8661,255.126 75.8871,256.163 73.9169,257.145 71.9547,258.076 70,258.959 " />
</g>

<g fill="#ffffff" fill-opacity="1" stroke="none" transform="matrix(5.06281e-05,0,0,5.02063e-05,-6.29674,-8.0392)"
font-family="Helvetica" font-size="18" font-weight="400" font-style="normal" 
>
<path vector-effect="none" fill-rule="evenodd" d="M2.4e+06,410000 L2.4e+06,1.11e+06 L4.74e+06,1.11e+06 L4.74e+06,410000 L2.4e+06,410000"/>
</g>

<g fill="#298c8c" fill-opacity="1" stroke="#298c8c" stroke-opacity="1" stroke-width="4" stroke-linecap="butt" stroke-linejoin="round" transform="matrix(0.506281,0,0,0.502063,-6.29674,-8.0392)"
font-family="Helvetica" font-size="18" font-weight="400" font-style="normal" 
>
<polyline fill="none" vector-effect="none" points="246.013,54.4043 306.141,54.4043 " />
</g>

<g fill="#f1a226" fill-opacity="1" stroke="#f1a226" stroke-opacity="1" stroke-width="4" stroke-linecap="butt" stroke-linejoin="round" transform="matrix(0.506281,0,0,0.502063,-6.29674,-8.0392)"
font-family="Helvetica" font-size="18" font-weight="400" font-style="normal" 
>
<polyline fill="none" vector-effect="none" points="246.013,76 306.141,76 " />
</g>

<g fill="#3594cc" fill-opacity="1" stroke="#3594cc" stroke-opacity="1" stroke-dasharray="4,4" stroke-dashoffset="0" stroke-width="4" stroke-linecap="butt" stroke-linejoin="round" transform="matrix(0.506281,0,0,0.502063,-6.29674,-8.0392)"
font-family="Helvetica" font-size="18" font-weight="400" font-style="normal" 
>
<polyline fill="none" vector-effect="none" points="246.013,97.5957 306.141,97.5957 " />
</g>

<g fill="#212121" fill-opacity="1" stroke="#212121" stroke-opacity="1" stroke-width="1" stroke-linecap="square" stroke-linejoin="bevel" transform="matrix(0.506281,0,0,0.502063,150.98,21.7855)"
font-family="Helvetica" font-size="18" font-weight="400" font-style="normal" 
>
<text fill="#212121" fill-opacity="1" stroke="none" xml:space="preserve" x="0" y="-0.140625" font-family="Helvetica" font-size="18" font-weight="400" font-style="normal" 
 >Measured, Storage</text>
</g>

<g fill="#212121" fill-opacity="1" stroke="#212121" stroke-opacity="1" stroke-width="1" stroke-linecap="square" stroke-linejoin="bevel" transform="matrix(0.506281,0,0,0.502063,150.98,32.6279)"
font-family="Helvetica" font-size="18" font-weight="400" font-style="normal" 
>
<text fill="#212121" fill-opacity="1" stroke="none" xml:space="preserve" x="0" y="-0.140625" font-family="Helvetica" font-size="18" font-weight="400" font-style="normal" 
 >Measured, Release</text>
</g>

<g fill="#212121" fill-opacity="1" stroke="#212121" stroke-opacity="1" stroke-width="1" stroke-linecap="square" stroke-linejoin="bevel" transform="matrix(0.506281,0,0,0.502063,150.98,43.4703)"
font-family="Helvetica" font-size="18" font-weight="400" font-style="normal" 
>
<text fill="#212121" fill-opacity="1" stroke="none" xml:space="preserve" x="0" y="-0.140625" font-family="Helvetica" font-size="18" font-weight="400" font-style="normal" 
 >Predicted</text>
</g>

<g fill="none" stroke="#212121" stroke-opacity="1" stroke-width="1" stroke-linecap="butt" stroke-linejoin="miter" stroke-miterlimit="2" transform="matrix(0.506281,0,0,0.502063,-6.29674,-8.0392)"
font-family="Helvetica" font-size="18" font-weight="400" font-style="normal" 
>
<path vector-effect="none" fill-rule="evenodd" d="M240,111 L240,41 L474,41 L474,111 L240,111"/>
</g>
</g>
</svg>
