<?xml version="1.0" encoding="UTF-8" standalone="no"?>
<svg width="86.4306mm" height="59.6194mm"
 viewBox="0 0 245 169"
 xmlns="http://www.w3.org/2000/svg" xmlns:xlink="http://www.w3.org/1999/xlink"  version="1.2" baseProfile="tiny">
<title>Qt SVG Document</title>
<desc>MATLAB, The MathWorks, Inc. Version 25.1.0.2973910 R2025a Update 1</desc>
<defs>
</defs>
<g fill="none" stroke="black" stroke-width="1" fill-rule="evenodd" stroke-linecap="square" stroke-linejoin="bevel" >

<g fill="#ffffff" fill-opacity="1" stroke="none" transform="matrix(0.506281,0,0,0.502063,-6.29674,-8.0392)"
font-family=".AppleSystemUIFont" font-size="13" font-weight="400" font-style="normal" 
>
<path vector-effect="none" fill-rule="evenodd" d="M12,15 L496,15 L496,352 L12,352 L12,15"/>
</g>

<g fill="#ffffff" fill-opacity="1" stroke="none" transform="matrix(5.06281e-05,0,0,5.02063e-05,-6.29674,-8.0392)"
font-family=".AppleSystemUIFont" font-size="13" font-weight="400" font-style="normal" 
>
<path vector-effect="none" fill-rule="evenodd" d="M700000,270000 L700000,2.98e+06 L4.89e+06,2.98e+06 L4.89e+06,270000 L700000,270000"/>
</g>

<g fill="#212121" fill-opacity="1" stroke="#212121" stroke-opacity="1" stroke-width="1" stroke-linecap="square" stroke-linejoin="bevel" transform="matrix(0.506281,0,0,0.502063,61.0387,164.47)"
font-family="Helvetica" font-size="24" font-weight="400" font-style="normal" 
>
<text fill="#212121" fill-opacity="1" stroke="none" xml:space="preserve" x="0" y="0.46875" font-family="Helvetica" font-size="24" font-weight="400" font-style="normal" 
 >Cable Stroke Distance (cm)</text>
</g>

<g fill="#212121" fill-opacity="1" stroke="#212121" stroke-opacity="1" stroke-width="1" stroke-linecap="square" stroke-linejoin="round" transform="matrix(0.506281,0,0,0.502063,-6.29674,-8.0392)"
font-family="Helvetica" font-size="24" font-weight="400" font-style="normal" 
>
<polyline fill="none" vector-effect="none" points="70,298 489,298 " />
<polyline fill="none" vector-effect="none" points="70,27 489,27 " />
<polyline fill="none" vector-effect="none" points="70,298 70,293.81 " />
<polyline fill="none" vector-effect="none" points="70,31.19 70,27 " />
<polyline fill="none" vector-effect="none" points="174.75,298 174.75,293.81 " />
<polyline fill="none" vector-effect="none" points="174.75,31.19 174.75,27 " />
<polyline fill="none" vector-effect="none" points="279.5,298 279.5,293.81 " />
<polyline fill="none" vector-effect="none" points="279.5,31.19 279.5,27 " />
<polyline fill="none" vector-effect="none" points="384.25,298 384.25,293.81 " />
<polyline fill="none" vector-effect="none" points="384.25,31.19 384.25,27 " />
<polyline fill="none" vector-effect="none" points="489,298 489,293.81 " />
<polyline fill="none" vector-effect="none" points="489,31.19 489,27 " />
</g>

<g fill="#212121" fill-opacity="1" stroke="#212121" stroke-opacity="1" stroke-width="1" stroke-linecap="square" stroke-linejoin="bevel" transform="matrix(0.506281,0,0,0.502063,26.6116,151.416)"
font-family="Helvetica" font-size="18" font-weight="400" font-style="normal" 
>
<text fill="#212121" fill-opacity="1" stroke="none" xml:space="preserve" x="0" y="-0.140625" font-family="Helvetica" font-size="18" font-weight="400" font-style="normal" 
 >0</text>
</g>

<g fill="#212121" fill-opacity="1" stroke="#212121" stroke-opacity="1" stroke-width="1" stroke-linecap="square" stroke-linejoin="bevel" transform="matrix(0.506281,0,0,0.502063,79.6445,151.416)"
font-family="Helvetica" font-size="18" font-weight="400" font-style="normal" 
>
<text fill="#212121" fill-opacity="1" stroke="none" xml:space="preserve" x="0" y="-0.140625" font-family="Helvetica" font-size="18" font-weight="400" font-style="normal" 
 >2</text>
</g>

<g fill="#212121" fill-opacity="1" stroke="#212121" stroke-opacity="1" stroke-width="1" stroke-linecap="square" stroke-linejoin="bevel" transform="matrix(0.506281,0,0,0.502063,132.678,151.416)"
font-family="Helvetica" font-size="18" font-weight="400" font-style="normal" 
>
<text fill="#212121" fill-opacity="1" stroke="none" xml:space="preserve" x="0" y="-0.140625" font-family="Helvetica" font-size="18" font-weight="400" font-style="normal" 
 >4</text>
</g>

<g fill="#212121" fill-opacity="1" stroke="#212121" stroke-opacity="1" stroke-width="1" stroke-linecap="square" stroke-linejoin="bevel" transform="matrix(0.506281,0,0,0.502063,185.71,151.416)"
font-family="Helvetica" font-size="18" font-weight="400" font-style="normal" 
>
<text fill="#212121" fill-opacity="1" stroke="none" xml:space="preserve" x="0" y="-0.140625" font-family="Helvetica" font-size="18" font-weight="400" font-style="normal" 
 >6</text>
</g>

<g fill="#212121" fill-opacity="1" stroke="#212121" stroke-opacity="1" stroke-width="1" stroke-linecap="square" stroke-linejoin="bevel" transform="matrix(0.506281,0,0,0.502063,238.743,151.416)"
font-family="Helvetica" font-size="18" font-weight="400" font-style="normal" 
>
<text fill="#212121" fill-opacity="1" stroke="none" xml:space="preserve" x="0" y="-0.140625" font-family="Helvetica" font-size="18" font-weight="400" font-style="normal" 
 >8</text>
</g>

<g fill="#212121" fill-opacity="1" stroke="#212121" stroke-opacity="1" stroke-width="1" stroke-linecap="square" stroke-linejoin="bevel" transform="matrix(0,-0.502063,0.506281,0,10.6131,121.744)"
font-family="Helvetica" font-size="24" font-weight="400" font-style="normal" 
>
<text fill="#212121" fill-opacity="1" stroke="none" xml:space="preserve" x="0" y="0.46875" font-family="Helvetica" font-size="24" font-weight="400" font-style="normal" 
 >Cable Tension (N)</text>
</g>

<g fill="#212121" fill-opacity="1" stroke="#212121" stroke-opacity="1" stroke-width="1" stroke-linecap="square" stroke-linejoin="round" transform="matrix(0.506281,0,0,0.502063,-6.29674,-8.0392)"
font-family="Helvetica" font-size="24" font-weight="400" font-style="normal" 
>
<polyline fill="none" vector-effect="none" points="70,298 70,27 " />
<polyline fill="none" vector-effect="none" points="489,298 489,27 " />
<polyline fill="none" vector-effect="none" points="70,298 74.19,298 " />
<polyline fill="none" vector-effect="none" points="484.81,298 489,298 " />
<polyline fill="none" vector-effect="none" points="70,230.25 74.19,230.25 " />
<polyline fill="none" vector-effect="none" points="484.81,230.25 489,230.25 " />
<polyline fill="none" vector-effect="none" points="70,162.5 74.19,162.5 " />
<polyline fill="none" vector-effect="none" points="484.81,162.5 489,162.5 " />
<polyline fill="none" vector-effect="none" points="70,94.75 74.19,94.75 " />
<polyline fill="none" vector-effect="none" points="484.81,94.75 489,94.75 " />
<polyline fill="none" vector-effect="none" points="70,27 74.19,27 " />
<polyline fill="none" vector-effect="none" points="484.81,27 489,27 " />
</g>

<g fill="#212121" fill-opacity="1" stroke="#212121" stroke-opacity="1" stroke-width="1" stroke-linecap="square" stroke-linejoin="bevel" transform="matrix(0.506281,0,0,0.502063,21.245,144.086)"
font-family="Helvetica" font-size="18" font-weight="400" font-style="normal" 
>
<text fill="#212121" fill-opacity="1" stroke="none" xml:space="preserve" x="0" y="-0.140625" font-family="Helvetica" font-size="18" font-weight="400" font-style="normal" 
 >0</text>
</g>

<g fill="#212121" fill-opacity="1" stroke="#212121" stroke-opacity="1" stroke-width="1" stroke-linecap="square" stroke-linejoin="bevel" transform="matrix(0.506281,0,0,0.502063,16.1822,110.071)"
font-family="Helvetica" font-size="18" font-weight="400" font-style="normal" 
>
<text fill="#212121" fill-opacity="1" stroke="none" xml:space="preserve" x="0" y="-0.140625" font-family="Helvetica" font-size="18" font-weight="400" font-style="normal" 
 >20</text>
</g>

<g fill="#212121" fill-opacity="1" stroke="#212121" stroke-opacity="1" stroke-width="1" stroke-linecap="square" stroke-linejoin="bevel" transform="matrix(0.506281,0,0,0.502063,16.1822,76.0564)"
font-family="Helvetica" font-size="18" font-weight="400" font-style="normal" 
>
<text fill="#212121" fill-opacity="1" stroke="none" xml:space="preserve" x="0" y="-0.140625" font-family="Helvetica" font-size="18" font-weight="400" font-style="normal" 
 >40</text>
</g>

<g fill="#212121" fill-opacity="1" stroke="#212121" stroke-opacity="1" stroke-width="1" stroke-linecap="square" stroke-linejoin="bevel" transform="matrix(0.506281,0,0,0.502063,16.1822,42.0416)"
font-family="Helvetica" font-size="18" font-weight="400" font-style="normal" 
>
<text fill="#212121" fill-opacity="1" stroke="none" xml:space="preserve" x="0" y="-0.140625" font-family="Helvetica" font-size="18" font-weight="400" font-style="normal" 
 >60</text>
</g>

<g fill="#212121" fill-opacity="1" stroke="#212121" stroke-opacity="1" stroke-width="1" stroke-linecap="square" stroke-linejoin="bevel" transform="matrix(0.506281,0,0,0.502063,16.1822,8.02682)"
font-family="Helvetica" font-size="18" font-weight="400" font-style="normal" 
>
<text fill="#212121" fill-opacity="1" stroke="none" xml:space="preserve" x="0" y="-0.140625" font-family="Helvetica" font-size="18" font-weight="400" font-style="normal" 
 >80</text>
</g>

<g fill="none" stroke="#298c8c" stroke-opacity="1" stroke-width="4" stroke-linecap="butt" stroke-linejoin="round" transform="matrix(0.506281,0,0,0.502063,-6.29674,-8.0392)"
font-family="Helvetica" font-size="18" font-weight="400" font-style="normal" 
>
<polyline fill="none" vector-effect="none" points="413.961,281.354 413.961,281.041 413.961,281.497 413.986,281.119 413.958,281.266 413.984,281.235 413.982,281.204 413.986,281.231 413.945,281.335 413.976,281.229 413.961,281.084 413.936,281.273 413.922,281.087 413.877,281.114 413.815,281.32 413.724,280.956 413.578,281.184 413.354,281.478 413.181,280.739 412.926,281.385 412.646,281.179 412.382,281.239 412.141,281.113 411.853,281.005 411.587,280.95 411.324,281.156 411.044,281.235 410.778,281.033 410.54,280.873 410.254,281.21 409.977,281.109 409.685,280.741 409.394,281.258 409.123,281.03 408.775,280.919 408.412,280.95 408.012,281.341 407.614,281.131 407.253,280.989 406.879,280.725 406.446,280.811 406.049,280.855 405.678,280.532 405.21,280.306 404.685,280.921 404.182,281.063 403.689,280.705 403.176,281.04 402.713,280.496 402.204,280.969 401.686,280.541 401.198,280.518 400.633,280.47 400.088,280.157 399.572,280.859 399.051,280.084 398.484,281.036 397.992,280.569 397.458,280.253 396.868,280.478 396.279,279.998 395.592,279.98 394.93,281.061 394.297,280.391 393.782,280.729 393.261,280.338 392.302,280.156 391.534,280.392 390.898,280.139 390.191,280.537 389.441,279.787 388.668,280.808 387.95,280.135 387.238,279.966 386.541,280.292 385.835,280.002 385.164,280.382 384.459,279.276 383.71,280.43 382.943,279.692 382.245,280.445 381.449,280.166 380.7,279.787 379.865,279.666 379.13,280.158 378.317,279.53 377.556,280.104 376.764,279.295 375.975,279.704 375.288,279.663 374.633,279.943 373.569,279.892 372.648,279.834 371.804,279.145 370.89,279.599 369.971,279.488 368.998,279.848 368.04,279.291 367.126,278.459 366.244,279.343 365.24,278.762 364.26,279.565 363.321,278.489 362.407,278.873 361.491,279.011 360.49,278.531 359.664,278.693 358.819,278.144 357.721,278.762 356.676,278.313 355.847,278.127 354.864,277.783 353.887,277.657 352.837,278.218 351.807,277.194 350.771,277.278 349.72,277.08 348.638,277.191 347.546,276.753 346.482,276.444 345.544,276.877 344.645,276.185 343.344,275.841 342.18,275.673 341.089,275.687 339.873,274.804 338.665,274.69 337.53,274.816 336.318,274.358 335.116,273.05 333.922,273.401 332.818,273.07 331.775,272.744 330.461,271.883 329.265,271.054 328.208,271.29 327.014,269.922 325.806,269.459 324.553,269.262 323.381,268.231 322.196,266.711 321.064,265.963 319.991,265.801 318.566,263.104 317.335,261.482 316.234,260.573 314.983,258.213 313.758,256.924 312.582,256.813 311.369,256 310.219,255.714 309.228,256.151 307.83,255.803 306.516,253.723 305.425,252.295 304.196,253.045 303.014,253.211 301.78,251.444 300.586,251.446 299.465,250.804 298.551,248.043 297.1,247.975 295.669,245.619 294.527,243.065 293.163,242.491 291.954,245.34 290.673,242.628 289.467,244.187 288.313,243.396 286.816,241.617 285.447,240.53 284.299,240.416 282.852,238.013 281.474,236.674 280.165,236.774 279.048,238.785 277.817,235.893 276.232,235.295 274.909,233.27 273.627,232.121 272.19,232.095 270.903,230.249 269.624,228.685 268.513,227.777 266.948,227.012 265.565,226.2 264.39,224.161 263.005,223.499 261.643,222.695 260.414,222.402 259.199,221.355 257.761,219.896 256.345,218.224 255.111,217.465 253.757,216.659 252.443,215.833 251.379,214.927 250.311,213.255 248.84,213.273 247.439,212.679 246.172,210.675 244.917,209.931 243.617,209.952 242.449,208.701 241.383,208.241 239.823,206.246 238.415,206.147 237.186,204.077 235.859,204.464 234.638,203.59 233.548,202.655 232.029,202.1 230.444,200.892 229.201,200.617 227.782,199.164 226.349,198.567 225.027,198.314 223.855,198.409 222.198,196.898 220.617,195.786 219.435,195.241 217.958,195.157 216.776,194.746 215.584,194.052 214.066,193.379 212.506,191.742 211.272,192.447 209.89,192.118 208.536,190.347 207.203,191.288 206.104,190.547 204.464,190.701 203.006,189.916 201.727,188.602 200.359,188.926 199.042,188.083 197.793,189.38 196.693,188.499 195.108,187.147 193.645,188.586 192.329,187.666 190.977,187.854 189.734,188.361 188.596,187.966 187.09,187.944 185.539,188.07 184.323,187.511 182.86,187.058 181.599,187.549 180.415,188.428 179.177,189.172 177.649,188.011 176.231,188.066 175.052,189.019 173.73,188.293 172.458,189.781 171.283,190.095 170.107,189.846 168.687,190.458 167.217,190.59 166.042,190.685 164.71,190.652 163.312,191.872 162.04,193.152 161.039,193.284 159.972,193.783 158.615,194.716 157.362,195.267 156.32,196.093 155.24,195.536 154.074,196.548 153.161,197.457 152.259,198.161 150.924,198.609 149.829,199.146 148.901,199.722 147.791,200.592 146.749,201.258 145.644,201.624 144.737,202.776 143.937,203.5 142.561,204.785 141.235,205.688 140.138,205.498 138.865,207.344 137.677,208.907 136.339,210.096 135.361,211.687 134.441,212.303 133.048,213.989 131.885,215.623 130.989,215.733 129.934,216.633 128.919,217.704 127.821,218.907 126.881,220.143 126.01,221.118 125.051,221.847 123.855,222.875 122.768,224.508 121.885,224.704 120.886,224.74 119.834,225.646 118.984,226.742 118.024,227.787 116.992,229.269 116.209,229.767 115.409,231.252 114.36,232.202 113.339,232.44 112.538,233.793 111.603,233.744 110.731,235.026 109.803,235.848 108.875,236.565 107.989,237.428 107.253,238.429 106.474,238.763 105.405,239.406 104.401,239.936 103.666,240.459 102.764,241.284 101.93,242.414 101.089,243.081 100.207,243.487 99.3675,244.025 98.5133,245.074 97.7354,245.279 97.0367,246.21 96.5669,246.713 95.5438,247.495 94.6856,247.926 94.0752,248.72 93.384,248.464 92.6086,249.692 91.9381,249.868 91.2803,250.45 90.6923,250.315 89.9645,250.911 89.4329,251.291 88.8084,251.899 88.3503,251.758 87.755,251.914 87.3594,252.245 87.0867,253.193 86.3105,252.942 85.6544,253.601 85.2682,253.604 84.8308,254.193 84.2931,254.331 83.7818,254.497 83.3085,254.657 82.8164,255.01 82.4014,255.087 81.8224,255.33 81.36,256.065 80.981,256.207 80.4965,255.961 80.0537,256.429 79.6149,256.993 79.0894,256.754 78.6713,257.334 78.3089,257.447 78.0602,257.891 77.8328,257.983 77.361,257.872 76.9341,257.957 76.7741,258.299 76.4746,258.374 76.2079,258.164 75.7807,258.303 75.4563,258.992 75.1728,258.767 74.8161,258.517 74.4789,258.561 74.1459,258.869 73.9113,259.296 73.6303,258.73 73.3386,258.938 73.0188,258.908 72.6852,259.108 72.4362,259.326 72.1992,259.167 71.8912,259.45 71.5961,260.06 71.3338,260.153 71.062,260.081 70.8685,260.322 70.7496,259.883 70.6305,259.732 70.4622,259.953 70.373,259.834 70.2748,259.903 70.1979,259.743 70.1359,260.088 70.1207,259.992 70.076,260.06 70.025,259.915 70,259.855 70.0414,260.224 70.0527,259.874 70.0368,259.975 70.0751,260.176 70.0304,260.578 70.0622,260.228 70.038,260.074 70.0344,260.321 70.0363,260.129 70.0311,260.188 70.0346,260.485 70.0344,260.491 70.0361,260.495 70.0328,260.458 70.0549,260.082 70.0514,260.274 70.0462,260.575 70.0497,260.215 70.0411,260.318 70.0391,260.404 70.0423,260.118 70.042,260.286 70.0438,260.275 70.0388,260.479 70.0422,260.158 70.044,260.322 70.044,260.238 70.0437,260.591 70.037,260.082 70.0367,260.504 70.0349,260.171 70.0349,260.592 70.0349,260.275 70.0367,260.617 70.0365,260.124 70.0365,260.68 70.0365,260.376 70.0365,260.152 70.0365,260.295 70.0347,260.282 70.0347,260.17 70.0347,260.275 70.0347,260.469 70.0362,260.729 70.0362,260.677 70.0362,260.278 70.0362,260.262 70.0362,260.554 70.0344,260.407 70.0344,260.431 70.0344,260.089 70.0344,260.665 70.0344,260.418 70.0362,260.657 70.0362,260.282 70.0362,260.54 70.0362,260.514 70.0362,260.253 70.0362,260.499 70.0344,260.172 70.0327,260.542 70.0344,260.176 70.0344,260.061 70.0344,260.256 70.0344,260.448 70.036,260.215 70.036,260.439 70.036,260.574 70.036,260.507 70.036,260.146 70.0342,260.607 70.0342,260.64 70.0342,260.65 70.0342,260.192 70.0342,260.202 70.0342,260.15 70.0342,260.375 70.0342,260.188 70.0342,260.098 70.0342,260.433 70.0342,260.614 70.0342,260.325 70.036,260.283 70.036,260.304 70.036,260.438 70.0342,260.314 70.0342,260.59 70.0342,260.318 70.0342,260.151 70.0342,260.621 70.0342,260.743 70.0342,260.188 70.0342,260.762 70.034,260.551 70.0357,260.795 70.0357,260.322 70.034,260.24 70.034,260.485 70.034,260.155 70.034,260.51 70.034,260.506 70.034,260.377 70.034,260.167 70.034,260.703 70.034,260.426 70.034,260.661 70.034,260.634 70.0614,260.878 70.0614,260.88 70.0614,260.317 70.0614,260.027 70.0614,260.532 70.0614,260.282 70.0614,260.751 70.0614,260.221 70.0614,260.838 70.0614,260.386 70.0614,260.548 70.0614,260.235 70.0614,260.579 70.0614,260.534 70.0614,260.355 70.0614,260.786 70.0614,260.235 70.0614,260.183 70.0614,260.697 70.0614,260.324 70.0614,260.365 70.0614,260.296 70.0614,260.681 70.0614,260.539 70.0614,260.784 70.0611,260.46 70.0611,260.533 70.0611,260.586 70.0611,260.779 70.0611,260.216 70.0611,260.611 70.0611,260.321 70.0611,260.742 70.0611,260.935 70.0611,260.479 70.0611,260.265 70.0611,260.675 70.0611,260.724 70.0611,260.638 70.0611,260.338 70.0611,260.604 70.0611,260.806 70.0611,260.603 70.0611,260.215 70.0611,260.296 70.0611,260.276 70.0611,260.685 70.0611,260.289 70.0611,260.308 70.0611,260.676 70.0609,260.554 70.0609,260.485 70.0609,260.346 70.0609,260.429 70.0609,260.518 70.0609,260.557 70.0609,260.343 70.0609,260.28 70.0609,260.668 70.0609,260.289 70.0609,260.617 70.0609,260.664 70.0606,260.688 70.0606,260.532 70.0606,260.512 70.0606,260.486 70.0606,260.194 70.0606,260.584 70.0606,260.409 70.0606,260.648 70.0604,260.623 70.0604,260.199 70.0604,260.571 70.0604,260.589 70.0606,260.372 70.0606,260.309 70.0606,260.417 70.0606,260.897 70.0606,260.458 70.0606,260.251 70.0606,260.554 70.0606,260.529 70.0606,260.811 70.0606,260.259 70.0606,260.381 70.0606,260.311 70.0606,260.8 70.0606,260.614 70.0606,260.57 70.0606,260.566 70.0606,260.9 70.0606,260.454 70.0606,260.705 70.0606,260.587 " />
</g>

<g fill="none" stroke="#f1a226" stroke-opacity="1" stroke-width="4" stroke-linecap="butt" stroke-linejoin="round" transform="matrix(0.506281,0,0,0.502063,-6.29674,-8.0392)"
font-family="Helvetica" font-size="18" font-weight="400" font-style="normal" 
>
<polyline fill="none" vector-effect="none" points="70.0606,260.706 70.0606,260.446 70.0606,260.58 70.0606,260.491 70.0606,260.307 70.0606,260.331 70.0606,260.673 70.0606,260.285 70.0606,260.512 70.0606,260.595 70.0606,260.634 70.0606,260.456 70.0606,260.319 70.0606,260.575 70.0606,260.634 70.0606,260.686 70.0606,260.306 70.0606,260.48 70.0606,260.703 70.0606,260.541 70.0606,260.648 70.0606,260.167 70.0606,260.712 70.0606,260.845 70.0606,260.639 70.0606,260.704 70.0606,260.173 70.0606,260.438 70.0606,260.383 70.0606,260.862 70.0606,260.265 70.0606,260.404 70.0606,260.547 70.0606,260.461 70.0606,260.699 70.0606,260.496 70.0606,260.638 70.0606,260.728 70.0606,260.34 70.0606,260.453 70.0606,260.507 70.0606,260.546 70.0606,260.715 70.0606,260.925 70.0606,260.541 70.0606,260.516 70.0606,260.888 70.0606,260.651 70.0606,260.694 70.0606,260.764 70.0606,260.835 70.0606,260.467 70.0606,260.419 70.0606,260.263 70.0606,260.239 70.0606,260.534 70.0606,260.959 70.0606,260.844 70.0606,260.799 70.0606,260.569 70.0606,260.687 70.0606,260.671 70.0606,260.686 70.0606,260.35 70.0606,260.566 70.0606,260.559 70.0606,260.595 70.0606,260.634 70.0606,260.841 70.0606,260.373 70.0606,260.523 70.0606,260.671 70.0606,260.514 70.0606,260.462 70.0606,260.816 70.0606,260.716 70.0606,260.549 70.0606,260.649 70.0606,260.639 70.0606,260.41 70.0606,260.257 70.0606,260.603 70.0606,260.48 70.0606,260.77 70.0606,260.399 70.0606,260.718 70.0606,260.436 70.0606,260.729 70.0606,260.399 70.0606,260.18 70.0606,260.537 70.0606,260.816 70.0606,260.391 70.0606,260.285 70.0606,260.638 70.0606,260.701 70.0606,260.702 70.0606,260.483 70.0606,260.725 70.0606,260.659 70.0606,260.705 70.0606,260.565 70.0606,260.656 70.0606,260.317 70.0606,260.318 70.0606,260.617 70.0606,260.85 70.0606,260.587 70.0606,260.354 70.0606,260.622 70.0606,260.746 70.0606,260.797 70.0606,260.465 70.0606,260.622 70.0606,260.864 70.0606,260.51 70.0606,260.176 70.0606,260.354 70.0606,260.854 70.0606,260.393 70.0606,260.831 70.0606,260.633 70.0606,260.606 70.0606,260.294 70.0606,260.662 70.0606,260.648 70.0606,260.659 70.0606,260.553 70.0606,260.602 70.0606,260.623 70.0606,260.715 70.0606,260.848 70.0606,260.489 70.0606,260.422 70.0606,260.859 70.0606,260.644 70.0606,260.597 70.0606,260.617 70.0606,260.739 70.0606,260.653 70.0606,260.439 70.0606,260.624 70.0606,260.821 70.0606,260.568 70.0606,260.969 70.0606,260.73 70.0606,260.825 70.0606,260.599 70.0606,260.601 70.0606,260.646 70.0606,260.552 70.0606,260.705 70.0606,260.278 70.0606,260.444 70.0606,260.813 70.0606,260.647 70.0606,260.612 70.0606,260.363 70.0606,260.748 70.0606,260.592 70.0606,260.794 70.0606,260.675 70.0606,260.643 70.0606,260.388 70.0606,260.281 70.0606,260.582 70.0606,260.547 70.0606,260.531 70.0606,260.524 70.0606,260.677 70.0606,260.247 70.0606,260.806 70.0606,260.588 70.0606,260.447 70.0606,260.512 70.0606,260.264 70.0606,260.451 70.0606,260.882 70.0606,260.31 70.0606,260.613 70.0606,260.824 70.0606,260.401 70.0606,260.647 70.0606,260.805 70.0606,260.464 70.0606,260.866 70.0606,260.613 70.0606,260.824 70.0606,260.56 70.0606,260.471 70.0606,260.358 70.0606,260.457 70.0606,260.789 70.0606,260.702 70.0606,260.566 70.0606,260.654 70.0606,260.513 70.0606,260.765 70.0606,260.772 70.0553,260.857 70.0624,260.887 70.0624,260.723 70.0571,260.839 70.0952,260.889 70.0916,260.88 70.1077,260.703 70.1399,260.83 70.1982,260.936 70.2647,260.973 70.3138,261.051 70.3995,261.375 70.5164,261.269 70.6244,260.919 70.7506,261.318 70.9038,261.424 71.0717,261.713 71.25,261.39 71.4242,261.128 71.6475,261.39 71.8251,261.352 71.9842,261.271 72.2319,261.12 72.4736,261.287 72.7345,261.258 73.0159,261.368 73.2603,260.935 73.5199,260.932 73.7957,261.215 74.118,260.701 74.4417,261.137 74.7615,260.611 75.0503,261.01 75.3726,260.82 75.7371,260.82 76.1387,260.074 76.4904,259.986 76.8297,259.931 77.2356,260.076 77.7012,259.88 78.0959,259.672 78.4512,259.093 78.8331,259.456 79.503,259.448 79.9227,258.892 80.2025,258.619 80.689,258.591 81.083,258.411 81.5802,257.865 82.0851,257.963 82.4865,257.766 82.9709,257.586 83.4517,256.875 83.8992,257.053 84.5066,257.095 84.9674,256.138 85.5857,255.786 86.209,256.229 86.7586,255.437 87.3774,254.936 87.8927,254.703 88.534,254.827 89.0588,253.94 89.5221,253.845 90.3157,253.582 90.9253,253.005 91.4734,252.485 92.0626,252.149 92.7588,252.333 93.3544,251.028 94.0403,250.811 94.7012,250.634 95.3805,250.12 96.0806,249.507 96.7203,249.036 97.4284,248.808 97.9647,248.719 98.4824,247.821 99.3918,247.729 100.355,246.72 101.047,246.457 101.942,246.028 102.813,245.127 103.713,244.385 104.633,243.619 105.557,242.369 106.49,241.844 107.395,240.901 108.331,240.149 109.133,239.259 109.971,238.36 111.01,237.471 111.989,236.567 112.861,235.359 113.827,234.651 114.782,233.847 115.707,232.576 116.718,231.955 117.641,231.111 118.443,230.656 119.245,229.951 120.419,228.853 121.595,228.57 122.341,227.122 123.316,226.54 124.409,225.291 125.417,224.563 126.456,223.971 127.441,222.581 128.318,221.549 129.175,220.603 130.368,219.583 131.577,219.151 132.479,217.361 133.579,216.32 134.754,214.215 135.889,212.563 137.004,211.688 138.033,210.568 138.849,209.409 140.202,209.579 141.389,209.366 142.225,208.58 143.279,207.993 144.257,206.764 145.311,205.978 146.3,205.112 147.121,204.383 148.475,204.042 149.758,203.024 150.741,203.153 151.97,202.972 153.134,201.143 154.199,200.766 155.343,200.302 156.267,198.983 157.645,198.463 159.005,198.338 160.054,197.676 161.343,197.315 162.577,196.545 163.618,195.475 164.655,195.158 166.07,194.892 167.438,194.892 168.544,194.638 169.748,194.182 171.046,193.625 172.299,193.687 173.352,193.589 174.364,193.157 175.805,193.16 177.262,193.005 178.189,193.408 179.386,193.53 180.695,192.164 181.694,192.098 182.821,192.752 184.244,193.08 185.544,192.196 186.718,192.25 187.933,192.59 189.018,192.391 189.998,192.53 191.344,192.579 192.586,192.072 193.619,193.043 194.902,194.248 196.065,193.49 197.115,192.649 198.203,193.568 199.671,194.748 200.99,194.483 202.184,193.961 203.494,194.046 204.844,194.843 206.157,195.549 207.332,195.958 208.92,195.639 210.392,196.123 211.784,197.176 213.171,197.915 214.661,198.284 215.941,197.298 217.301,198.943 218.804,199.694 220.302,200.066 221.622,200.627 223.03,200.446 224.258,201.917 225.631,203.05 227.071,203.083 228.55,203.72 229.757,204.71 231.082,205.714 232.377,206.79 233.642,206.322 234.777,207.267 236.249,209.297 237.604,210.318 238.648,210.07 239.941,212.036 241.141,211.175 242.285,212.362 243.393,214.733 244.853,213.651 246.389,215.797 247.601,216.812 249.03,218.627 250.312,218.69 251.359,218.689 252.998,220.881 254.37,220.868 255.576,223.184 256.962,223.616 258.247,223.327 259.457,225.937 260.619,226.897 262.038,228.404 263.399,228.153 264.675,229.65 265.93,231.317 267.271,232.257 268.465,233.72 269.438,233 271.013,235.274 272.484,236.805 273.714,238.157 274.947,239.067 276.27,240.14 277.611,241.416 278.77,242.993 279.811,244.434 281.348,245.239 282.763,246.382 283.853,248.761 285.005,249.591 286.298,250.771 287.375,250.274 288.338,251.52 289.776,252.475 291.328,254.926 292.46,254.825 293.77,255.15 295.035,256.324 296.365,257.592 297.583,245.219 298.68,259.847 300.131,250.107 301.527,258.515 302.766,260.953 304.063,254.945 305.417,258.765 306.77,260.975 308.06,258.666 309.272,263.838 310.427,259.307 311.997,260.976 313.414,265.39 314.667,263.968 316.015,266.054 317.208,266.901 318.475,268.317 319.764,269.788 320.888,272.407 321.883,269.495 323.386,272.386 324.672,271.708 325.785,274.637 327.119,273.638 328.288,273.973 329.488,274.495 330.723,275.173 331.983,275.805 333.213,275.017 334.282,275.628 335.343,276.84 336.677,276.765 337.885,276.484 338.9,277.309 340.017,277.245 341.177,277.467 342.255,277.653 343.391,277.53 344.534,278.25 345.675,277.163 346.643,278.495 347.502,278.148 348.757,278.941 349.877,278.367 350.74,278.451 351.729,279.811 352.685,278.516 353.677,279.235 354.629,278.406 355.593,279.631 356.589,279.408 357.515,279.466 358.517,279.35 359.493,279.993 360.312,279.712 360.978,279.224 362.134,280.146 363.275,279.868 364.086,280.518 365.045,279.655 365.973,280.107 367.066,280.529 368.014,279.917 368.969,280.592 369.969,279.547 370.966,279.972 371.934,280.672 372.885,280.175 373.83,280.474 374.726,279.521 375.625,280.734 376.307,280.434 376.964,280.506 377.941,280.202 378.862,280.268 379.535,280.263 380.316,280.497 381.1,281.133 381.898,280.081 382.716,280.714 383.498,280.613 384.307,280.809 385.025,280.61 385.781,281.05 386.564,280.643 387.371,280.492 388.081,280.624 388.774,280.8 389.494,281.159 390.257,280.67 391.013,280.905 391.727,280.701 392.435,281.161 393.092,280.612 393.806,281.061 394.465,280.333 395.189,281.372 395.751,281.131 396.347,280.972 397.14,281.449 397.785,281.042 398.358,281.173 399.036,280.332 399.594,281.504 400.16,281.33 400.666,280.976 401.178,281.592 401.66,280.878 402.137,281.344 402.642,281.336 403.112,281.057 403.551,281.026 403.992,281.151 404.412,281.581 404.8,281.079 405.216,281.45 405.616,281.509 406.011,281.258 406.434,281.228 406.799,281.221 407.101,280.885 407.388,281.137 407.669,281.31 407.965,280.947 408.259,281.407 408.499,280.964 408.78,281.664 409.102,280.976 409.392,281.281 409.654,280.728 409.989,281.503 410.285,281.478 410.622,280.664 410.952,281.065 411.203,281.132 411.512,281.418 411.76,281.288 412.023,281.22 412.279,281.333 412.486,281.261 412.599,281.544 412.747,281.578 412.938,281.059 413.075,281.199 413.194,280.98 413.321,281.345 413.433,281.602 413.569,280.784 413.688,281.439 413.81,281.17 413.884,281.36 414.001,281.443 414.081,281.352 414.118,280.957 414.11,281.334 414.093,281.327 " />
</g>

<g fill="none" stroke="#3594cc" stroke-opacity="1" stroke-dasharray="4,4" stroke-dashoffset="0" stroke-width="4" stroke-linecap="butt" stroke-linejoin="round" transform="matrix(0.506281,0,0,0.502063,-6.29674,-8.0392)"
font-family="Helvetica" font-size="18" font-weight="400" font-style="normal" 
>
<polyline fill="none" vector-effect="none" points="371.685,298 368.66,297.787 365.684,297.569 362.764,297.342 359.902,297.108 357.096,296.865 354.343,296.612 351.634,296.349 348.979,296.076 346.378,295.79 343.831,295.493 341.335,295.182 338.89,294.857 336.488,294.516 334.137,294.159 331.836,293.785 329.598,293.394 327.452,292.987 325.401,292.567 323.438,292.134 321.556,291.687 319.747,291.227 318.008,290.756 316.334,290.273 314.72,289.778 313.161,289.273 311.655,288.756 310.197,288.228 308.785,287.689 307.415,287.14 306.085,286.58 304.792,286.012 303.534,285.434 302.31,284.846 301.116,284.251 299.951,283.646 298.814,283.034 297.702,282.415 296.615,281.788 295.55,281.155 294.507,280.515 293.484,279.87 292.48,279.219 291.494,278.563 290.524,277.901 289.571,277.236 288.632,276.567 287.707,275.894 286.796,275.219 285.896,274.541 285.008,273.86 284.131,273.178 283.264,272.495 282.406,271.812 281.557,271.129 280.716,270.446 279.882,269.764 279.056,269.083 278.235,268.404 277.42,267.727 276.61,267.053 275.805,266.383 275.004,265.717 274.206,265.056 273.411,264.399 272.619,263.748 271.829,263.102 271.04,262.463 270.253,261.831 269.466,261.207 268.679,260.592 267.892,259.98 267.104,259.368 266.315,258.755 265.524,258.14 264.73,257.524 263.934,256.905 263.134,256.285 262.331,255.663 261.523,255.039 260.71,254.414 259.892,253.787 259.068,253.158 258.238,252.529 257.4,251.898 256.554,251.266 255.7,250.634 254.838,250.002 253.965,249.37 253.082,248.738 252.188,248.108 251.282,247.478 250.363,246.851 249.43,246.226 248.484,245.605 247.521,244.987 246.543,244.374 245.547,243.766 244.532,243.165 243.498,242.571 242.443,241.985 241.366,241.407 240.265,240.839 239.14,240.284 237.987,239.743 236.805,239.214 235.599,238.693 234.376,238.162 233.147,237.6 231.915,237.004 230.677,236.377 229.433,235.724 228.182,235.04 226.929,234.321 225.67,233.572 224.404,232.794 223.134,231.984 221.858,231.141 220.577,230.267 219.29,229.361 217.998,228.422 216.7,227.449 215.397,226.443 214.089,225.403 212.775,224.326 211.456,223.214 210.132,222.068 208.802,220.887 207.468,219.671 206.128,218.415 204.783,217.118 203.432,215.784 202.077,214.417 200.717,213.005 199.351,211.552 197.98,210.058 196.606,208.524 195.226,206.944 193.841,205.319 192.451,203.656 191.058,201.942 189.659,200.179 188.256,198.416 186.847,196.774 185.435,195.254 184.019,193.872 182.598,192.633 181.174,191.54 179.745,190.588 178.312,189.765 176.875,189.071 175.434,188.511 173.989,188.082 172.541,187.774 171.089,187.572 169.633,187.515 168.173,187.582 166.711,187.77 165.245,188.099 163.776,188.538 162.304,189.097 160.828,189.786 159.349,190.608 157.868,191.562 156.384,192.648 154.897,193.873 153.408,195.254 151.916,196.789 150.422,198.412 148.926,200.059 147.427,201.715 145.927,203.39 144.424,205.074 142.919,206.76 141.412,208.447 139.902,210.132 138.391,211.817 136.877,213.505 135.361,215.185 133.842,216.853 132.321,218.515 130.797,220.249 129.271,221.882 127.742,223.497 126.209,225.098 124.674,226.679 123.134,228.241 121.592,229.779 120.046,231.289 118.496,232.769 116.943,234.217 115.386,235.63 113.825,237.007 112.26,238.345 110.692,239.643 109.119,240.9 107.543,242.102 105.962,243.247 104.377,244.339 102.788,245.379 101.195,246.373 99.5971,247.321 97.9946,248.229 96.3878,249.096 94.7764,249.925 93.1603,250.719 91.5392,251.479 89.9134,252.207 88.2827,252.904 86.647,253.573 85.0063,254.217 83.3604,254.84 81.7093,255.451 80.053,256.053 78.3913,256.648 76.7241,257.233 75.0515,257.808 73.3733,258.374 71.6895,258.928 70,259.472 " />
</g>
</g>
</svg>
