<?xml version="1.0" encoding="UTF-8" standalone="no"?>
<svg width="86.4306mm" height="56.0917mm"
 viewBox="0 0 245 159"
 xmlns="http://www.w3.org/2000/svg" xmlns:xlink="http://www.w3.org/1999/xlink"  version="1.2" baseProfile="tiny">
<title>Qt SVG Document</title>
<desc>MATLAB, The MathWorks, Inc. Version 25.1.0.2973910 R2025a Update 1</desc>
<defs>
</defs>
<g fill="none" stroke="black" stroke-width="1" fill-rule="evenodd" stroke-linecap="square" stroke-linejoin="bevel" >

<g fill="#ffffff" fill-opacity="1" stroke="none" transform="matrix(0.5,0,0,0.5,0,0)"
font-family=".AppleSystemUIFont" font-size="13" font-weight="400" font-style="normal" 
>
<path vector-effect="none" fill-rule="evenodd" d="M0,0 L491,0 L491,318 L0,318 L0,0"/>
</g>

<g fill="#ffffff" fill-opacity="1" stroke="none" transform="matrix(5e-05,0,0,5e-05,0,0)"
font-family=".AppleSystemUIFont" font-size="13" font-weight="400" font-style="normal" 
>
<path vector-effect="none" fill-rule="evenodd" d="M680000,240000 L680000,2.62e+06 L4.43e+06,2.62e+06 L4.43e+06,240000 L680000,240000"/>
</g>

<g fill="#212121" fill-opacity="1" stroke="#212121" stroke-opacity="1" stroke-width="1" stroke-linecap="square" stroke-linejoin="bevel" transform="matrix(0.5,0,0,0.5,67.75,153.8)"
font-family="Helvetica" font-size="24" font-weight="400" font-style="normal" 
>
<text fill="#212121" fill-opacity="1" stroke="none" xml:space="preserve" x="0" y="0.46875" font-family="Helvetica" font-size="24" font-weight="400" font-style="normal" 
 >Movement Pattern (%)</text>
</g>

<g fill="#212121" fill-opacity="1" stroke="#212121" stroke-opacity="1" stroke-width="1" stroke-linecap="square" stroke-linejoin="round" transform="matrix(0.5,0,0,0.5,0,0)"
font-family="Helvetica" font-size="24" font-weight="400" font-style="normal" 
>
<polyline fill="none" vector-effect="none" points="68,262 443,262 " />
<polyline fill="none" vector-effect="none" points="68,24 443,24 " />
<polyline fill="none" vector-effect="none" points="68,262 68,258.256 " />
<polyline fill="none" vector-effect="none" points="68,27.744 68,24 " />
<polyline fill="none" vector-effect="none" points="143,262 143,258.256 " />
<polyline fill="none" vector-effect="none" points="143,27.744 143,24 " />
<polyline fill="none" vector-effect="none" points="218,262 218,258.256 " />
<polyline fill="none" vector-effect="none" points="218,27.744 218,24 " />
<polyline fill="none" vector-effect="none" points="293,262 293,258.256 " />
<polyline fill="none" vector-effect="none" points="293,27.744 293,24 " />
<polyline fill="none" vector-effect="none" points="368,262 368,258.256 " />
<polyline fill="none" vector-effect="none" points="368,27.744 368,24 " />
<polyline fill="none" vector-effect="none" points="443,262 443,258.256 " />
<polyline fill="none" vector-effect="none" points="443,27.744 443,24 " />
</g>

<g fill="#212121" fill-opacity="1" stroke="#212121" stroke-opacity="1" stroke-width="1" stroke-linecap="square" stroke-linejoin="bevel" transform="matrix(0.5,0,0,0.5,31.5,140.8)"
font-family="Helvetica" font-size="18" font-weight="400" font-style="normal" 
>
<text fill="#212121" fill-opacity="1" stroke="none" xml:space="preserve" x="0" y="-0.140625" font-family="Helvetica" font-size="18" font-weight="400" font-style="normal" 
 >0</text>
</g>

<g fill="#212121" fill-opacity="1" stroke="#212121" stroke-opacity="1" stroke-width="1" stroke-linecap="square" stroke-linejoin="bevel" transform="matrix(0.5,0,0,0.5,66.5,140.8)"
font-family="Helvetica" font-size="18" font-weight="400" font-style="normal" 
>
<text fill="#212121" fill-opacity="1" stroke="none" xml:space="preserve" x="0" y="-0.140625" font-family="Helvetica" font-size="18" font-weight="400" font-style="normal" 
 >20</text>
</g>

<g fill="#212121" fill-opacity="1" stroke="#212121" stroke-opacity="1" stroke-width="1" stroke-linecap="square" stroke-linejoin="bevel" transform="matrix(0.5,0,0,0.5,104,140.8)"
font-family="Helvetica" font-size="18" font-weight="400" font-style="normal" 
>
<text fill="#212121" fill-opacity="1" stroke="none" xml:space="preserve" x="0" y="-0.140625" font-family="Helvetica" font-size="18" font-weight="400" font-style="normal" 
 >40</text>
</g>

<g fill="#212121" fill-opacity="1" stroke="#212121" stroke-opacity="1" stroke-width="1" stroke-linecap="square" stroke-linejoin="bevel" transform="matrix(0.5,0,0,0.5,141.5,140.8)"
font-family="Helvetica" font-size="18" font-weight="400" font-style="normal" 
>
<text fill="#212121" fill-opacity="1" stroke="none" xml:space="preserve" x="0" y="-0.140625" font-family="Helvetica" font-size="18" font-weight="400" font-style="normal" 
 >60</text>
</g>

<g fill="#212121" fill-opacity="1" stroke="#212121" stroke-opacity="1" stroke-width="1" stroke-linecap="square" stroke-linejoin="bevel" transform="matrix(0.5,0,0,0.5,179,140.8)"
font-family="Helvetica" font-size="18" font-weight="400" font-style="normal" 
>
<text fill="#212121" fill-opacity="1" stroke="none" xml:space="preserve" x="0" y="-0.140625" font-family="Helvetica" font-size="18" font-weight="400" font-style="normal" 
 >80</text>
</g>

<g fill="#212121" fill-opacity="1" stroke="#212121" stroke-opacity="1" stroke-width="1" stroke-linecap="square" stroke-linejoin="bevel" transform="matrix(0.5,0,0,0.5,214,140.8)"
font-family="Helvetica" font-size="18" font-weight="400" font-style="normal" 
>
<text fill="#212121" fill-opacity="1" stroke="none" xml:space="preserve" x="0" y="-0.140625" font-family="Helvetica" font-size="18" font-weight="400" font-style="normal" 
 >100</text>
</g>

<g fill="#212121" fill-opacity="1" stroke="#212121" stroke-opacity="1" stroke-width="1" stroke-linecap="square" stroke-linejoin="bevel" transform="matrix(0,-0.5,0.5,0,10.7,114.25)"
font-family="Helvetica" font-size="24" font-weight="400" font-style="normal" 
>
<text fill="#212121" fill-opacity="1" stroke="none" xml:space="preserve" x="0" y="0.46875" font-family="Helvetica" font-size="24" font-weight="400" font-style="normal" 
 >Angle (degrees)</text>
</g>

<g fill="#212121" fill-opacity="1" stroke="#212121" stroke-opacity="1" stroke-width="1" stroke-linecap="square" stroke-linejoin="round" transform="matrix(0.5,0,0,0.5,0,0)"
font-family="Helvetica" font-size="24" font-weight="400" font-style="normal" 
>
<polyline fill="none" vector-effect="none" points="68,262 68,24 " />
<polyline fill="none" vector-effect="none" points="443,262 443,24 " />
<polyline fill="none" vector-effect="none" points="68,255.16 71.744,255.16 " />
<polyline fill="none" vector-effect="none" points="439.256,255.16 443,255.16 " />
<polyline fill="none" vector-effect="none" points="68,178.106 71.744,178.106 " />
<polyline fill="none" vector-effect="none" points="439.256,178.106 443,178.106 " />
<polyline fill="none" vector-effect="none" points="68,101.053 71.744,101.053 " />
<polyline fill="none" vector-effect="none" points="439.256,101.053 443,101.053 " />
<polyline fill="none" vector-effect="none" points="68,24 71.744,24 " />
<polyline fill="none" vector-effect="none" points="439.256,24 443,24 " />
</g>

<g fill="#212121" fill-opacity="1" stroke="#212121" stroke-opacity="1" stroke-width="1" stroke-linecap="square" stroke-linejoin="bevel" transform="matrix(0.5,0,0,0.5,21.2,130.08)"
font-family="Helvetica" font-size="18" font-weight="400" font-style="normal" 
>
<text fill="#212121" fill-opacity="1" stroke="none" xml:space="preserve" x="0" y="-0.140625" font-family="Helvetica" font-size="18" font-weight="400" font-style="normal" 
 >50</text>
</g>

<g fill="#212121" fill-opacity="1" stroke="#212121" stroke-opacity="1" stroke-width="1" stroke-linecap="square" stroke-linejoin="bevel" transform="matrix(0.5,0,0,0.5,16.2,91.5532)"
font-family="Helvetica" font-size="18" font-weight="400" font-style="normal" 
>
<text fill="#212121" fill-opacity="1" stroke="none" xml:space="preserve" x="0" y="-0.140625" font-family="Helvetica" font-size="18" font-weight="400" font-style="normal" 
 >100</text>
</g>

<g fill="#212121" fill-opacity="1" stroke="#212121" stroke-opacity="1" stroke-width="1" stroke-linecap="square" stroke-linejoin="bevel" transform="matrix(0.5,0,0,0.5,16.2,53.0266)"
font-family="Helvetica" font-size="18" font-weight="400" font-style="normal" 
>
<text fill="#212121" fill-opacity="1" stroke="none" xml:space="preserve" x="0" y="-0.140625" font-family="Helvetica" font-size="18" font-weight="400" font-style="normal" 
 >150</text>
</g>

<g fill="#212121" fill-opacity="1" stroke="#212121" stroke-opacity="1" stroke-width="1" stroke-linecap="square" stroke-linejoin="bevel" transform="matrix(0.5,0,0,0.5,16.2,14.5)"
font-family="Helvetica" font-size="18" font-weight="400" font-style="normal" 
>
<text fill="#212121" fill-opacity="1" stroke="none" xml:space="preserve" x="0" y="-0.140625" font-family="Helvetica" font-size="18" font-weight="400" font-style="normal" 
 >200</text>
</g>

<g fill="none" stroke="#2abf75" stroke-opacity="1" stroke-width="4" stroke-linecap="butt" stroke-linejoin="round" transform="matrix(0.5,0,0,0.5,0,0)"
font-family="Helvetica" font-size="18" font-weight="400" font-style="normal" 
>
<polyline fill="none" vector-effect="none" points="70.455,223.69 76.5285,223.321 82.602,223.044 88.9056,223.014 96.3019,223.102 100.724,223.102 106.031,223.102 110.453,223.645 116.282,224.029 122.356,224.368 128.429,225.015 134.503,225.631 140.576,226.263 145.822,226.438 150.252,226.902 155.559,226.902 159.981,226.902 165.975,226.925 172.048,226.925 178.122,226.925 184.195,226.925 190.269,226.925 196.342,226.925 201.519,226.925 206.856,226.902 211.278,226.359 216.585,225.816 223.397,224.923 229.234,225.207 235.544,224.769 241.963,225.125 247.691,224.769 253.212,224.195 258.153,224.187 262.575,224.73 268.672,224.877 274.47,224.553 282.476,223.382 288.549,222.397 294.623,220.841 300.696,219.693 305.941,218.667 310.335,217.673 313.873,216.045 316.526,214.416 320.064,213.331 324.486,212.788 329.792,211.702 334.929,210.274 341.002,210.135 347.076,209.503 353.149,208.949 359.223,208.641 362.536,208.456 366.054,208.988 371.361,208.988 375.787,208.949 381.308,208.87 385.512,208.445 389.59,208.287 395.664,207.994 401.737,207.578 407.811,207.162 414.114,206.776 420.889,205.731 426.196,204.645 431.502,204.102 437.626,203.003 442.043,202.322 " />
</g>

<g fill="none" stroke="#742abf" stroke-opacity="1" stroke-width="4" stroke-linecap="butt" stroke-linejoin="round" transform="matrix(0.5,0,0,0.5,0,0)"
font-family="Helvetica" font-size="18" font-weight="400" font-style="normal" 
>
<polyline fill="none" vector-effect="none" points="69.7689,223.645 74.191,223.102 79.4976,222.559 83.9198,222.016 89.2264,221.473 94.1969,220.85 98.9552,220.388 104.262,219.845 108.684,219.845 113.106,219.302 117.939,219.331 124.012,219.239 130.086,218.946 136.159,218.684 142.233,218.392 145.546,218.284 149.368,218.216 152.906,218.216 156.443,218.216 161.558,217.637 167.861,216.671 173.248,214.959 179.778,212.584 185.852,210.489 191.069,207.826 195.358,206.274 199.781,204.645 203.318,202.474 206.408,199.319 210.913,195.381 216.674,192.479 221.286,189.03 227.262,185.674 231.605,182.746 235.544,178.501 239.766,174.332 244.002,170.989 248.425,168.275 251.962,166.104 254.444,162.732 258.665,159.868 262.089,155.029 266.341,150.992 269.651,147.647 273.189,145.476 275.842,142.761 278.36,139.2 284.058,137.03 287.955,132.637 291.797,128.27 296.184,124.305 300.606,121.591 305.028,118.334 306.867,114.614 311.566,111.312 315.604,106.802 319.423,103.077 325.37,99.877 330.709,96.8536 336.033,92.6494 339.346,89.1964 345.768,87.5153 349.56,86.2664 354.557,84.6775 359.863,82.5061 365.848,80.0798 372.437,79.0806 377.48,77.4427 384.586,74.9996 389.922,73.0626 396.216,70.7219 402.289,68.6732 408.363,66.5937 413.001,65.4292 417.351,63.5067 422.658,61.3354 427.965,59.7068 432.657,58.0368 438.73,56.558 442.595,55.8443 " />
</g>

<g fill="none" stroke="#bf2a74" stroke-opacity="1" stroke-width="4" stroke-linecap="butt" stroke-linejoin="round" transform="matrix(0.5,0,0,0.5,0,0)"
font-family="Helvetica" font-size="18" font-weight="400" font-style="normal" 
>
<polyline fill="none" vector-effect="none" points="70.547,219.47 75.0755,220.388 78.6132,221.473 83.0354,222.559 87.4576,223.645 92.3565,225.777 98.614,228.327 104.688,230.822 110.761,232.856 116.835,234.698 122.908,236.907 128.761,240.255 133.448,242.644 137.619,245.842 141.408,248.072 145.373,251.728 151.619,254.129 157.456,257.449 160.453,259.865 166.527,261.415 172.6,262 178.674,262 184.747,261.384 190.821,259.967 196.894,258.072 202.968,255.808 209.041,252.342 215.018,249.302 219.629,245.464 224.501,241.582 229.373,237.421 233.985,233.264 238.973,229.387 243.118,225.273 245.556,221.514 249.56,217.124 253.17,212.757 256.525,208.851 259.838,205.222 263.151,201.495 266.464,197.852 269.819,194.262 273.641,190.543 277.506,186.646 281.329,182.779 284.684,178.931 287.997,175.259 291.31,171.56 294.623,167.832 297.978,163.971 301.758,159.969 305.113,156.098 308.426,152.399 311.739,148.713 315.052,145.07 318.407,141.265 322.187,137.277 325.542,133.449 328.855,129.778 332.21,125.976 336.033,122.028 339.898,117.986 343.763,113.931 347.628,109.84 351.45,105.721 354.806,101.848 358.118,98.1204 361.431,94.5197 364.787,91.1232 366.939,89.0202 369.592,86.306 372.267,83.7671 373.13,81.4204 375.783,78.7063 378.436,76.5349 381.974,74.3635 386.192,70.6004 390.142,67.2312 396.216,64.7529 402.289,62.3807 408.363,60.0393 414.436,59.0073 420.51,58.2679 426.583,56.6967 432.657,55.5722 437.074,54.9067 " />
</g>

<g fill="#ffffff" fill-opacity="1" stroke="none" transform="matrix(5e-05,0,0,5e-05,0,0)"
font-family="Helvetica" font-size="18" font-weight="400" font-style="normal" 
>
<path vector-effect="none" fill-rule="evenodd" d="M830000,370000 L830000,1.28e+06 L2.25e+06,1.28e+06 L2.25e+06,370000 L830000,370000"/>
</g>

<g fill="#2abf75" fill-opacity="1" stroke="#2abf75" stroke-opacity="1" stroke-width="4" stroke-linecap="butt" stroke-linejoin="round" transform="matrix(0.5,0,0,0.5,0,0)"
font-family="Helvetica" font-size="18" font-weight="400" font-style="normal" 
>
<polyline fill="none" vector-effect="none" points="89.0212,53.9071 149.233,53.9071 " />
</g>

<g fill="#742abf" fill-opacity="1" stroke="#742abf" stroke-opacity="1" stroke-width="4" stroke-linecap="butt" stroke-linejoin="round" transform="matrix(0.5,0,0,0.5,0,0)"
font-family="Helvetica" font-size="18" font-weight="400" font-style="normal" 
>
<polyline fill="none" vector-effect="none" points="89.0212,82.5 149.233,82.5 " />
</g>

<g fill="#bf2a74" fill-opacity="1" stroke="#bf2a74" stroke-opacity="1" stroke-width="4" stroke-linecap="butt" stroke-linejoin="round" transform="matrix(0.5,0,0,0.5,0,0)"
font-family="Helvetica" font-size="18" font-weight="400" font-style="normal" 
>
<polyline fill="none" vector-effect="none" points="89.0212,111.093 149.233,111.093 " />
</g>

<g fill="#212121" fill-opacity="1" stroke="#212121" stroke-opacity="1" stroke-width="1" stroke-linecap="square" stroke-linejoin="bevel" transform="matrix(0.5,0,0,0.5,76.8746,29.9535)"
font-family="Helvetica" font-size="24" font-weight="400" font-style="normal" 
>
<text fill="#212121" fill-opacity="1" stroke="none" xml:space="preserve" x="0" y="0.46875" font-family="Helvetica" font-size="24" font-weight="400" font-style="normal" 
 >Ankle</text>
</g>

<g fill="#212121" fill-opacity="1" stroke="#212121" stroke-opacity="1" stroke-width="1" stroke-linecap="square" stroke-linejoin="bevel" transform="matrix(0.5,0,0,0.5,76.8746,44.25)"
font-family="Helvetica" font-size="24" font-weight="400" font-style="normal" 
>
<text fill="#212121" fill-opacity="1" stroke="none" xml:space="preserve" x="0" y="0.46875" font-family="Helvetica" font-size="24" font-weight="400" font-style="normal" 
 >Knee</text>
</g>

<g fill="#212121" fill-opacity="1" stroke="#212121" stroke-opacity="1" stroke-width="1" stroke-linecap="square" stroke-linejoin="bevel" transform="matrix(0.5,0,0,0.5,76.8746,58.5464)"
font-family="Helvetica" font-size="24" font-weight="400" font-style="normal" 
>
<text fill="#212121" fill-opacity="1" stroke="none" xml:space="preserve" x="0" y="0.46875" font-family="Helvetica" font-size="24" font-weight="400" font-style="normal" 
 >Pelvis</text>
</g>

<g fill="none" stroke="#212121" stroke-opacity="1" stroke-width="1" stroke-linecap="butt" stroke-linejoin="miter" stroke-miterlimit="2" transform="matrix(0.5,0,0,0.5,0,0)"
font-family="Helvetica" font-size="24" font-weight="400" font-style="normal" 
>
<path vector-effect="none" fill-rule="evenodd" d="M83,128 L83,37 L225,37 L225,128 L83,128"/>
</g>
</g>
</svg>
