<?xml version="1.0" encoding="UTF-8" standalone="no"?>
<svg width="86.4306mm" height="56.0917mm"
 viewBox="0 0 245 159"
 xmlns="http://www.w3.org/2000/svg" xmlns:xlink="http://www.w3.org/1999/xlink"  version="1.2" baseProfile="tiny">
<title>Qt SVG Document</title>
<desc>MATLAB, The MathWorks, Inc. Version 25.1.0.2973910 R2025a Update 1</desc>
<defs>
</defs>
<g fill="none" stroke="black" stroke-width="1" fill-rule="evenodd" stroke-linecap="square" stroke-linejoin="bevel" >

<g fill="#ffffff" fill-opacity="1" stroke="none" transform="matrix(0.5,0,0,0.5,0,0)"
font-family=".AppleSystemUIFont" font-size="13" font-weight="400" font-style="normal" 
>
<path vector-effect="none" fill-rule="evenodd" d="M0,0 L490,0 L490,318 L0,318 L0,0"/>
</g>

<g fill="#ffffff" fill-opacity="1" stroke="none" transform="matrix(5e-05,0,0,5e-05,0,0)"
font-family=".AppleSystemUIFont" font-size="13" font-weight="400" font-style="normal" 
>
<path vector-effect="none" fill-rule="evenodd" d="M640000,240000 L640000,2.61e+06 L4.43e+06,2.61e+06 L4.43e+06,240000 L640000,240000"/>
</g>

<g fill="#212121" fill-opacity="1" stroke="#212121" stroke-opacity="1" stroke-width="1" stroke-linecap="square" stroke-linejoin="bevel" transform="matrix(0.5,0,0,0.5,53.5,153.3)"
font-family="Helvetica" font-size="24" font-weight="400" font-style="normal" 
>
<text fill="#212121" fill-opacity="1" stroke="none" xml:space="preserve" x="0" y="0.46875" font-family="Helvetica" font-size="24" font-weight="400" font-style="normal" 
 >Cable Stroke Distance (cm)</text>
</g>

<g fill="#212121" fill-opacity="1" stroke="#212121" stroke-opacity="1" stroke-width="1" stroke-linecap="square" stroke-linejoin="round" transform="matrix(0.5,0,0,0.5,0,0)"
font-family="Helvetica" font-size="24" font-weight="400" font-style="normal" 
>
<polyline fill="none" vector-effect="none" points="64,261 443,261 " />
<polyline fill="none" vector-effect="none" points="64.1707,261 64.1707,257.21 " />
<polyline fill="none" vector-effect="none" points="158.878,261 158.878,257.21 " />
<polyline fill="none" vector-effect="none" points="253.585,261 253.585,257.21 " />
<polyline fill="none" vector-effect="none" points="348.293,261 348.293,257.21 " />
<polyline fill="none" vector-effect="none" points="443,261 443,257.21 " />
</g>

<g fill="#212121" fill-opacity="1" stroke="#212121" stroke-opacity="1" stroke-width="1" stroke-linecap="square" stroke-linejoin="bevel" transform="matrix(0.5,0,0,0.5,29.5854,140.3)"
font-family="Helvetica" font-size="18" font-weight="400" font-style="normal" 
>
<text fill="#212121" fill-opacity="1" stroke="none" xml:space="preserve" x="0" y="-0.140625" font-family="Helvetica" font-size="18" font-weight="400" font-style="normal" 
 >0</text>
</g>

<g fill="#212121" fill-opacity="1" stroke="#212121" stroke-opacity="1" stroke-width="1" stroke-linecap="square" stroke-linejoin="bevel" transform="matrix(0.5,0,0,0.5,76.939,140.3)"
font-family="Helvetica" font-size="18" font-weight="400" font-style="normal" 
>
<text fill="#212121" fill-opacity="1" stroke="none" xml:space="preserve" x="0" y="-0.140625" font-family="Helvetica" font-size="18" font-weight="400" font-style="normal" 
 >2</text>
</g>

<g fill="#212121" fill-opacity="1" stroke="#212121" stroke-opacity="1" stroke-width="1" stroke-linecap="square" stroke-linejoin="bevel" transform="matrix(0.5,0,0,0.5,124.293,140.3)"
font-family="Helvetica" font-size="18" font-weight="400" font-style="normal" 
>
<text fill="#212121" fill-opacity="1" stroke="none" xml:space="preserve" x="0" y="-0.140625" font-family="Helvetica" font-size="18" font-weight="400" font-style="normal" 
 >4</text>
</g>

<g fill="#212121" fill-opacity="1" stroke="#212121" stroke-opacity="1" stroke-width="1" stroke-linecap="square" stroke-linejoin="bevel" transform="matrix(0.5,0,0,0.5,171.646,140.3)"
font-family="Helvetica" font-size="18" font-weight="400" font-style="normal" 
>
<text fill="#212121" fill-opacity="1" stroke="none" xml:space="preserve" x="0" y="-0.140625" font-family="Helvetica" font-size="18" font-weight="400" font-style="normal" 
 >6</text>
</g>

<g fill="#212121" fill-opacity="1" stroke="#212121" stroke-opacity="1" stroke-width="1" stroke-linecap="square" stroke-linejoin="bevel" transform="matrix(0.5,0,0,0.5,219,140.3)"
font-family="Helvetica" font-size="18" font-weight="400" font-style="normal" 
>
<text fill="#212121" fill-opacity="1" stroke="none" xml:space="preserve" x="0" y="-0.140625" font-family="Helvetica" font-size="18" font-weight="400" font-style="normal" 
 >8</text>
</g>

<g fill="#212121" fill-opacity="1" stroke="#212121" stroke-opacity="1" stroke-width="1" stroke-linecap="square" stroke-linejoin="bevel" transform="matrix(0,-0.5,0.5,0,13.7,119.25)"
font-family="Helvetica" font-size="24" font-weight="400" font-style="normal" 
>
<text fill="#212121" fill-opacity="1" stroke="none" xml:space="preserve" x="0" y="0.46875" font-family="Helvetica" font-size="24" font-weight="400" font-style="normal" 
 >Cable Tension (N)</text>
</g>

<g fill="#212121" fill-opacity="1" stroke="#212121" stroke-opacity="1" stroke-width="1" stroke-linecap="square" stroke-linejoin="round" transform="matrix(0.5,0,0,0.5,0,0)"
font-family="Helvetica" font-size="24" font-weight="400" font-style="normal" 
>
<polyline fill="none" vector-effect="none" points="64,261 64,24 " />
<polyline fill="none" vector-effect="none" points="64,261 67.79,261 " />
<polyline fill="none" vector-effect="none" points="64,201.75 67.79,201.75 " />
<polyline fill="none" vector-effect="none" points="64,142.5 67.79,142.5 " />
<polyline fill="none" vector-effect="none" points="64,83.25 67.79,83.25 " />
<polyline fill="none" vector-effect="none" points="64,24 67.79,24 " />
</g>

<g fill="#212121" fill-opacity="1" stroke="#212121" stroke-opacity="1" stroke-width="1" stroke-linecap="square" stroke-linejoin="bevel" transform="matrix(0.5,0,0,0.5,24.2,133)"
font-family="Helvetica" font-size="18" font-weight="400" font-style="normal" 
>
<text fill="#212121" fill-opacity="1" stroke="none" xml:space="preserve" x="0" y="-0.140625" font-family="Helvetica" font-size="18" font-weight="400" font-style="normal" 
 >0</text>
</g>

<g fill="#212121" fill-opacity="1" stroke="#212121" stroke-opacity="1" stroke-width="1" stroke-linecap="square" stroke-linejoin="bevel" transform="matrix(0.5,0,0,0.5,19.2,103.375)"
font-family="Helvetica" font-size="18" font-weight="400" font-style="normal" 
>
<text fill="#212121" fill-opacity="1" stroke="none" xml:space="preserve" x="0" y="-0.140625" font-family="Helvetica" font-size="18" font-weight="400" font-style="normal" 
 >20</text>
</g>

<g fill="#212121" fill-opacity="1" stroke="#212121" stroke-opacity="1" stroke-width="1" stroke-linecap="square" stroke-linejoin="bevel" transform="matrix(0.5,0,0,0.5,19.2,73.75)"
font-family="Helvetica" font-size="18" font-weight="400" font-style="normal" 
>
<text fill="#212121" fill-opacity="1" stroke="none" xml:space="preserve" x="0" y="-0.140625" font-family="Helvetica" font-size="18" font-weight="400" font-style="normal" 
 >40</text>
</g>

<g fill="#212121" fill-opacity="1" stroke="#212121" stroke-opacity="1" stroke-width="1" stroke-linecap="square" stroke-linejoin="bevel" transform="matrix(0.5,0,0,0.5,19.2,44.125)"
font-family="Helvetica" font-size="18" font-weight="400" font-style="normal" 
>
<text fill="#212121" fill-opacity="1" stroke="none" xml:space="preserve" x="0" y="-0.140625" font-family="Helvetica" font-size="18" font-weight="400" font-style="normal" 
 >60</text>
</g>

<g fill="#212121" fill-opacity="1" stroke="#212121" stroke-opacity="1" stroke-width="1" stroke-linecap="square" stroke-linejoin="bevel" transform="matrix(0.5,0,0,0.5,19.2,14.5)"
font-family="Helvetica" font-size="18" font-weight="400" font-style="normal" 
>
<text fill="#212121" fill-opacity="1" stroke="none" xml:space="preserve" x="0" y="-0.140625" font-family="Helvetica" font-size="18" font-weight="400" font-style="normal" 
 >80</text>
</g>

<g fill="none" stroke="#f1a226" stroke-opacity="1" stroke-width="4" stroke-linecap="butt" stroke-linejoin="round" transform="matrix(0.5,0,0,0.5,0,0)"
font-family="Helvetica" font-size="18" font-weight="400" font-style="normal" 
>
<polyline fill="none" vector-effect="none" points="388.905,246.062 388.905,246 388.905,246.16 388.878,245.815 388.879,246.053 388.904,246.089 388.874,245.917 388.869,245.999 388.857,246.131 388.853,245.986 388.828,245.965 388.775,246.051 388.731,245.928 388.676,245.837 388.554,245.828 388.412,246.208 388.205,245.897 387.983,245.911 387.711,245.987 387.523,246.257 387.419,245.908 386.916,245.927 386.533,245.957 386.256,245.967 385.869,245.89 385.554,245.713 385.179,246.042 384.829,245.41 384.464,245.683 384.103,245.891 383.739,245.592 383.397,245.527 383.033,245.856 382.677,246.032 382.358,245.661 382.01,245.338 381.636,245.52 381.23,245.524 380.809,245.891 380.411,245.482 379.974,245.582 379.549,245.42 379.112,245.094 378.682,245.607 378.227,244.963 377.772,244.914 377.29,245.031 376.725,244.515 376.127,244.582 375.546,244.822 374.978,244.475 374.388,245.066 373.752,243.906 373.075,244.054 372.365,243.942 371.74,243.542 371.052,243.869 370.506,242.845 369.951,243.347 369.076,243.179 368.322,243.495 367.8,244.231 367.126,244.856 366.47,244.14 365.784,244.853 365.052,244.171 364.38,244.443 363.662,243.811 362.895,243.833 362.098,243.721 361.326,244.594 360.55,244.239 359.738,244.46 358.918,243.939 358.086,243.98 357.361,244.209 356.636,244.169 355.623,243.998 354.739,243.406 354.049,244.196 353.256,243.628 352.421,243.668 351.619,244.128 350.708,243.717 349.81,244.103 348.895,244.143 347.943,243.595 346.96,243.64 346.057,243.451 345.234,244.09 344.437,243.185 343.166,243.234 342.072,243.288 341.063,243.327 339.917,242.434 338.811,242.837 337.697,243.091 336.521,243.48 335.381,243.382 334.273,243.675 333.225,242.286 332.153,242.796 330.899,242.879 329.708,242.522 328.754,242.274 327.745,242.771 326.644,242.539 325.567,243.099 324.477,242.828 323.462,242.958 322.51,242.907 321.159,242.133 319.935,242.094 318.936,242.525 317.766,241.493 316.554,241.76 315.385,242.308 314.261,242.804 313.185,241.482 311.738,242.486 310.422,241.753 309.27,242.364 308.005,242.24 306.713,242.139 305.404,241.387 304.224,242.581 303.096,242.285 301.57,241.547 300.183,241.952 299.006,241.883 297.694,241.215 296.401,241.371 295.228,240.884 294,240.868 292.458,240.911 291.081,240.71 289.758,240.419 288.311,239.724 286.976,240.785 285.615,240.52 284.03,239.522 282.497,240.25 281.071,239.888 279.605,239.085 278.307,239.792 276.973,238.763 275.318,238.032 273.753,239.278 272.583,238.886 271.227,237.884 269.933,238.847 268.798,237.625 267.284,237.669 265.908,237.757 264.75,236.964 263.421,236.724 262.217,236.383 260.968,236.4 259.358,236.008 257.839,235.488 256.5,235.37 255.179,234.543 253.817,233.701 252.145,233.725 250.5,232.62 249.145,233.159 247.541,230.458 246.117,230.894 244.817,231.108 243.053,229.07 241.447,228.707 239.912,227.033 238.44,226.356 237.054,226.235 235.35,224.534 233.766,223.403 232.358,222.135 230.904,220.356 229.708,220.348 227.973,217.154 226.466,216.775 225.08,213.942 223.696,213.097 222.435,211.685 220.748,209.676 219.145,207.674 217.792,203.944 216.455,202.922 214.706,200.428 213.138,197.795 211.802,195.099 210.362,190.804 209.091,189.013 207.433,186.24 205.943,182.304 204.584,178.353 203.273,173.964 201.952,171.505 200.396,168.204 198.85,162.89 197.522,157.576 196.232,152.254 195.087,149.924 193.432,145.301 191.9,137.079 190.885,131.384 189.791,126.97 188.159,122.374 186.735,117.328 185.736,109.465 184.626,101.351 183.571,96.7877 182.147,91.8392 180.868,83.9675 179.806,73.6162 178.772,65.3929 177.771,60.9783 176.251,56.0338 174.967,58.9451 173.824,64.3884 172.683,69.2078 171.621,82.3807 169.9,89.5728 168.195,86.3529 166.956,101.755 165.428,106.24 163.477,114.307 161.464,122.735 159.616,121.847 157.71,131.271 155.899,136.805 153.547,141.305 151.134,145.407 149.148,146.644 147.162,154.418 145.206,157.543 142.867,162.288 140.55,162.169 138.522,166.007 136.489,170.561 134.717,173.598 132.595,176.197 130.602,175.338 128.918,179.784 127.164,181.309 125.603,184.678 124.127,184.294 122.328,185.097 120.59,188.338 119.169,189.732 117.788,191.221 116.485,191.616 114.8,193.121 113.209,194.305 111.94,196.875 110.661,196.88 109.388,197.861 107.867,199.664 106.33,201.048 105.113,202.388 103.752,201.902 102.545,204.418 101.392,204.948 99.7939,206.935 98.3894,207.439 97.2389,207.406 95.7675,209.071 94.622,211.058 93.5302,211.84 91.9742,211.397 90.5018,212.768 89.2994,213.617 87.9942,214.728 86.6189,215.096 85.4696,216.156 84.4647,217.197 83.0075,217.848 81.6201,217.635 80.5593,217.942 79.3301,218.761 78.3238,219.553 77.3657,220.695 75.9749,220.727 74.6379,221.005 73.5191,222.196 72.3282,222.678 71.1361,222.925 69.9513,222.969 68.79,223.386 67.8242,224.104 66.4875,224.389 65.1652,224.475 64.1707,224.976 " />
</g>

<g fill="none" stroke="#f1c285" stroke-opacity="1" stroke-width="4" stroke-linecap="butt" stroke-linejoin="round" transform="matrix(0.5,0,0,0.5,0,0)"
font-family="Helvetica" font-size="18" font-weight="400" font-style="normal" 
>
<polyline fill="none" vector-effect="none" points="64,232.299 65.3571,232.403 66.363,231.541 67.5342,231.614 68.7255,231.067 70.0042,230.818 71.0366,229.35 72.1101,229.102 73.587,228.396 74.917,228.324 76.2125,227.84 77.5274,227.105 78.8674,226.025 80.1925,225.635 81.481,224.787 82.7256,223.127 84.3121,222.387 85.5858,221.901 86.8434,220.396 88.2172,219.869 89.4868,218.369 90.679,216.457 91.9406,216.241 93.398,215.616 94.8368,213.705 96.1186,213.256 97.547,212.383 98.874,210.913 100.127,210.039 101.749,208.79 103.352,207.128 104.726,206.702 106.311,205.334 107.662,203.583 108.9,202.092 110.578,200.416 112.213,199.719 113.593,198.227 115.105,195.847 116.493,194.303 117.778,192.702 119.484,191.404 121.144,190.261 122.559,188.401 123.961,186.648 125.237,184.987 126.946,183.705 128.613,182.146 129.956,179.825 131.461,178.822 132.815,176.807 134.053,174.35 135.77,172.463 137.403,170.635 138.804,168.931 140.157,166.879 141.498,163.708 143.214,161.697 144.915,160.285 146.372,157.674 147.824,154.549 149.21,151.055 151.032,149.264 152.824,147.501 154.238,144.64 155.739,141.26 157.147,137.096 158.885,135.337 160.569,133.192 162.087,130.423 163.549,125.994 164.879,119.676 166.691,117.882 168.389,112.401 169.901,105.503 171.456,99.2145 172.823,89.1603 174.807,83.3693 176.715,79.7347 178.033,69.1433 179.584,86.2434 181.533,111.536 183.408,113.864 184.983,135.657 186.451,139.033 187.649,125.749 189.16,149.495 190.559,148.302 191.579,155.075 192.569,159.844 193.377,147.875 194.68,164.533 195.87,165.241 196.757,168.399 197.65,169.625 198.456,165.298 199.612,176.811 200.788,180.754 201.555,179.531 202.444,183.576 203.785,181.972 205.215,193.261 206.414,193.115 207.631,195.079 208.703,194.034 210.421,199.518 212.073,205.6 213.375,205.705 214.784,207.266 216.049,207.275 217.818,212.092 219.48,216.947 220.832,215.356 222.324,217.121 223.549,216.212 225.375,222.2 227.056,224.264 228.487,223.219 229.952,224.097 231.324,225.383 233.111,229.625 234.839,229.243 236.303,229.293 237.794,230.083 239.177,230.831 240.963,233.733 242.68,232.773 244.137,232.513 245.576,233.783 246.916,234.713 248.632,236.714 250.283,235.89 251.753,235.77 253.085,236.63 254.457,237.968 256.136,238.229 257.867,238.232 259.386,238.005 260.906,239.471 262.37,239.289 263.672,238.947 265.505,239.588 267.166,239.508 268.444,241.073 269.841,240.492 271.124,240.6 272.807,240.767 274.305,240.097 275.631,242.089 277.197,241.715 278.481,240.538 279.708,241.643 281.399,241.927 282.983,242.203 284.261,241.984 285.636,241.543 286.984,242.93 288.229,242.104 289.765,242.06 291.243,243.001 292.619,242.862 294.01,242.913 295.445,243.068 296.68,243.108 297.833,243.143 299.377,243.954 300.883,243.394 302.159,243.776 303.506,243.891 304.839,243.341 306.024,243.943 307.235,244.276 308.76,243.556 310.151,244.332 311.347,244.227 312.732,243.659 314.02,245.024 315.261,244.588 316.4,244.735 317.554,244.855 319.002,244.932 320.376,244.567 321.507,244.408 322.762,245.38 323.997,244.975 325.191,244.484 326.216,245.414 327.171,244.97 328.368,244.792 329.52,245.228 330.357,245.669 331.353,245.308 332.31,245.515 333.309,245.181 334.278,245.346 335.219,245.597 336.093,245.619 336.919,245.635 338.05,245.192 339.174,246.017 340.068,245.543 341.051,245.428 342.069,246.094 343.031,245.313 343.995,246.673 345.114,245.233 346.147,245.103 346.997,245.352 347.738,246.366 348.874,245.634 349.966,245.241 350.941,245.933 351.952,245.435 353.025,245.954 353.996,245.538 354.93,245.977 355.85,246.431 356.742,245.705 357.674,245.78 358.507,245.691 359.32,246.071 360.009,245.666 360.633,245.747 361.556,245.875 362.298,245.571 362.949,245.602 363.673,245.973 364.401,245.865 365.174,246.178 365.95,246.126 366.699,245.876 367.364,246.127 368.093,246.051 368.791,246.251 369.48,246.152 370.116,246.093 370.797,245.871 371.449,245.95 372.139,246.008 372.783,245.92 373.425,246.274 373.882,246.034 374.299,246.352 375.079,245.977 375.792,246.388 376.334,245.766 376.924,245.915 377.535,246.457 378.089,245.973 378.684,245.752 379.189,245.939 379.607,246.02 380.051,246.257 380.403,246.288 380.729,246.156 381.055,246.168 381.407,246.195 381.718,246.143 382.086,246.021 382.457,246.298 382.848,245.995 383.248,246.014 383.608,245.904 383.97,246.379 384.317,246.392 384.679,245.854 385.059,246.011 385.38,246.173 385.747,245.867 386.084,246.102 386.36,246.163 386.632,246.023 386.908,246.351 387.138,246.334 387.377,245.956 387.59,246.075 387.813,246.145 387.954,246.076 388.15,245.867 388.319,246.344 388.492,246.143 388.672,246.276 388.851,245.919 388.993,246.297 389.168,245.905 389.302,246.468 389.43,245.765 389.535,246.169 389.57,246.258 389.598,246.316 389.616,246.041 " />
</g>

<g fill="none" stroke="#3594cc" stroke-opacity="1" stroke-dasharray="4,4" stroke-dashoffset="0" stroke-width="4" stroke-linecap="butt" stroke-linejoin="round" transform="matrix(0.5,0,0,0.5,0,0)"
font-family="Helvetica" font-size="18" font-weight="400" font-style="normal" 
>
<polyline fill="none" vector-effect="none" points="401.062,261 399.329,260.819 397.598,260.641 395.866,260.464 394.134,260.288 392.401,260.114 390.668,259.941 388.934,259.769 387.201,259.599 385.467,259.43 383.733,259.263 382,259.097 380.266,258.928 378.534,258.754 376.801,258.578 375.07,258.402 373.339,258.224 371.61,258.044 369.881,257.864 368.154,257.682 366.428,257.499 364.703,257.314 362.98,257.128 361.259,256.94 359.54,256.751 357.823,256.559 356.108,256.366 354.396,256.171 352.685,255.974 350.977,255.775 349.272,255.574 347.569,255.371 345.869,255.165 344.172,254.957 342.478,254.747 340.788,254.534 339.1,254.319 337.416,254.101 335.736,253.88 334.059,253.657 332.385,253.43 330.715,253.201 329.049,252.968 327.387,252.732 325.73,252.493 324.076,252.25 322.427,252.004 320.781,251.754 319.14,251.501 317.503,251.243 315.87,250.981 314.242,250.716 312.619,250.446 311.001,250.172 309.387,249.894 307.778,249.61 306.174,249.321 304.575,249.029 302.98,248.731 301.391,248.427 299.806,248.118 298.226,247.804 296.65,247.483 295.079,247.158 293.513,246.826 291.952,246.487 290.396,246.132 288.845,245.75 287.298,245.346 285.757,244.922 284.221,244.476 282.69,244.012 281.165,243.527 279.641,243.021 278.121,242.496 276.606,241.949 275.097,241.378 273.593,240.787 272.094,240.172 270.595,239.533 269.099,238.869 267.611,238.177 266.127,237.462 264.642,236.715 263.162,235.941 261.687,235.138 260.213,234.299 258.744,233.432 257.277,232.528 255.809,231.589 254.345,230.612 252.899,229.594 251.494,228.54 250.14,227.441 248.84,226.297 247.589,225.109 246.384,223.868 245.221,222.583 244.098,221.24 243.012,219.844 241.96,218.393 240.94,216.877 239.95,215.301 238.99,213.656 238.055,211.946 237.146,210.159 236.259,208.3 235.395,206.363 234.552,204.334 233.728,202.238 232.922,200.049 232.133,197.798 231.361,195.47 230.604,193.074 229.861,190.581 229.132,188 228.416,185.349 227.711,182.601 227.018,179.763 226.335,176.8 225.663,173.76 224.999,170.604 224.344,167.358 223.698,163.973 223.059,160.469 222.427,156.859 221.802,153.113 221.183,149.247 220.569,145.2 219.961,141.038 219.358,136.705 218.758,132.254 218.163,127.613 217.572,122.798 216.983,117.788 216.398,112.617 215.815,107.245 215.233,101.69 214.654,95.8539 214.076,89.8229 213.499,83.5539 212.922,77.0573 212.346,72.4533 211.769,73.9071 211.192,75.4959 210.615,77.1722 210.036,78.9344 209.456,80.7739 208.874,82.6313 208.289,84.5418 207.702,86.4969 207.112,88.4863 206.519,90.4982 205.922,92.499 205.321,94.5071 204.715,96.5215 204.104,98.5077 203.488,100.448 202.866,102.299 202.237,104.087 201.602,105.798 200.959,107.484 200.309,109.068 199.65,110.603 198.982,112.046 198.304,113.452 197.616,114.797 196.917,116.066 196.207,117.327 195.484,118.594 194.749,119.952 193.999,121.314 193.234,122.737 192.454,124.148 191.657,125.59 190.842,127.081 190.008,128.579 189.155,130.135 188.28,131.654 187.382,133.221 186.46,134.807 185.513,136.417 184.538,138.046 183.534,139.65 182.498,141.306 181.429,142.961 180.325,144.652 179.182,146.345 177.998,148.022 176.77,149.725 175.496,151.431 174.171,153.162 172.787,154.857 171.35,156.586 169.864,158.317 168.342,160.06 166.79,161.781 165.208,163.513 163.594,165.268 161.948,167.019 160.269,168.753 158.558,170.481 156.814,172.225 155.038,173.97 153.228,175.678 151.383,177.391 149.513,179.098 147.64,180.82 145.778,182.489 143.927,184.171 142.086,185.85 140.254,187.514 138.431,189.151 136.616,190.788 134.81,192.43 133.013,194.024 131.224,195.622 129.442,197.212 127.668,198.799 125.901,200.346 124.14,201.896 122.384,203.451 120.633,204.967 118.887,206.48 117.145,207.958 115.407,209.41 113.674,210.814 111.946,212.189 110.221,213.518 108.499,214.814 106.779,216.07 105.061,217.287 103.345,218.471 101.635,219.616 99.9249,220.735 98.2158,221.816 96.5099,222.865 94.8053,223.88 93.101,224.862 91.3981,225.813 89.6967,226.731 87.9961,227.621 86.2958,228.475 84.5959,229.305 82.8963,230.1 81.1968,230.863 79.4972,231.592 77.7974,232.288 76.0972,232.946 74.3963,233.473 72.6948,233.794 70.9924,234.101 69.289,234.403 67.5843,234.691 65.8783,234.968 64.1707,235.233 " />
</g>

<g fill="none" stroke="#298c8c" stroke-opacity="1" stroke-width="4" stroke-linecap="butt" stroke-linejoin="round" transform="matrix(0.5,0,0,0.5,0,0)"
font-family="Helvetica" font-size="18" font-weight="400" font-style="normal" 
>
<polyline fill="none" vector-effect="none" points="366.632,245.926 366.632,245.589 366.632,245.847 366.632,245.734 366.632,245.778 366.631,245.859 366.631,245.812 366.629,245.809 366.627,245.833 366.618,245.695 366.607,245.809 366.583,245.68 366.562,245.699 366.512,245.533 366.38,245.634 366.211,245.866 366.022,245.691 365.782,245.579 365.538,245.651 365.248,245.659 364.989,245.493 364.671,245.606 364.355,245.35 364.055,245.346 363.782,245.671 363.479,245.185 363.196,245.341 362.88,245.673 362.581,245.25 362.293,245.626 361.951,245.52 361.607,245.404 361.273,245.366 360.955,245.356 360.573,245.258 360.177,245.384 359.769,245.262 359.375,245.097 358.917,245.197 358.368,245.501 357.861,245.662 357.342,245.055 356.805,245.207 356.332,245.026 355.81,245.188 355.29,244.805 354.788,245.357 354.213,245.41 353.67,245.038 353.144,245.212 352.597,244.697 352.084,245.415 351.508,244.769 350.966,244.697 350.403,244.584 349.734,244.88 349.083,245.199 348.567,244.962 348.021,245.005 347.138,244.796 346.353,244.736 345.765,245.177 345.043,245.108 344.298,244.256 343.551,244.955 342.811,244.428 342.1,244.409 341.353,244.523 340.659,244.226 339.903,244.103 339.161,244.611 338.379,244.415 337.644,244.21 336.818,244.374 335.983,244.151 335.152,244.189 334.332,243.96 333.483,243.375 332.654,244.285 331.799,244.063 330.948,243.03 330.203,243.731 329.476,242.985 328.408,243.723 327.364,242.891 326.517,243.161 325.496,242.81 324.485,242.994 323.484,242.934 322.459,242.471 321.461,242.184 320.432,242.664 319.406,241.47 318.399,241.473 317.421,241.373 316.34,241.078 315.268,241.362 314.335,240.565 313.465,240.62 312.267,239.969 311.152,240.01 310.219,239.666 309.156,239.535 308.016,238.723 306.906,238.391 305.804,237.993 304.671,237.228 303.471,237.257 302.266,236.546 301.264,235.901 300.27,235.113 298.887,234.278 297.65,233.329 296.514,232.338 295.247,231.169 294.046,230.114 292.785,228.559 291.507,226.278 290.218,225.243 289.062,223.166 287.999,223.035 286.606,225.137 285.314,222.103 284.19,222.854 282.976,221.563 281.782,221.634 280.512,221.426 279.294,220.799 278.156,220.056 277.2,219.989 275.738,219.072 274.305,218.262 273.146,216.294 271.831,216.763 270.575,215.312 269.258,215.929 267.997,214.361 266.914,214.256 265.331,213.253 263.804,211.269 262.578,211.35 261.121,209.22 259.703,207.8 258.478,208.28 257.294,206.447 255.735,205.497 254.174,204.403 252.919,202.886 251.507,201.721 250.001,201.373 248.773,200.345 247.593,199.069 246.014,198.194 244.418,196.548 243.135,195.887 241.687,194.298 240.177,192.445 238.924,192.679 237.707,191.631 236.044,190.32 234.434,188.829 233.066,187.369 231.633,187.592 230.302,186.837 228.967,185.814 227.375,183.412 225.698,184.319 224.389,183.096 222.88,180.923 221.557,180.402 220.25,179.043 218.647,178.671 216.954,177.318 215.516,176.353 214.058,175.657 212.626,176.263 211.379,175.021 209.589,174.101 207.892,172.347 206.511,171.286 205.112,171.598 203.776,170.704 202.04,169.965 200.331,168.85 198.854,168.743 197.322,168.858 195.803,168.184 194.443,167.719 192.711,166.673 190.954,166.176 189.499,166.669 188.054,166.225 186.661,165.996 184.994,165.667 183.278,164.993 181.742,163.897 180.1,164.09 178.698,164.448 177.201,163.753 175.434,164.994 173.74,164.182 172.168,163.922 170.673,164.136 169.312,164.717 167.574,165.549 165.748,165.047 164.177,165.558 162.686,165.522 161.281,166.548 159.425,166.31 157.687,165.685 156.166,166.955 154.529,167.867 153.042,169.046 151.599,169.422 149.805,169.691 148.11,170.746 146.575,170.904 145.07,172.757 143.659,173.012 141.848,174.118 140.268,175.343 138.853,175.928 137.37,176.898 135.968,177.519 134.306,178.409 132.746,179.989 131.369,180.66 129.868,181.803 128.424,182.837 126.988,184.484 125.277,185.895 123.594,186.64 122.108,188.669 120.485,190.067 118.954,192.434 117.466,193.579 115.656,194.899 113.922,196.814 112.446,198.417 110.971,200.166 109.591,201.471 107.815,202.79 106.157,204.354 104.673,205.246 103.107,207.137 101.677,208.606 100.299,210.036 98.5755,210.832 96.9636,211.85 95.5911,212.994 94.1029,214.473 92.8085,214.928 91.5183,216.299 89.9503,217.735 88.3862,218.098 87.0368,219.39 85.624,220.076 84.1772,221.033 82.8937,222.737 81.7141,222.573 80.1265,223.088 78.6677,223.728 77.4023,224.726 75.9994,224.31 74.687,224.901 73.4656,225.939 72.2566,227.09 70.7263,227.054 69.236,228.352 68.0126,228.926 66.6886,228.665 65.3209,229.279 64.1707,229.654 " />
</g>

<g fill="none" stroke="#5bb5b7" stroke-opacity="1" stroke-width="4" stroke-linecap="butt" stroke-linejoin="round" transform="matrix(0.5,0,0,0.5,0,0)"
font-family="Helvetica" font-size="18" font-weight="400" font-style="normal" 
>
<polyline fill="none" vector-effect="none" points="64.2762,230.85 65.4976,231.428 66.7101,230.577 67.9047,230.068 69.3779,230.287 70.6532,229.653 71.9047,229.764 73.2371,230.285 74.5422,229.409 75.9163,227.319 77.0831,226.657 78.2335,225.686 79.9051,225.817 81.425,224.332 82.7672,223.335 84.2289,223.794 85.6196,221.913 86.897,221.541 88.5749,220.787 90.0907,219.261 91.4343,218.149 92.8997,217.138 94.338,215.924 95.7065,215.338 97.0569,213.392 98.6732,213.339 100.257,212.595 101.564,209.695 103.097,208.948 104.478,206.776 105.832,206.002 107.583,205.084 109.279,203.392 110.739,202.505 112.353,199.855 113.868,198.847 115.279,196.865 117.073,194.672 118.854,192.936 120.382,192.387 122.021,190.979 123.52,189.209 124.936,187.287 126.715,185.884 128.457,184.779 129.938,182.951 131.393,181.703 132.83,180.202 134.61,180.252 136.325,179.214 137.8,178.991 139.373,177.015 140.781,175.524 142.149,175.978 143.927,174.092 145.553,173.997 146.929,172.707 148.315,172.446 149.623,172.155 151.302,171.03 152.942,170.469 154.389,169.991 155.923,170.043 157.292,168.939 158.482,168.109 160.18,167.811 161.864,168.716 163.354,168.346 164.72,168.236 165.936,166.528 167.682,166.888 169.336,167.734 170.752,168.148 172.07,167.688 173.277,166.439 175.001,167.875 176.673,168.141 178.016,168.389 179.461,167.43 180.952,166.843 182.268,168.368 183.902,168.067 185.608,169.931 186.958,168.697 188.305,168.541 189.58,170.064 191.155,170.314 192.729,170.704 194.036,170.172 195.507,171.617 196.936,172.389 198.221,172.568 199.841,172.773 201.368,173.2 202.758,174.858 204.286,175.219 205.587,175.296 207.298,175.602 208.924,176.837 210.458,178.487 212.157,179.037 213.646,178.014 215.159,180.297 216.879,180.877 218.546,182.869 219.895,183.617 221.476,183.366 222.858,185.25 224.172,185.656 225.721,187.683 227.186,188.071 228.526,188.658 229.88,190.341 231.152,191.562 232.342,192.269 233.99,192.477 235.454,194.629 236.722,195.649 238.081,196.687 239.307,196.854 240.437,197.238 242.031,198.914 243.546,200.588 244.798,201.435 246.23,203.242 247.536,203.317 248.925,204.31 250.121,206.601 251.587,206.173 252.992,207.137 254.352,209.2 255.801,210.056 257.144,210.201 258.415,211.62 259.594,212.89 261.157,213.886 262.647,215.751 263.87,215.698 265.271,218.066 266.638,217.867 267.8,218.047 268.891,220.065 270.405,219.821 271.878,220.512 273.174,222.704 274.461,221.716 275.794,224.588 277.148,223.625 278.348,224.125 279.502,225.886 281.046,225.906 282.387,224.79 283.597,226.45 284.898,227.944 286.162,225.36 287.455,226.935 288.762,229.532 289.921,230.633 291.003,233.187 292.439,234.269 293.821,234.735 294.935,235.987 296.167,236.682 297.389,237.637 298.59,238 299.761,238.24 300.976,239.642 302.143,239.82 303.191,240.328 304.2,240.743 305.471,240.474 306.737,241.073 307.809,242.008 308.908,241.398 310.003,242.184 311.133,242.298 312.217,242.065 313.391,242.985 314.475,242.478 315.539,243.238 316.563,242.777 317.525,243.836 318.73,243.76 319.876,243.849 320.751,243.305 321.801,244.21 322.77,244.066 323.773,244.217 324.826,243.976 325.785,244.139 326.705,244.451 327.676,244.644 328.573,244.031 329.495,244.628 330.325,244.726 331.214,244.843 332.134,244.969 332.89,244.413 333.602,245.271 334.605,244.714 335.585,244.976 336.298,245.052 337.092,245.338 337.928,245.324 338.727,245.192 339.565,245.172 340.318,245.097 341.09,245.667 341.92,245.297 342.712,245.66 343.414,245.11 344.175,245.717 344.868,245.208 345.588,246.029 346.315,245.22 347.027,245.597 347.691,245.492 348.397,245.426 349.058,245.295 349.788,245.729 350.431,244.985 351.046,245.772 351.564,245.518 352.231,246.173 352.706,245.569 353.042,245.023 353.742,246.234 354.256,245.252 354.659,245.627 355.156,245.643 355.631,245.799 356.148,245.969 356.633,245.482 357.163,245.94 357.635,245.496 358.101,245.898 358.599,245.82 359.045,246.031 359.531,246.23 360.037,245.969 360.543,245.723 360.898,245.889 361.264,245.85 361.623,245.974 361.963,245.922 362.245,245.831 362.567,246.216 362.89,245.965 363.191,245.694 363.456,246.333 363.774,246.055 364.085,246.181 364.361,246.262 364.566,245.683 364.782,246.408 365.001,246.084 365.157,246.06 365.351,245.656 365.524,246.053 365.653,245.772 365.799,246.209 365.934,245.97 366.125,246.413 366.286,245.939 366.448,245.719 366.602,246.164 366.701,246.081 366.798,246.261 366.796,246.258 366.796,245.948 366.779,246.097 366.787,245.947 " />
</g>

<g fill="none" stroke="#3594cc" stroke-opacity="1" stroke-dasharray="4,4" stroke-dashoffset="0" stroke-width="4" stroke-linecap="butt" stroke-linejoin="round" transform="matrix(0.5,0,0,0.5,0,0)"
font-family="Helvetica" font-size="18" font-weight="400" font-style="normal" 
>
<polyline fill="none" vector-effect="none" points="398.254,261 395.52,260.818 392.828,260.638 390.189,260.458 387.601,260.28 385.064,260.102 382.575,259.924 380.126,259.748 377.725,259.571 375.374,259.395 373.071,259.218 370.814,259.042 368.603,258.861 366.432,258.674 364.307,258.483 362.226,258.288 360.202,258.091 358.262,257.889 356.408,257.684 354.633,257.475 352.931,257.261 351.296,257.042 349.724,256.819 348.21,256.59 346.751,256.356 345.342,256.116 343.979,255.869 342.661,255.616 341.385,255.356 340.146,255.088 338.943,254.812 337.774,254.528 336.638,254.234 335.531,253.932 334.451,253.619 333.398,253.295 332.37,252.96 331.365,252.613 330.382,252.253 329.419,251.879 328.476,251.49 327.551,251.086 326.643,250.665 325.751,250.226 324.875,249.768 324.013,249.29 323.164,248.789 322.328,248.265 321.504,247.716 320.69,247.14 319.888,246.534 319.095,245.896 318.311,245.225 317.535,244.527 316.767,243.801 316.007,243.047 315.253,242.264 314.506,241.452 313.764,240.608 313.027,239.732 312.295,238.82 311.567,237.873 310.842,236.89 310.121,235.869 309.402,234.809 308.686,233.708 307.972,232.541 307.259,231.295 306.547,229.97 305.836,228.567 305.124,228.038 304.413,227.759 303.7,227.459 302.986,227.146 302.271,226.813 301.554,226.467 300.834,226.103 300.111,225.724 299.384,225.337 298.654,224.931 297.919,224.511 297.18,224.075 296.435,223.623 295.684,223.16 294.926,222.682 294.162,222.187 293.39,221.68 292.61,221.155 291.821,220.617 291.022,220.064 290.214,219.492 289.394,218.906 288.564,218.305 287.721,217.684 286.865,217.048 285.995,216.396 285.11,215.723 284.209,215.037 283.292,214.33 282.357,213.601 281.403,212.863 280.429,212.101 279.434,211.314 278.417,210.515 277.374,209.692 276.306,208.844 275.216,207.984 274.109,207.098 272.998,206.186 271.884,205.271 270.766,204.337 269.64,203.396 268.51,202.464 267.377,201.533 266.238,200.585 265.094,199.636 263.945,198.688 262.792,197.741 261.633,196.786 260.47,195.829 259.302,194.87 258.128,193.913 256.95,192.965 255.767,191.995 254.58,191.026 253.387,190.066 252.19,189.112 250.988,188.157 249.781,187.186 248.569,186.222 247.354,185.26 246.133,184.301 244.907,183.356 243.678,182.392 242.443,181.43 241.203,180.477 239.961,179.536 238.713,178.6 237.461,177.644 236.204,176.702 234.944,175.767 233.68,174.839 232.411,173.927 231.138,173.042 229.861,172.198 228.58,171.396 227.296,170.637 226.008,169.917 224.716,169.206 223.42,168.526 222.121,167.878 220.818,167.258 219.512,166.659 218.203,166.052 216.89,165.463 215.574,164.887 214.254,164.318 212.932,163.754 211.606,163.179 210.278,162.6 208.947,162.023 207.613,161.445 206.276,160.872 204.937,160.269 203.595,159.66 202.251,159.046 200.904,158.431 199.556,157.801 198.205,157.182 196.852,156.622 195.497,156.132 194.14,155.707 192.781,155.351 191.421,155.035 190.058,154.786 188.693,154.608 187.327,154.5 185.958,154.464 184.587,154.468 183.214,154.548 181.839,154.704 180.461,154.935 179.081,155.225 177.699,155.562 176.313,155.969 174.925,156.443 173.533,156.985 172.138,157.583 170.74,158.215 169.339,158.917 167.935,159.68 166.527,160.493 165.116,161.337 163.701,162.239 162.283,163.201 160.862,164.211 159.436,165.243 158.007,166.335 156.574,167.479 155.138,168.675 153.697,169.874 152.252,171.118 150.804,172.408 149.351,173.97 147.894,175.678 146.433,177.391 144.967,179.098 143.497,180.82 142.023,182.489 140.544,184.171 139.06,185.85 137.572,187.514 136.08,189.151 134.582,190.788 133.08,192.43 131.572,194.024 130.06,195.622 128.543,197.212 127.02,198.799 125.493,200.346 123.96,201.896 122.379,203.451 120.635,204.967 118.887,206.48 117.145,207.958 115.407,209.41 113.674,210.814 111.946,212.189 110.221,213.518 108.499,214.814 106.779,216.07 105.061,217.287 103.345,218.471 101.635,219.616 99.9249,220.735 98.2158,221.816 96.5099,222.865 94.8053,223.88 93.101,224.862 91.3981,225.813 89.6967,226.731 87.9961,227.621 86.2958,228.475 84.5959,229.305 82.8963,230.1 81.1968,230.863 79.4972,231.592 77.7974,232.288 76.0972,232.946 74.3963,233.473 72.6948,233.794 70.9924,234.101 69.289,234.403 67.5843,234.691 65.8783,234.968 64.1707,235.233 " />
</g>

<g fill="#ffffff" fill-opacity="1" stroke="none" transform="matrix(5e-05,0,0,5e-05,0,0)"
font-family="Helvetica" font-size="18" font-weight="400" font-style="normal" 
>
<path vector-effect="none" fill-rule="evenodd" d="M2.69e+06,360000 L2.69e+06,1.5e+06 L4.29e+06,1.5e+06 L4.29e+06,360000 L2.69e+06,360000"/>
</g>

<g fill="#f1a226" fill-opacity="1" stroke="#f1a226" stroke-opacity="1" stroke-width="4" stroke-linecap="butt" stroke-linejoin="round" transform="matrix(0.5,0,0,0.5,0,0)"
font-family="Helvetica" font-size="18" font-weight="400" font-style="normal" 
>
<polyline fill="none" vector-effect="none" points="275.019,49.5 335.207,49.5 " />
</g>

<g fill="#f1c285" fill-opacity="1" stroke="#f1c285" stroke-opacity="1" stroke-width="4" stroke-linecap="butt" stroke-linejoin="round" transform="matrix(0.5,0,0,0.5,0,0)"
font-family="Helvetica" font-size="18" font-weight="400" font-style="normal" 
>
<polyline fill="none" vector-effect="none" points="275.019,71.25 335.207,71.25 " />
</g>

<g fill="#298c8c" fill-opacity="1" stroke="#298c8c" stroke-opacity="1" stroke-width="4" stroke-linecap="butt" stroke-linejoin="round" transform="matrix(0.5,0,0,0.5,0,0)"
font-family="Helvetica" font-size="18" font-weight="400" font-style="normal" 
>
<polyline fill="none" vector-effect="none" points="275.019,93 335.207,93 " />
</g>

<g fill="#5bb5b7" fill-opacity="1" stroke="#5bb5b7" stroke-opacity="1" stroke-width="4" stroke-linecap="butt" stroke-linejoin="round" transform="matrix(0.5,0,0,0.5,0,0)"
font-family="Helvetica" font-size="18" font-weight="400" font-style="normal" 
>
<polyline fill="none" vector-effect="none" points="275.019,114.75 335.207,114.75 " />
</g>

<g fill="#3594cc" fill-opacity="1" stroke="#3594cc" stroke-opacity="1" stroke-dasharray="4,4" stroke-dashoffset="0" stroke-width="4" stroke-linecap="butt" stroke-linejoin="round" transform="matrix(0.5,0,0,0.5,0,0)"
font-family="Helvetica" font-size="18" font-weight="400" font-style="normal" 
>
<polyline fill="none" vector-effect="none" points="275.019,136.5 335.207,136.5 " />
</g>

<g fill="#212121" fill-opacity="1" stroke="#212121" stroke-opacity="1" stroke-width="1" stroke-linecap="square" stroke-linejoin="bevel" transform="matrix(0.5,0,0,0.5,169.861,27.25)"
font-family="Helvetica" font-size="18" font-weight="400" font-style="normal" 
>
<text fill="#212121" fill-opacity="1" stroke="none" xml:space="preserve" x="0" y="-0.140625" font-family="Helvetica" font-size="18" font-weight="400" font-style="normal" 
 >Si-St, Stor</text>
</g>

<g fill="#212121" fill-opacity="1" stroke="#212121" stroke-opacity="1" stroke-width="1" stroke-linecap="square" stroke-linejoin="bevel" transform="matrix(0.5,0,0,0.5,169.861,38.125)"
font-family="Helvetica" font-size="18" font-weight="400" font-style="normal" 
>
<text fill="#212121" fill-opacity="1" stroke="none" xml:space="preserve" x="0" y="-0.140625" font-family="Helvetica" font-size="18" font-weight="400" font-style="normal" 
 >Si-St, Rel</text>
</g>

<g fill="#212121" fill-opacity="1" stroke="#212121" stroke-opacity="1" stroke-width="1" stroke-linecap="square" stroke-linejoin="bevel" transform="matrix(0.5,0,0,0.5,169.861,49)"
font-family="Helvetica" font-size="18" font-weight="400" font-style="normal" 
>
<text fill="#212121" fill-opacity="1" stroke="none" xml:space="preserve" x="0" y="-0.140625" font-family="Helvetica" font-size="18" font-weight="400" font-style="normal" 
 >St-Si, Stor</text>
</g>

<g fill="#212121" fill-opacity="1" stroke="#212121" stroke-opacity="1" stroke-width="1" stroke-linecap="square" stroke-linejoin="bevel" transform="matrix(0.5,0,0,0.5,169.861,59.875)"
font-family="Helvetica" font-size="18" font-weight="400" font-style="normal" 
>
<text fill="#212121" fill-opacity="1" stroke="none" xml:space="preserve" x="0" y="-0.140625" font-family="Helvetica" font-size="18" font-weight="400" font-style="normal" 
 >St-Si, Rel</text>
</g>

<g fill="#212121" fill-opacity="1" stroke="#212121" stroke-opacity="1" stroke-width="1" stroke-linecap="square" stroke-linejoin="bevel" transform="matrix(0.5,0,0,0.5,169.861,70.75)"
font-family="Helvetica" font-size="18" font-weight="400" font-style="normal" 
>
<text fill="#212121" fill-opacity="1" stroke="none" xml:space="preserve" x="0" y="-0.140625" font-family="Helvetica" font-size="18" font-weight="400" font-style="normal" 
 >Predicted</text>
</g>

<g fill="none" stroke="#212121" stroke-opacity="1" stroke-width="1" stroke-linecap="butt" stroke-linejoin="miter" stroke-miterlimit="2" transform="matrix(0.5,0,0,0.5,0,0)"
font-family="Helvetica" font-size="18" font-weight="400" font-style="normal" 
>
<path vector-effect="none" fill-rule="evenodd" d="M269,150 L269,36 L429,36 L429,150 L269,150"/>
</g>
</g>
</svg>
