<?xml version="1.0" encoding="UTF-8" standalone="no"?>
<svg width="86.4306mm" height="56.0917mm"
 viewBox="0 0 245 159"
 xmlns="http://www.w3.org/2000/svg" xmlns:xlink="http://www.w3.org/1999/xlink"  version="1.2" baseProfile="tiny">
<title>Qt SVG Document</title>
<desc>MATLAB, The MathWorks, Inc. Version 25.1.0.2973910 R2025a Update 1</desc>
<defs>
</defs>
<g fill="none" stroke="black" stroke-width="1" fill-rule="evenodd" stroke-linecap="square" stroke-linejoin="bevel" >

<g fill="#ffffff" fill-opacity="1" stroke="none" transform="matrix(0.5,0,0,0.5,0,0)"
font-family=".AppleSystemUIFont" font-size="13" font-weight="400" font-style="normal" 
>
<path vector-effect="none" fill-rule="evenodd" d="M0,0 L491,0 L491,318 L0,318 L0,0"/>
</g>

<g fill="#ffffff" fill-opacity="1" stroke="none" transform="matrix(5e-05,0,0,5e-05,0,0)"
font-family=".AppleSystemUIFont" font-size="13" font-weight="400" font-style="normal" 
>
<path vector-effect="none" fill-rule="evenodd" d="M640000,240000 L640000,2.67e+06 L4.43e+06,2.67e+06 L4.43e+06,240000 L640000,240000"/>
</g>

<g fill="#212121" fill-opacity="1" stroke="#212121" stroke-opacity="1" stroke-width="1" stroke-linecap="square" stroke-linejoin="bevel" transform="matrix(0.5,0,0,0.5,65.75,154.8)"
font-family="Helvetica" font-size="20" font-weight="400" font-style="normal" 
>
<text fill="#212121" fill-opacity="1" stroke="none" xml:space="preserve" x="0" y="0.390625" font-family="Helvetica" font-size="20" font-weight="400" font-style="normal" 
 >Cable Stroke Distance (cm)</text>
</g>

<g fill="#212121" fill-opacity="1" stroke="#212121" stroke-opacity="1" stroke-width="1" stroke-linecap="square" stroke-linejoin="round" transform="matrix(0.5,0,0,0.5,0,0)"
font-family="Helvetica" font-size="20" font-weight="400" font-style="normal" 
>
<polyline fill="none" vector-effect="none" points="64,267 443,267 " />
<polyline fill="none" vector-effect="none" points="64,267 64,263.21 " />
<polyline fill="none" vector-effect="none" points="190.333,267 190.333,263.21 " />
<polyline fill="none" vector-effect="none" points="316.667,267 316.667,263.21 " />
<polyline fill="none" vector-effect="none" points="443,267 443,263.21 " />
</g>

<g fill="#212121" fill-opacity="1" stroke="#212121" stroke-opacity="1" stroke-width="1" stroke-linecap="square" stroke-linejoin="bevel" transform="matrix(0.5,0,0,0.5,29.5,143.3)"
font-family="Helvetica" font-size="18" font-weight="400" font-style="normal" 
>
<text fill="#212121" fill-opacity="1" stroke="none" xml:space="preserve" x="0" y="-0.140625" font-family="Helvetica" font-size="18" font-weight="400" font-style="normal" 
 >0</text>
</g>

<g fill="#212121" fill-opacity="1" stroke="#212121" stroke-opacity="1" stroke-width="1" stroke-linecap="square" stroke-linejoin="bevel" transform="matrix(0.5,0,0,0.5,92.6667,143.3)"
font-family="Helvetica" font-size="18" font-weight="400" font-style="normal" 
>
<text fill="#212121" fill-opacity="1" stroke="none" xml:space="preserve" x="0" y="-0.140625" font-family="Helvetica" font-size="18" font-weight="400" font-style="normal" 
 >2</text>
</g>

<g fill="#212121" fill-opacity="1" stroke="#212121" stroke-opacity="1" stroke-width="1" stroke-linecap="square" stroke-linejoin="bevel" transform="matrix(0.5,0,0,0.5,155.833,143.3)"
font-family="Helvetica" font-size="18" font-weight="400" font-style="normal" 
>
<text fill="#212121" fill-opacity="1" stroke="none" xml:space="preserve" x="0" y="-0.140625" font-family="Helvetica" font-size="18" font-weight="400" font-style="normal" 
 >4</text>
</g>

<g fill="#212121" fill-opacity="1" stroke="#212121" stroke-opacity="1" stroke-width="1" stroke-linecap="square" stroke-linejoin="bevel" transform="matrix(0.5,0,0,0.5,219,143.3)"
font-family="Helvetica" font-size="18" font-weight="400" font-style="normal" 
>
<text fill="#212121" fill-opacity="1" stroke="none" xml:space="preserve" x="0" y="-0.140625" font-family="Helvetica" font-size="18" font-weight="400" font-style="normal" 
 >6</text>
</g>

<g fill="#212121" fill-opacity="1" stroke="#212121" stroke-opacity="1" stroke-width="1" stroke-linecap="square" stroke-linejoin="bevel" transform="matrix(0,-0.5,0.5,0,14.2,112.75)"
font-family="Helvetica" font-size="20" font-weight="400" font-style="normal" 
>
<text fill="#212121" fill-opacity="1" stroke="none" xml:space="preserve" x="0" y="0.390625" font-family="Helvetica" font-size="20" font-weight="400" font-style="normal" 
 >Cable Tension (N)</text>
</g>

<g fill="#212121" fill-opacity="1" stroke="#212121" stroke-opacity="1" stroke-width="1" stroke-linecap="square" stroke-linejoin="round" transform="matrix(0.5,0,0,0.5,0,0)"
font-family="Helvetica" font-size="20" font-weight="400" font-style="normal" 
>
<polyline fill="none" vector-effect="none" points="64,267 64,24 " />
<polyline fill="none" vector-effect="none" points="64,267 67.79,267 " />
<polyline fill="none" vector-effect="none" points="64,206.25 67.79,206.25 " />
<polyline fill="none" vector-effect="none" points="64,145.5 67.79,145.5 " />
<polyline fill="none" vector-effect="none" points="64,84.75 67.79,84.75 " />
<polyline fill="none" vector-effect="none" points="64,24 67.79,24 " />
</g>

<g fill="#212121" fill-opacity="1" stroke="#212121" stroke-opacity="1" stroke-width="1" stroke-linecap="square" stroke-linejoin="bevel" transform="matrix(0.5,0,0,0.5,24.2,136)"
font-family="Helvetica" font-size="18" font-weight="400" font-style="normal" 
>
<text fill="#212121" fill-opacity="1" stroke="none" xml:space="preserve" x="0" y="-0.140625" font-family="Helvetica" font-size="18" font-weight="400" font-style="normal" 
 >0</text>
</g>

<g fill="#212121" fill-opacity="1" stroke="#212121" stroke-opacity="1" stroke-width="1" stroke-linecap="square" stroke-linejoin="bevel" transform="matrix(0.5,0,0,0.5,19.2,105.625)"
font-family="Helvetica" font-size="18" font-weight="400" font-style="normal" 
>
<text fill="#212121" fill-opacity="1" stroke="none" xml:space="preserve" x="0" y="-0.140625" font-family="Helvetica" font-size="18" font-weight="400" font-style="normal" 
 >20</text>
</g>

<g fill="#212121" fill-opacity="1" stroke="#212121" stroke-opacity="1" stroke-width="1" stroke-linecap="square" stroke-linejoin="bevel" transform="matrix(0.5,0,0,0.5,19.2,75.25)"
font-family="Helvetica" font-size="18" font-weight="400" font-style="normal" 
>
<text fill="#212121" fill-opacity="1" stroke="none" xml:space="preserve" x="0" y="-0.140625" font-family="Helvetica" font-size="18" font-weight="400" font-style="normal" 
 >40</text>
</g>

<g fill="#212121" fill-opacity="1" stroke="#212121" stroke-opacity="1" stroke-width="1" stroke-linecap="square" stroke-linejoin="bevel" transform="matrix(0.5,0,0,0.5,19.2,44.875)"
font-family="Helvetica" font-size="18" font-weight="400" font-style="normal" 
>
<text fill="#212121" fill-opacity="1" stroke="none" xml:space="preserve" x="0" y="-0.140625" font-family="Helvetica" font-size="18" font-weight="400" font-style="normal" 
 >60</text>
</g>

<g fill="#212121" fill-opacity="1" stroke="#212121" stroke-opacity="1" stroke-width="1" stroke-linecap="square" stroke-linejoin="bevel" transform="matrix(0.5,0,0,0.5,19.2,14.5)"
font-family="Helvetica" font-size="18" font-weight="400" font-style="normal" 
>
<text fill="#212121" fill-opacity="1" stroke="none" xml:space="preserve" x="0" y="-0.140625" font-family="Helvetica" font-size="18" font-weight="400" font-style="normal" 
 >80</text>
</g>

<g fill="none" stroke="#f1a226" stroke-opacity="1" stroke-width="4" stroke-linecap="butt" stroke-linejoin="round" transform="matrix(0.5,0,0,0.5,0,0)"
font-family="Helvetica" font-size="18" font-weight="400" font-style="normal" 
>
<polyline fill="none" vector-effect="none" points="443,249.361 442.533,249.155 441.223,249.201 440.018,249.007 438.919,249.662 437.857,248.734 436.161,248.785 434.701,248.839 433.356,248.88 431.828,247.963 430.352,248.377 428.866,248.638 427.298,249.037 425.777,248.936 424.299,249.237 422.9,247.812 421.47,248.335 419.799,248.421 418.21,248.055 416.937,247.8 415.591,248.31 414.122,248.071 412.685,248.646 411.232,248.368 409.877,248.501 408.608,248.449 406.806,247.656 405.173,247.615 403.84,248.057 402.279,246.999 400.663,247.273 399.104,247.835 397.604,248.343 396.168,246.988 394.238,248.018 392.484,247.265 390.947,247.892 389.258,247.765 387.535,247.661 385.789,246.89 384.216,248.115 382.71,247.811 380.674,247.055 378.825,247.47 377.254,247.399 375.505,246.714 373.779,246.874 372.215,246.375 370.577,246.358 368.521,246.402 366.683,246.196 364.919,245.898 362.989,245.185 361.208,246.273 359.392,246.001 357.277,244.978 355.232,245.725 353.33,245.353 351.375,244.53 349.644,245.255 347.864,244.2 345.657,243.45 343.57,244.728 342.009,244.326 340.199,243.298 338.473,244.287 336.959,243.033 334.94,243.078 333.105,243.168 331.56,242.355 329.787,242.109 328.181,241.76 326.515,241.778 324.367,241.375 322.34,240.842 320.555,240.721 318.792,239.873 316.976,239.01 314.745,239.034 312.551,237.901 310.743,238.454 308.604,235.685 306.704,236.131 304.971,236.352 302.617,234.262 300.475,233.89 298.427,232.173 296.464,231.479 294.615,231.355 292.341,229.611 290.228,228.451 288.351,227.151 286.412,225.327 284.816,225.319 282.501,222.044 280.491,221.656 278.643,218.751 276.796,217.885 275.115,216.437 272.864,214.377 270.726,212.324 268.92,208.5 267.138,207.452 264.805,204.895 262.713,202.194 260.931,199.431 259.01,195.027 257.314,193.191 255.102,190.347 253.115,186.312 251.302,182.261 249.553,177.76 247.792,175.239 245.716,171.855 243.654,166.406 241.881,160.958 240.161,155.501 238.633,153.112 236.426,148.371 234.382,139.942 233.028,134.103 231.57,129.577 229.393,124.864 227.493,119.69 226.16,111.629 224.679,103.309 223.272,98.6304 221.373,93.5567 219.667,85.4856 218.25,74.8723 216.871,66.4408 215.536,61.9144 213.508,56.8448 211.795,59.8298 210.27,65.4109 208.748,70.3523 207.331,83.8587 205.036,91.2329 202.762,87.9315 201.109,103.723 199.071,108.322 196.468,116.594 193.783,125.234 191.317,124.325 188.775,133.987 186.359,139.661 183.223,144.275 180.004,148.481 177.354,149.749 174.705,157.72 172.096,160.924 168.976,165.789 165.885,165.667 163.179,169.603 160.467,174.271 158.105,177.385 155.273,180.05 152.615,179.169 150.369,183.728 148.029,185.292 145.946,188.746 143.978,188.352 141.578,189.176 139.259,192.499 137.365,193.928 135.522,195.455 133.783,195.859 131.537,197.402 129.414,198.617 127.721,201.252 126.015,201.257 124.317,202.262 122.288,204.112 120.238,205.53 118.615,206.905 116.798,206.406 115.189,208.985 113.65,209.529 111.519,211.566 109.646,212.083 108.111,212.049 106.148,213.757 104.62,215.794 103.164,216.595 101.088,216.141 99.124,217.547 97.52,218.418 95.7789,219.557 93.9445,219.934 92.4114,221.021 91.0709,222.088 89.1271,222.756 87.2764,222.538 85.8613,222.852 84.2216,223.692 82.8793,224.504 81.6013,225.674 79.746,225.707 77.9625,225.992 76.4701,227.213 74.8815,227.708 73.2914,227.961 71.711,228.006 70.1619,228.434 68.8736,229.17 67.0904,229.462 65.3266,229.55 64,230.064 " />
</g>

<g fill="none" stroke="#f1c285" stroke-opacity="1" stroke-width="4" stroke-linecap="butt" stroke-linejoin="round" transform="matrix(0.5,0,0,0.5,0,0)"
font-family="Helvetica" font-size="18" font-weight="400" font-style="normal" 
>
<polyline fill="none" vector-effect="none" points="65.5826,237.679 66.9244,236.796 68.4867,236.87 70.0758,236.309 71.7815,236.054 73.1587,234.549 74.5907,234.294 76.5608,233.571 78.3349,233.497 80.0629,233.001 81.8169,232.247 83.6044,231.139 85.372,230.74 87.0909,229.871 88.7511,228.168 90.8673,227.41 92.5663,226.912 94.2439,225.368 96.0764,224.828 97.77,223.29 99.3603,221.33 101.043,221.108 102.987,220.467 104.907,218.507 106.616,218.047 108.522,217.152 110.292,215.645 111.964,214.749 114.127,213.468 116.266,211.764 118.097,211.327 120.213,209.925 122.014,208.129 123.666,206.601 125.904,204.883 128.085,204.168 129.926,202.638 131.943,200.197 133.795,198.615 135.508,196.973 137.785,195.642 139.999,194.471 141.887,192.563 143.756,190.765 145.458,189.062 147.738,187.748 149.961,186.15 151.753,183.77 153.761,182.742 155.567,180.676 157.219,178.156 159.509,176.221 161.687,174.347 163.555,172.6 165.36,170.496 167.149,167.245 169.439,165.183 171.707,163.735 173.651,161.058 175.588,157.854 177.436,154.272 179.868,152.435 182.257,150.627 184.144,147.694 186.146,144.228 188.024,139.959 190.343,138.155 192.589,135.957 194.614,133.117 196.565,128.576 198.339,122.098 200.755,120.258 203.02,114.639 205.037,107.566 207.111,101.119 208.935,90.8099 211.582,84.8723 214.127,81.1457 215.885,70.2862 217.954,87.8191 220.554,113.752 223.055,116.139 225.156,138.483 227.114,141.945 228.712,128.325 230.728,152.672 232.593,151.449 233.954,158.393 235.275,163.283 236.353,151.011 238.091,168.091 239.679,168.817 240.861,172.055 242.053,173.312 243.128,168.876 244.67,180.68 246.239,184.722 247.262,183.468 248.447,187.616 250.236,185.971 252.144,197.546 253.743,197.397 255.366,199.41 256.796,198.339 259.088,203.962 261.292,210.197 263.029,210.305 264.909,211.906 266.596,211.915 268.955,216.854 271.172,221.831 272.976,220.2 274.966,222.01 276.6,221.078 279.036,227.218 281.278,229.333 283.188,228.262 285.141,229.163 286.972,230.482 289.355,234.831 291.661,234.439 293.613,234.49 295.602,235.3 297.447,236.067 299.83,239.042 302.12,238.058 304.064,237.792 305.983,239.094 307.77,240.048 310.059,242.099 312.262,241.255 314.222,241.131 315.999,242.013 317.829,243.385 320.069,243.652 322.378,243.656 324.404,243.423 326.432,244.926 328.385,244.739 330.122,244.389 332.567,245.046 334.782,244.964 336.488,246.568 338.351,245.973 340.062,246.083 342.307,246.254 344.306,245.568 346.074,247.61 348.163,247.227 349.875,246.02 351.513,247.153 353.768,247.444 355.881,247.727 357.586,247.503 359.42,247.051 361.219,248.473 362.878,247.626 364.928,247.58 366.899,248.546 368.735,248.403 370.591,248.455 372.505,248.614 374.152,248.655 375.69,248.691 377.75,249.522 379.758,248.948 381.46,249.34 383.257,249.458 385.036,248.894 386.616,249.512 388.232,249.852 390.266,249.114 392.121,249.91 393.717,249.802 395.564,249.22 397.283,250.62 398.938,250.172 400.457,250.324 401.997,250.446 403.928,250.525 405.762,250.151 407.27,249.988 408.943,250.985 410.592,250.569 412.184,250.066 413.551,251.02 414.825,250.564 416.422,250.382 417.958,250.829 419.075,251.281 420.403,250.911 421.68,251.123 423.013,250.78 424.306,250.949 425.561,251.207 426.727,251.23 427.828,251.246 429.337,250.792 430.836,251.638 432.028,251.152 433.34,251.034 434.699,251.716 435.981,250.916 437.268,252.31 438.76,250.834 440.138,250.701 441.272,250.956 442.261,251.995 443,251.629 " />
</g>

<g fill="none" stroke="#3594cc" stroke-opacity="1" stroke-dasharray="4,4" stroke-dashoffset="0" stroke-width="4" stroke-linecap="butt" stroke-linejoin="round" transform="matrix(0.5,0,0,0.5,0,0)"
font-family="Helvetica" font-size="18" font-weight="400" font-style="normal" 
>
<polyline fill="none" vector-effect="none" points="443,265.751 442.961,265.748 440.649,265.573 438.336,265.4 436.024,265.227 433.711,265.056 431.399,264.887 429.089,264.713 426.779,264.535 424.471,264.355 422.165,264.173 419.861,263.991 417.56,263.807 415.262,263.622 412.967,263.436 410.676,263.248 408.388,263.059 406.105,262.868 403.827,262.675 401.553,262.481 399.284,262.284 397.021,262.086 394.764,261.886 392.513,261.684 390.268,261.48 388.03,261.274 385.8,261.065 383.576,260.854 381.361,260.641 379.153,260.426 376.954,260.207 374.764,259.986 372.583,259.763 370.411,259.536 368.249,259.307 366.096,259.074 363.954,258.839 361.823,258.6 359.703,258.358 357.594,258.112 355.497,257.863 353.411,257.61 351.338,257.354 349.278,257.094 347.23,256.829 345.196,256.56 343.175,256.288 341.168,256.011 339.176,255.73 337.198,255.444 335.234,255.153 333.286,254.856 331.353,254.556 329.437,254.25 327.536,253.938 325.651,253.621 323.784,253.298 321.933,252.969 320.1,252.635 318.285,252.294 316.488,251.946 314.709,251.581 312.949,251.188 311.208,250.774 309.487,250.337 307.785,249.879 306.103,249.402 304.441,248.904 302.8,248.384 301.18,247.845 299.581,247.284 298.004,246.7 296.448,246.095 294.915,245.466 293.405,244.814 291.917,244.138 290.453,243.433 289.012,242.706 287.595,241.948 286.202,241.162 284.834,240.349 283.491,239.502 282.173,238.626 280.88,237.715 279.613,236.77 278.372,235.789 277.157,234.767 275.967,233.712 274.802,232.613 273.658,231.47 272.536,230.286 271.435,229.052 270.352,227.775 269.288,226.444 268.241,225.061 267.211,223.627 266.196,222.131 265.197,220.578 264.211,218.96 263.239,217.281 262.279,215.529 261.332,213.708 260.397,211.815 259.472,209.834 258.558,207.793 257.654,205.663 256.76,203.478 255.874,201.222 254.998,198.904 254.129,196.497 253.268,194.009 252.415,191.458 251.568,188.818 250.728,186.097 249.895,183.259 249.067,180.352 248.245,177.34 247.429,174.247 246.617,171.026 245.81,167.697 245.007,164.273 244.208,160.725 243.413,157.067 242.622,153.243 241.834,149.316 241.049,145.233 240.266,141.047 239.486,136.683 238.709,132.163 237.933,127.465 237.159,122.623 236.386,117.597 235.615,112.405 234.844,106.957 234.075,101.33 233.306,95.4879 232.537,89.4413 231.768,85.2131 230.999,86.7611 230.23,88.3744 229.46,90.0139 228.689,91.688 227.917,93.3995 227.144,95.1031 226.369,96.8448 225.592,98.6252 224.814,100.443 224.032,102.296 223.249,104.158 222.462,106.05 221.672,107.985 220.879,109.931 220.083,111.875 219.282,113.787 218.477,115.68 217.668,117.547 216.853,119.444 216.034,121.298 215.209,123.159 214.379,124.984 213.542,126.83 212.699,128.678 211.849,130.505 210.992,132.335 210.127,134.14 209.255,135.993 208.374,137.819 207.484,139.67 206.585,141.477 205.676,143.281 204.757,145.099 203.827,146.898 202.885,148.725 201.932,150.49 200.966,152.274 199.988,154.05 198.995,155.824 197.988,157.592 196.965,159.316 195.927,161.065 194.871,162.793 193.798,164.535 192.706,166.257 191.595,167.948 190.462,169.644 189.308,171.326 188.13,173.013 186.928,174.652 185.7,176.305 184.445,177.946 183.162,179.583 181.851,181.184 180.512,182.78 179.143,184.381 177.744,185.968 176.316,187.529 174.856,189.074 173.365,190.625 171.842,192.17 170.286,193.676 168.698,195.18 167.076,196.673 165.421,198.175 163.734,199.627 162.016,201.086 160.268,202.539 158.49,203.978 156.683,205.391 154.849,206.804 152.987,208.22 151.1,209.595 149.187,210.971 147.25,212.341 145.289,213.696 143.306,215.027 141.302,216.369 139.276,217.704 137.231,219.005 135.166,220.302 133.083,221.568 130.983,222.811 128.866,224.012 126.733,225.187 124.586,226.322 122.425,227.429 120.25,228.501 118.064,229.539 115.866,230.549 113.66,231.526 111.442,232.48 109.215,233.402 106.98,234.296 104.738,235.16 102.49,235.997 100.237,236.808 97.9793,237.589 95.7181,238.347 93.4542,239.075 91.1884,239.781 88.9216,240.458 86.6546,241.108 84.3883,241.729 82.1236,242.321 79.8603,242.881 77.5978,243.329 75.3354,243.635 73.0723,243.982 70.808,244.322 68.5416,244.654 66.2725,244.976 64,245.288 " />
</g>

<g fill="none" stroke="#298c8c" stroke-opacity="1" stroke-width="4" stroke-linecap="butt" stroke-linejoin="round" transform="matrix(0.5,0,0,0.5,0,0)"
font-family="Helvetica" font-size="18" font-weight="400" font-style="normal" 
>
<polyline fill="none" vector-effect="none" points="443,250.578 442.637,250.6 441.46,250.386 440.413,250.324 439.628,250.776 438.666,250.706 437.671,249.832 436.675,250.549 435.688,250.008 434.739,249.989 433.742,250.106 432.817,249.802 431.808,249.675 430.819,250.196 429.776,249.995 428.796,249.785 427.694,249.953 426.58,249.725 425.472,249.764 424.377,249.528 423.245,248.929 422.14,249.862 420.998,249.634 419.863,248.575 418.869,249.294 417.9,248.529 416.476,249.286 415.082,248.432 413.952,248.709 412.59,248.349 411.242,248.538 409.907,248.477 408.54,248.002 407.208,247.708 405.836,248.199 404.467,246.975 403.124,246.979 401.819,246.876 400.377,246.573 398.947,246.864 397.703,246.047 396.542,246.104 394.944,245.436 393.457,245.478 392.212,245.125 390.794,244.991 389.273,244.159 387.793,243.818 386.323,243.411 384.812,242.626 383.211,242.656 381.604,241.927 380.267,241.265 378.941,240.458 377.095,239.601 375.446,238.628 373.93,237.612 372.24,236.414 370.638,235.332 368.956,233.737 367.252,231.399 365.532,230.338 363.991,228.208 362.572,228.074 360.714,230.229 358.991,227.118 357.491,227.888 355.871,226.565 354.279,226.637 352.586,226.424 350.96,225.781 349.442,225.02 348.167,224.951 346.217,224.01 344.305,223.18 342.759,221.162 341.005,221.644 339.33,220.155 337.573,220.788 335.891,219.181 334.447,219.072 332.334,218.044 330.297,216.01 328.662,216.093 326.718,213.909 324.827,212.453 323.194,212.945 321.613,211.065 319.534,210.092 317.452,208.97 315.778,207.415 313.894,206.22 311.886,205.863 310.248,204.81 308.673,203.502 306.567,202.604 304.438,200.916 302.727,200.238 300.795,198.61 298.781,196.71 297.109,196.949 295.487,195.875 293.268,194.531 291.12,193.002 289.295,191.505 287.384,191.733 285.609,190.96 283.827,189.91 281.704,187.448 279.467,188.378 277.72,187.124 275.707,184.895 273.943,184.362 272.2,182.969 270.061,182.586 267.803,181.199 265.885,180.21 263.94,179.496 262.029,180.118 260.366,178.844 257.979,177.901 255.715,176.102 253.873,175.015 252.006,175.335 250.224,174.418 247.909,173.66 245.629,172.517 243.658,172.407 241.614,172.525 239.589,171.834 237.774,171.358 235.465,170.285 233.12,169.776 231.179,170.28 229.252,169.826 227.393,169.591 225.17,169.254 222.882,168.563 220.832,167.439 218.642,167.637 216.772,168.003 214.775,167.291 212.419,168.563 210.159,167.731 208.062,167.465 206.067,167.684 204.251,168.279 201.933,169.133 199.498,168.617 197.402,169.142 195.413,169.105 193.539,170.157 191.063,169.913 188.745,169.272 186.716,170.574 184.532,171.509 182.548,172.718 180.624,173.103 178.231,173.379 175.97,174.461 173.922,174.623 171.914,176.523 170.032,176.784 167.617,177.919 165.509,179.174 163.622,179.774 161.643,180.769 159.773,181.406 157.556,182.318 155.476,183.938 153.638,184.626 151.635,185.798 149.71,186.858 147.795,188.547 145.512,189.994 143.266,190.758 141.284,192.838 139.119,194.271 137.077,196.698 135.092,197.873 132.677,199.226 130.365,201.189 128.396,202.833 126.428,204.626 124.587,205.964 122.219,207.316 120.007,208.92 118.027,209.835 115.938,211.773 114.031,213.279 112.193,214.746 109.894,215.562 107.744,216.605 105.913,217.779 103.928,219.295 102.201,219.762 100.48,221.167 98.3883,222.639 96.3018,223.012 94.5018,224.337 92.6173,225.04 90.6873,226.021 88.9752,227.768 87.4017,227.6 85.2839,228.128 83.338,228.784 81.65,229.808 79.7786,229.381 78.028,229.987 76.3988,231.051 74.786,232.232 72.7447,232.195 70.7567,233.526 69.1249,234.114 67.3587,233.847 65.5343,234.476 64,234.86 " />
</g>

<g fill="none" stroke="#5bb5b7" stroke-opacity="1" stroke-width="4" stroke-linecap="butt" stroke-linejoin="round" transform="matrix(0.5,0,0,0.5,0,0)"
font-family="Helvetica" font-size="18" font-weight="400" font-style="normal" 
>
<polyline fill="none" vector-effect="none" points="65.77,236.679 67.3874,235.807 68.9809,235.285 70.946,235.509 72.6472,234.859 74.3166,234.973 76.094,235.507 77.8349,234.61 79.6679,232.466 81.2242,231.788 82.7588,230.792 84.9887,230.926 87.0161,229.403 88.8065,228.382 90.7564,228.852 92.6115,226.923 94.3154,226.542 96.5536,225.769 98.5756,224.205 100.368,223.064 102.323,222.028 104.241,220.783 106.067,220.182 107.868,218.187 110.024,218.132 112.136,217.37 113.88,214.396 115.925,213.63 117.767,211.403 119.574,210.61 121.909,209.669 124.171,207.933 126.119,207.024 128.272,204.307 130.293,203.273 132.176,201.241 134.568,198.993 136.944,197.213 138.982,196.65 141.169,195.206 143.168,193.391 145.057,191.421 147.43,189.982 149.753,188.849 151.729,186.975 153.67,185.695 155.587,184.157 157.961,184.207 160.249,183.144 162.217,182.915 164.315,180.889 166.193,179.36 168.018,179.825 170.39,177.892 172.559,177.794 174.394,176.472 176.243,176.205 177.988,175.905 180.227,174.752 182.415,174.177 184.345,173.687 186.391,173.74 188.218,172.608 189.805,171.757 192.07,171.452 194.317,172.38 196.304,172 198.127,171.888 199.748,170.136 202.077,170.506 204.283,171.373 206.173,171.797 207.931,171.325 209.54,170.045 211.84,171.517 214.07,171.79 215.863,172.044 217.79,171.061 219.778,170.46 221.534,172.023 223.714,171.714 225.989,173.625 227.791,172.36 229.587,172.2 231.287,173.762 233.389,174.018 235.489,174.418 237.232,173.872 239.194,175.354 241.1,176.145 242.815,176.329 244.975,176.539 247.012,176.977 248.866,178.677 250.904,179.047 252.639,179.126 254.922,179.44 257.092,180.706 259.137,182.398 261.404,182.962 263.39,181.913 265.408,184.254 267.703,184.849 269.926,186.891 271.726,187.657 273.836,187.4 275.678,189.333 277.431,189.748 279.498,191.827 281.451,192.225 283.239,192.827 285.045,194.552 286.743,195.804 288.329,196.529 290.528,196.742 292.481,198.949 294.172,199.995 295.985,201.059 297.62,201.231 299.127,201.623 301.255,203.343 303.274,205.059 304.944,205.927 306.855,207.78 308.597,207.856 310.45,208.875 312.046,211.224 314.001,210.785 315.875,211.774 317.689,213.889 319.622,214.766 321.414,214.915 323.109,216.37 324.682,217.672 326.767,218.693 328.754,220.605 330.386,220.551 332.255,222.979 334.078,222.775 335.628,222.96 337.083,225.028 339.103,224.778 341.068,225.487 342.796,227.734 344.514,226.721 346.291,229.666 348.098,228.678 349.698,229.192 351.237,230.997 353.298,231.018 355.086,229.874 356.7,231.575 358.436,233.107 360.121,230.457 361.847,232.073 363.59,234.735 365.136,235.864 366.579,238.483 368.495,239.592 370.338,240.07 371.825,241.354 373.468,242.066 375.098,243.045 376.7,243.418 378.262,243.664 379.883,245.101 381.439,245.284 382.837,245.805 384.184,246.23 385.879,245.954 387.568,246.569 388.998,247.527 390.464,246.902 391.924,247.708 393.432,247.824 394.877,247.585 396.443,248.529 397.889,248.009 399.309,248.788 400.674,248.316 401.957,249.402 403.565,249.323 405.094,249.415 406.261,248.857 407.661,249.785 408.954,249.637 410.293,249.792 411.697,249.545 412.977,249.712 414.204,250.032 415.499,250.23 416.696,249.602 417.925,250.213 419.032,250.314 420.218,250.434 421.446,250.563 422.453,249.993 423.404,250.872 424.741,250.302 426.049,250.571 427,250.648 428.06,250.941 429.174,250.927 430.24,250.792 431.358,250.771 432.362,250.695 433.393,251.279 434.499,250.9 435.556,251.272 436.492,250.708 437.508,251.33 438.431,250.808 439.392,251.65 440.362,250.821 441.311,251.207 442.198,251.1 443,251.042 " />
</g>

<g fill="none" stroke="#3594cc" stroke-opacity="1" stroke-dasharray="4,4" stroke-dashoffset="0" stroke-width="4" stroke-linecap="butt" stroke-linejoin="round" transform="matrix(0.5,0,0,0.5,0,0)"
font-family="Helvetica" font-size="18" font-weight="400" font-style="normal" 
>
<polyline fill="none" vector-effect="none" points="443,265.037 442.694,265.007 440.91,264.826 439.168,264.64 437.466,264.447 435.805,264.25 434.182,264.05 432.597,263.847 431.048,263.639 429.533,263.428 428.05,263.213 426.597,262.993 425.173,262.768 423.776,262.538 422.405,262.303 421.058,262.061 419.734,261.814 418.432,261.56 417.15,261.299 415.889,261.03 414.646,260.754 413.421,260.47 412.214,260.176 411.022,259.874 409.846,259.562 408.684,259.239 407.537,258.905 406.403,258.56 405.281,258.201 404.172,257.83 403.073,257.444 401.986,257.043 400.909,256.625 399.842,256.191 398.785,255.738 397.736,255.265 396.695,254.771 395.663,254.255 394.638,253.714 393.62,253.147 392.609,252.552 391.604,251.926 390.605,251.268 389.612,250.574 388.624,249.854 387.64,249.104 386.661,248.326 385.687,247.518 384.716,246.68 383.749,245.808 382.784,244.904 381.823,243.964 380.864,242.987 379.908,241.973 378.953,240.919 378.001,239.826 377.049,238.69 376.099,237.487 375.149,236.201 374.2,234.835 373.251,233.388 372.303,232.847 371.353,232.565 370.403,232.262 369.452,231.946 368.5,231.61 367.546,231.262 366.591,230.897 365.633,230.516 364.673,230.129 363.71,229.723 362.745,229.305 361.775,228.871 360.802,228.422 359.825,227.963 358.844,227.491 357.858,227.004 356.867,226.505 355.871,225.99 354.868,225.464 353.86,224.924 352.845,224.367 351.823,223.798 350.794,223.216 349.757,222.615 348.712,222.001 347.659,221.374 346.596,220.728 345.523,220.071 344.441,219.395 343.348,218.7 342.243,217.998 341.127,217.274 339.999,216.528 338.857,215.773 337.702,214.996 336.532,214.197 335.348,213.389 334.148,212.557 332.933,211.703 331.704,210.848 330.46,209.979 329.201,209.104 327.928,208.242 326.642,207.385 325.341,206.513 324.026,205.643 322.698,204.778 321.357,203.916 320.002,203.05 318.635,202.183 317.254,201.319 315.861,200.46 314.456,199.611 313.038,198.744 311.608,197.881 310.166,197.03 308.712,196.186 307.247,195.344 305.77,194.488 304.282,193.642 302.783,192.801 301.273,191.965 299.753,191.144 298.222,190.305 296.68,189.473 295.129,188.651 293.567,187.842 291.996,187.039 290.415,186.22 288.824,185.414 287.224,184.618 285.616,183.829 283.998,183.049 282.371,182.264 280.736,181.491 279.093,180.731 277.441,179.989 275.781,179.266 274.114,178.537 272.438,177.829 270.756,177.148 269.066,176.495 267.368,175.867 265.664,175.24 263.953,174.644 262.236,174.079 260.512,173.544 258.781,173.041 257.045,172.561 255.303,172.108 253.555,171.689 251.801,171.31 250.042,170.978 248.278,170.661 246.509,170.38 244.735,170.143 242.956,169.96 241.173,169.811 239.386,169.691 237.595,169.62 235.799,169.597 234,169.625 232.198,169.705 230.392,169.807 228.582,169.956 226.769,170.156 224.954,170.408 223.135,170.713 221.313,171.04 219.488,171.422 217.66,171.859 215.829,172.349 213.995,172.878 212.158,173.436 210.318,174.043 208.474,174.695 206.627,175.396 204.776,176.132 202.922,176.885 201.063,177.686 199.201,178.529 197.335,179.402 195.465,180.289 193.591,181.215 191.712,182.181 189.829,183.177 187.942,184.178 186.051,185.217 184.155,186.29 182.254,187.395 180.349,188.494 178.439,189.623 176.524,190.783 174.604,192.17 172.679,193.676 170.749,195.18 168.814,196.673 166.874,198.175 164.928,199.627 162.977,201.086 161.021,202.539 159.059,203.978 157.091,205.391 155.118,206.804 153.139,208.22 151.153,209.595 149.162,210.971 147.165,212.341 145.162,213.706 143.153,215.036 141.137,216.369 139.111,217.704 137.066,219.005 135.001,220.302 132.918,221.568 130.818,222.811 128.701,224.012 126.568,225.187 124.421,226.322 122.26,227.429 120.086,228.501 117.899,229.539 115.701,230.549 113.492,231.526 111.274,232.48 109.048,233.402 106.813,234.296 104.571,235.16 102.323,235.997 100.07,236.808 97.8122,237.589 95.551,238.347 93.2871,239.075 91.0213,239.781 88.7544,240.458 86.4874,241.108 84.2212,241.729 81.9564,242.322 79.6942,242.882 77.4352,243.329 75.1805,243.6 72.9309,243.859 70.6871,244.113 68.4502,244.355 66.2208,244.588 64,244.811 " />
</g>

<g fill="#ffffff" fill-opacity="1" stroke="none" transform="matrix(5e-05,0,0,5e-05,0,0)"
font-family="Helvetica" font-size="18" font-weight="400" font-style="normal" 
>
<path vector-effect="none" fill-rule="evenodd" d="M2.69e+06,370000 L2.69e+06,1.51e+06 L4.29e+06,1.51e+06 L4.29e+06,370000 L2.69e+06,370000"/>
</g>

<g fill="#f1a226" fill-opacity="1" stroke="#f1a226" stroke-opacity="1" stroke-width="4" stroke-linecap="butt" stroke-linejoin="round" transform="matrix(0.5,0,0,0.5,0,0)"
font-family="Helvetica" font-size="18" font-weight="400" font-style="normal" 
>
<polyline fill="none" vector-effect="none" points="275.019,50.5 335.207,50.5 " />
</g>

<g fill="#f1c285" fill-opacity="1" stroke="#f1c285" stroke-opacity="1" stroke-width="4" stroke-linecap="butt" stroke-linejoin="round" transform="matrix(0.5,0,0,0.5,0,0)"
font-family="Helvetica" font-size="18" font-weight="400" font-style="normal" 
>
<polyline fill="none" vector-effect="none" points="275.019,72.25 335.207,72.25 " />
</g>

<g fill="#298c8c" fill-opacity="1" stroke="#298c8c" stroke-opacity="1" stroke-width="4" stroke-linecap="butt" stroke-linejoin="round" transform="matrix(0.5,0,0,0.5,0,0)"
font-family="Helvetica" font-size="18" font-weight="400" font-style="normal" 
>
<polyline fill="none" vector-effect="none" points="275.019,94 335.207,94 " />
</g>

<g fill="#5bb5b7" fill-opacity="1" stroke="#5bb5b7" stroke-opacity="1" stroke-width="4" stroke-linecap="butt" stroke-linejoin="round" transform="matrix(0.5,0,0,0.5,0,0)"
font-family="Helvetica" font-size="18" font-weight="400" font-style="normal" 
>
<polyline fill="none" vector-effect="none" points="275.019,115.75 335.207,115.75 " />
</g>

<g fill="#3594cc" fill-opacity="1" stroke="#3594cc" stroke-opacity="1" stroke-dasharray="4,4" stroke-dashoffset="0" stroke-width="4" stroke-linecap="butt" stroke-linejoin="round" transform="matrix(0.5,0,0,0.5,0,0)"
font-family="Helvetica" font-size="18" font-weight="400" font-style="normal" 
>
<polyline fill="none" vector-effect="none" points="275.019,137.5 335.207,137.5 " />
</g>

<g fill="#212121" fill-opacity="1" stroke="#212121" stroke-opacity="1" stroke-width="1" stroke-linecap="square" stroke-linejoin="bevel" transform="matrix(0.5,0,0,0.5,169.861,27.75)"
font-family="Helvetica" font-size="18" font-weight="400" font-style="normal" 
>
<text fill="#212121" fill-opacity="1" stroke="none" xml:space="preserve" x="0" y="-0.140625" font-family="Helvetica" font-size="18" font-weight="400" font-style="normal" 
 >Si-St, Stor</text>
</g>

<g fill="#212121" fill-opacity="1" stroke="#212121" stroke-opacity="1" stroke-width="1" stroke-linecap="square" stroke-linejoin="bevel" transform="matrix(0.5,0,0,0.5,169.861,38.625)"
font-family="Helvetica" font-size="18" font-weight="400" font-style="normal" 
>
<text fill="#212121" fill-opacity="1" stroke="none" xml:space="preserve" x="0" y="-0.140625" font-family="Helvetica" font-size="18" font-weight="400" font-style="normal" 
 >Si-St, Rel</text>
</g>

<g fill="#212121" fill-opacity="1" stroke="#212121" stroke-opacity="1" stroke-width="1" stroke-linecap="square" stroke-linejoin="bevel" transform="matrix(0.5,0,0,0.5,169.861,49.5)"
font-family="Helvetica" font-size="18" font-weight="400" font-style="normal" 
>
<text fill="#212121" fill-opacity="1" stroke="none" xml:space="preserve" x="0" y="-0.140625" font-family="Helvetica" font-size="18" font-weight="400" font-style="normal" 
 >St-Si, Stor</text>
</g>

<g fill="#212121" fill-opacity="1" stroke="#212121" stroke-opacity="1" stroke-width="1" stroke-linecap="square" stroke-linejoin="bevel" transform="matrix(0.5,0,0,0.5,169.861,60.375)"
font-family="Helvetica" font-size="18" font-weight="400" font-style="normal" 
>
<text fill="#212121" fill-opacity="1" stroke="none" xml:space="preserve" x="0" y="-0.140625" font-family="Helvetica" font-size="18" font-weight="400" font-style="normal" 
 >St-Si, Rel</text>
</g>

<g fill="#212121" fill-opacity="1" stroke="#212121" stroke-opacity="1" stroke-width="1" stroke-linecap="square" stroke-linejoin="bevel" transform="matrix(0.5,0,0,0.5,169.861,71.25)"
font-family="Helvetica" font-size="18" font-weight="400" font-style="normal" 
>
<text fill="#212121" fill-opacity="1" stroke="none" xml:space="preserve" x="0" y="-0.140625" font-family="Helvetica" font-size="18" font-weight="400" font-style="normal" 
 >Predicted</text>
</g>

<g fill="none" stroke="#212121" stroke-opacity="1" stroke-width="1" stroke-linecap="butt" stroke-linejoin="miter" stroke-miterlimit="2" transform="matrix(0.5,0,0,0.5,0,0)"
font-family="Helvetica" font-size="18" font-weight="400" font-style="normal" 
>
<path vector-effect="none" fill-rule="evenodd" d="M269,151 L269,37 L429,37 L429,151 L269,151"/>
</g>
</g>
</svg>
