<?xml version="1.0" encoding="UTF-8" standalone="no"?>
<svg width="86.4306mm" height="56.0917mm"
 viewBox="0 0 245 159"
 xmlns="http://www.w3.org/2000/svg" xmlns:xlink="http://www.w3.org/1999/xlink"  version="1.2" baseProfile="tiny">
<title>Qt SVG Document</title>
<desc>MATLAB, The MathWorks, Inc. Version 25.1.0.2973910 R2025a Update 1</desc>
<defs>
</defs>
<g fill="none" stroke="black" stroke-width="1" fill-rule="evenodd" stroke-linecap="square" stroke-linejoin="bevel" >

<g fill="#ffffff" fill-opacity="1" stroke="none" transform="matrix(0.5,0,0,0.5,0,0)"
font-family=".AppleSystemUIFont" font-size="13" font-weight="400" font-style="normal" 
>
<path vector-effect="none" fill-rule="evenodd" d="M0,0 L491,0 L491,318 L0,318 L0,0"/>
</g>

<g fill="#ffffff" fill-opacity="1" stroke="none" transform="matrix(5e-05,0,0,5e-05,0,0)"
font-family=".AppleSystemUIFont" font-size="13" font-weight="400" font-style="normal" 
>
<path vector-effect="none" fill-rule="evenodd" d="M640000,240000 L640000,2.62e+06 L4.43e+06,2.62e+06 L4.43e+06,240000 L640000,240000"/>
</g>

<g fill="#212121" fill-opacity="1" stroke="#212121" stroke-opacity="1" stroke-width="1" stroke-linecap="square" stroke-linejoin="bevel" transform="matrix(0.5,0,0,0.5,53.5,153.8)"
font-family="Helvetica" font-size="24" font-weight="400" font-style="normal" 
>
<text fill="#212121" fill-opacity="1" stroke="none" xml:space="preserve" x="0" y="0.46875" font-family="Helvetica" font-size="24" font-weight="400" font-style="normal" 
 >Cable Stroke Distance (cm)</text>
</g>

<g fill="#212121" fill-opacity="1" stroke="#212121" stroke-opacity="1" stroke-width="1" stroke-linecap="square" stroke-linejoin="round" transform="matrix(0.5,0,0,0.5,0,0)"
font-family="Helvetica" font-size="24" font-weight="400" font-style="normal" 
>
<polyline fill="none" vector-effect="none" points="64,262 443,262 " />
<polyline fill="none" vector-effect="none" points="64.1707,262 64.1707,258.21 " />
<polyline fill="none" vector-effect="none" points="158.878,262 158.878,258.21 " />
<polyline fill="none" vector-effect="none" points="253.585,262 253.585,258.21 " />
<polyline fill="none" vector-effect="none" points="348.293,262 348.293,258.21 " />
<polyline fill="none" vector-effect="none" points="443,262 443,258.21 " />
</g>

<g fill="#212121" fill-opacity="1" stroke="#212121" stroke-opacity="1" stroke-width="1" stroke-linecap="square" stroke-linejoin="bevel" transform="matrix(0.5,0,0,0.5,29.5854,140.8)"
font-family="Helvetica" font-size="18" font-weight="400" font-style="normal" 
>
<text fill="#212121" fill-opacity="1" stroke="none" xml:space="preserve" x="0" y="-0.140625" font-family="Helvetica" font-size="18" font-weight="400" font-style="normal" 
 >0</text>
</g>

<g fill="#212121" fill-opacity="1" stroke="#212121" stroke-opacity="1" stroke-width="1" stroke-linecap="square" stroke-linejoin="bevel" transform="matrix(0.5,0,0,0.5,76.939,140.8)"
font-family="Helvetica" font-size="18" font-weight="400" font-style="normal" 
>
<text fill="#212121" fill-opacity="1" stroke="none" xml:space="preserve" x="0" y="-0.140625" font-family="Helvetica" font-size="18" font-weight="400" font-style="normal" 
 >2</text>
</g>

<g fill="#212121" fill-opacity="1" stroke="#212121" stroke-opacity="1" stroke-width="1" stroke-linecap="square" stroke-linejoin="bevel" transform="matrix(0.5,0,0,0.5,124.293,140.8)"
font-family="Helvetica" font-size="18" font-weight="400" font-style="normal" 
>
<text fill="#212121" fill-opacity="1" stroke="none" xml:space="preserve" x="0" y="-0.140625" font-family="Helvetica" font-size="18" font-weight="400" font-style="normal" 
 >4</text>
</g>

<g fill="#212121" fill-opacity="1" stroke="#212121" stroke-opacity="1" stroke-width="1" stroke-linecap="square" stroke-linejoin="bevel" transform="matrix(0.5,0,0,0.5,171.646,140.8)"
font-family="Helvetica" font-size="18" font-weight="400" font-style="normal" 
>
<text fill="#212121" fill-opacity="1" stroke="none" xml:space="preserve" x="0" y="-0.140625" font-family="Helvetica" font-size="18" font-weight="400" font-style="normal" 
 >6</text>
</g>

<g fill="#212121" fill-opacity="1" stroke="#212121" stroke-opacity="1" stroke-width="1" stroke-linecap="square" stroke-linejoin="bevel" transform="matrix(0.5,0,0,0.5,219,140.8)"
font-family="Helvetica" font-size="18" font-weight="400" font-style="normal" 
>
<text fill="#212121" fill-opacity="1" stroke="none" xml:space="preserve" x="0" y="-0.140625" font-family="Helvetica" font-size="18" font-weight="400" font-style="normal" 
 >8</text>
</g>

<g fill="#212121" fill-opacity="1" stroke="#212121" stroke-opacity="1" stroke-width="1" stroke-linecap="square" stroke-linejoin="bevel" transform="matrix(0,-0.5,0.5,0,13.7,119.5)"
font-family="Helvetica" font-size="24" font-weight="400" font-style="normal" 
>
<text fill="#212121" fill-opacity="1" stroke="none" xml:space="preserve" x="0" y="0.46875" font-family="Helvetica" font-size="24" font-weight="400" font-style="normal" 
 >Cable Tension (N)</text>
</g>

<g fill="#212121" fill-opacity="1" stroke="#212121" stroke-opacity="1" stroke-width="1" stroke-linecap="square" stroke-linejoin="round" transform="matrix(0.5,0,0,0.5,0,0)"
font-family="Helvetica" font-size="24" font-weight="400" font-style="normal" 
>
<polyline fill="none" vector-effect="none" points="64,262 64,24 " />
<polyline fill="none" vector-effect="none" points="64,262 67.79,262 " />
<polyline fill="none" vector-effect="none" points="64,202.5 67.79,202.5 " />
<polyline fill="none" vector-effect="none" points="64,143 67.79,143 " />
<polyline fill="none" vector-effect="none" points="64,83.5 67.79,83.5 " />
<polyline fill="none" vector-effect="none" points="64,24 67.79,24 " />
</g>

<g fill="#212121" fill-opacity="1" stroke="#212121" stroke-opacity="1" stroke-width="1" stroke-linecap="square" stroke-linejoin="bevel" transform="matrix(0.5,0,0,0.5,24.2,133.5)"
font-family="Helvetica" font-size="18" font-weight="400" font-style="normal" 
>
<text fill="#212121" fill-opacity="1" stroke="none" xml:space="preserve" x="0" y="-0.140625" font-family="Helvetica" font-size="18" font-weight="400" font-style="normal" 
 >0</text>
</g>

<g fill="#212121" fill-opacity="1" stroke="#212121" stroke-opacity="1" stroke-width="1" stroke-linecap="square" stroke-linejoin="bevel" transform="matrix(0.5,0,0,0.5,19.2,103.75)"
font-family="Helvetica" font-size="18" font-weight="400" font-style="normal" 
>
<text fill="#212121" fill-opacity="1" stroke="none" xml:space="preserve" x="0" y="-0.140625" font-family="Helvetica" font-size="18" font-weight="400" font-style="normal" 
 >20</text>
</g>

<g fill="#212121" fill-opacity="1" stroke="#212121" stroke-opacity="1" stroke-width="1" stroke-linecap="square" stroke-linejoin="bevel" transform="matrix(0.5,0,0,0.5,19.2,74)"
font-family="Helvetica" font-size="18" font-weight="400" font-style="normal" 
>
<text fill="#212121" fill-opacity="1" stroke="none" xml:space="preserve" x="0" y="-0.140625" font-family="Helvetica" font-size="18" font-weight="400" font-style="normal" 
 >40</text>
</g>

<g fill="#212121" fill-opacity="1" stroke="#212121" stroke-opacity="1" stroke-width="1" stroke-linecap="square" stroke-linejoin="bevel" transform="matrix(0.5,0,0,0.5,19.2,44.25)"
font-family="Helvetica" font-size="18" font-weight="400" font-style="normal" 
>
<text fill="#212121" fill-opacity="1" stroke="none" xml:space="preserve" x="0" y="-0.140625" font-family="Helvetica" font-size="18" font-weight="400" font-style="normal" 
 >60</text>
</g>

<g fill="#212121" fill-opacity="1" stroke="#212121" stroke-opacity="1" stroke-width="1" stroke-linecap="square" stroke-linejoin="bevel" transform="matrix(0.5,0,0,0.5,19.2,14.5)"
font-family="Helvetica" font-size="18" font-weight="400" font-style="normal" 
>
<text fill="#212121" fill-opacity="1" stroke="none" xml:space="preserve" x="0" y="-0.140625" font-family="Helvetica" font-size="18" font-weight="400" font-style="normal" 
 >80</text>
</g>

<g fill="none" stroke="#f1a226" stroke-opacity="1" stroke-width="4" stroke-linecap="butt" stroke-linejoin="round" transform="matrix(0.5,0,0,0.5,0,0)"
font-family="Helvetica" font-size="18" font-weight="400" font-style="normal" 
>
<polyline fill="none" vector-effect="none" points="388.905,246.999 388.905,246.937 388.905,247.098 388.878,246.751 388.879,246.99 388.904,247.026 388.874,246.853 388.869,246.935 388.857,247.068 388.853,246.923 388.828,246.901 388.775,246.988 388.731,246.865 388.676,246.773 388.554,246.764 388.412,247.146 388.205,246.833 387.983,246.847 387.711,246.924 387.523,247.195 387.419,246.845 386.916,246.863 386.533,246.893 386.256,246.903 385.869,246.826 385.554,246.648 385.179,246.979 384.829,246.344 384.464,246.618 384.103,246.827 383.739,246.527 383.397,246.462 383.033,246.792 382.677,246.969 382.358,246.597 382.01,246.272 381.636,246.455 381.23,246.458 380.809,246.827 380.411,246.417 379.974,246.517 379.549,246.354 379.112,246.027 378.682,246.542 378.227,245.895 377.772,245.846 377.29,245.963 376.725,245.446 376.127,245.513 375.546,245.754 374.978,245.405 374.388,245.998 373.752,244.833 373.075,244.982 372.365,244.87 371.74,244.468 371.052,244.797 370.506,243.769 369.951,244.273 369.076,244.104 368.322,244.421 367.8,245.16 367.126,245.788 366.47,245.069 365.784,245.784 365.052,245.1 364.38,245.373 363.662,244.738 362.895,244.761 362.098,244.648 361.326,245.525 360.55,245.169 359.738,245.39 358.918,244.867 358.086,244.908 357.361,245.139 356.636,245.098 355.623,244.926 354.739,244.332 354.049,245.125 353.256,244.555 352.421,244.595 351.619,245.057 350.708,244.644 349.81,245.032 348.895,245.072 347.943,244.522 346.96,244.567 346.057,244.377 345.234,245.019 344.437,244.11 343.166,244.159 342.072,244.213 341.063,244.252 339.917,243.355 338.811,243.76 337.697,244.016 336.521,244.406 335.381,244.308 334.273,244.602 333.225,243.207 332.153,243.719 330.899,243.803 329.708,243.445 328.754,243.195 327.745,243.694 326.644,243.461 325.567,244.023 324.477,243.751 323.462,243.882 322.51,243.831 321.159,243.054 319.935,243.014 318.936,243.447 317.766,242.411 316.554,242.679 315.385,243.229 314.261,243.727 313.185,242.4 311.738,243.408 310.422,242.671 309.27,243.285 308.005,243.161 306.713,243.059 305.404,242.304 304.224,243.503 303.096,243.206 301.57,242.465 300.183,242.872 299.006,242.803 297.694,242.132 296.401,242.288 295.228,241.8 294,241.783 292.458,241.826 291.081,241.624 289.758,241.332 288.311,240.634 286.976,241.699 285.615,241.433 284.03,240.431 282.497,241.162 281.071,240.799 279.605,239.993 278.307,240.703 276.973,239.669 275.318,238.935 273.753,240.186 272.583,239.792 271.227,238.786 269.933,239.754 268.798,238.527 267.284,238.57 265.908,238.658 264.75,237.862 263.421,237.621 262.217,237.279 260.968,237.297 259.358,236.903 257.839,236.381 256.5,236.262 255.179,235.431 253.817,234.586 252.145,234.61 250.5,233.5 249.145,234.041 247.541,231.329 246.117,231.767 244.817,231.982 243.053,229.935 241.447,229.571 239.912,227.89 238.44,227.21 237.054,227.088 235.35,225.38 233.766,224.245 232.358,222.971 230.904,221.185 229.708,221.176 227.973,217.969 226.466,217.589 225.08,214.744 223.696,213.895 222.435,212.477 220.748,210.46 219.145,208.449 217.792,204.703 216.455,203.677 214.706,201.173 213.138,198.528 211.802,195.821 210.362,191.508 209.091,189.71 207.433,186.924 205.943,182.972 204.584,179.005 203.273,174.596 201.952,172.127 200.396,168.813 198.85,163.476 197.522,158.14 196.232,152.795 195.087,150.456 193.432,145.812 191.9,137.556 190.885,131.837 189.791,127.405 188.159,122.789 186.735,117.721 185.736,109.826 184.626,101.677 183.571,97.0948 182.147,92.1255 180.868,84.2205 179.806,73.8255 178.772,65.5676 177.771,61.1343 176.251,56.169 174.967,59.0925 173.824,64.5588 172.683,69.3986 171.621,82.627 169.9,89.8495 168.195,86.616 166.956,102.083 165.428,106.587 163.477,114.688 161.464,123.151 159.616,122.26 157.71,131.723 155.899,137.281 153.547,141.8 151.134,145.92 149.148,147.162 147.162,154.969 145.206,158.107 142.867,162.872 140.55,162.752 138.522,166.607 136.489,171.179 134.717,174.229 132.595,176.839 130.602,175.976 128.918,180.441 127.164,181.973 125.603,185.356 124.127,184.97 122.328,185.777 120.59,189.032 119.169,190.431 117.788,191.927 116.485,192.323 114.8,193.834 113.209,195.024 111.94,197.605 110.661,197.61 109.388,198.594 107.867,200.406 106.33,201.795 105.113,203.141 103.752,202.653 102.545,205.179 101.392,205.712 99.7939,207.706 98.3894,208.213 97.2389,208.18 95.7675,209.852 94.622,211.847 93.5302,212.632 91.9742,212.188 90.5018,213.565 89.2994,214.417 87.9942,215.533 86.6189,215.903 85.4696,216.967 84.4647,218.013 83.0075,218.666 81.6201,218.452 80.5593,218.761 79.3301,219.583 78.3238,220.378 77.3657,221.525 75.9749,221.557 74.6379,221.836 73.5191,223.032 72.3282,223.517 71.1361,223.764 69.9513,223.808 68.79,224.227 67.8242,224.948 66.4875,225.235 65.1652,225.32 64.1707,225.824 " />
</g>

<g fill="none" stroke="#f1c285" stroke-opacity="1" stroke-width="4" stroke-linecap="butt" stroke-linejoin="round" transform="matrix(0.5,0,0,0.5,0,0)"
font-family="Helvetica" font-size="18" font-weight="400" font-style="normal" 
>
<polyline fill="none" vector-effect="none" points="64,233.178 65.3571,233.282 66.363,232.417 67.5342,232.49 68.7255,231.94 70.0042,231.691 71.0366,230.217 72.1101,229.967 73.587,229.259 74.917,229.187 76.2125,228.701 77.5274,227.962 78.8674,226.877 80.1925,226.486 81.481,225.635 82.7256,223.967 84.3121,223.224 85.5858,222.736 86.8434,221.225 88.2172,220.696 89.4868,219.189 90.679,217.269 91.9406,217.052 93.398,216.425 94.8368,214.505 96.1186,214.055 97.547,213.178 98.874,211.702 100.127,210.824 101.749,209.569 103.352,207.901 104.726,207.473 106.311,206.099 107.662,204.341 108.9,202.843 110.578,201.161 112.213,200.461 113.593,198.963 115.105,196.572 116.493,195.022 117.778,193.413 119.484,192.11 121.144,190.963 122.559,189.095 123.961,187.334 125.237,185.666 126.946,184.379 128.613,182.813 129.956,180.483 131.461,179.475 132.815,177.452 134.053,174.984 135.77,173.089 137.403,171.254 138.804,169.542 140.157,167.482 141.498,164.297 143.214,162.278 144.915,160.86 146.372,158.238 147.824,155.1 149.21,151.591 151.032,149.793 152.824,148.022 154.238,145.149 155.739,141.754 157.147,137.573 158.885,135.807 160.569,133.653 162.087,130.872 163.549,126.424 164.879,120.08 166.691,118.278 168.389,112.774 169.901,105.847 171.456,99.5318 172.823,89.4352 174.807,83.6198 176.715,79.9699 178.033,69.3338 179.584,86.506 181.533,111.905 183.408,114.243 184.983,136.128 186.451,139.519 187.649,126.179 189.16,150.024 190.559,148.827 191.579,155.628 192.569,160.417 193.377,148.398 194.68,165.126 195.87,165.837 196.757,169.009 197.65,170.24 198.456,165.895 199.612,177.456 200.788,181.415 201.555,180.187 202.444,184.249 203.785,182.639 205.215,193.975 206.414,193.829 207.631,195.801 208.703,194.752 210.421,200.259 212.073,206.366 213.375,206.472 214.784,208.039 216.049,208.048 217.818,212.886 219.48,217.761 220.832,216.163 222.324,217.936 223.549,217.023 225.375,223.036 227.056,225.109 228.487,224.059 229.952,224.941 231.324,226.233 233.111,230.493 234.839,230.109 236.303,230.159 237.794,230.952 239.177,231.704 240.963,234.617 242.68,233.654 244.137,233.393 245.576,234.668 246.916,235.602 248.632,237.611 250.283,236.784 251.753,236.663 253.085,237.527 254.457,238.871 256.136,239.133 257.867,239.136 259.386,238.908 260.906,240.38 262.37,240.197 263.672,239.854 265.505,240.497 267.166,240.417 268.444,241.989 269.841,241.405 271.124,241.514 272.807,241.681 274.305,241.009 275.631,243.009 277.197,242.634 278.481,241.452 279.708,242.562 281.399,242.847 282.983,243.124 284.261,242.904 285.636,242.461 286.984,243.854 288.229,243.024 289.765,242.98 291.243,243.925 292.619,243.785 294.01,243.837 295.445,243.992 296.68,244.033 297.833,244.068 299.377,244.882 300.883,244.32 302.159,244.704 303.506,244.819 304.839,244.267 306.024,244.871 307.235,245.205 308.76,244.482 310.151,245.262 311.347,245.156 312.732,244.586 314.02,245.957 315.261,245.518 316.4,245.667 317.554,245.786 319.002,245.864 320.376,245.497 321.507,245.338 322.762,246.315 323.997,245.907 325.191,245.414 326.216,246.349 327.171,245.902 328.368,245.724 329.52,246.161 330.357,246.605 331.353,246.242 332.31,246.45 333.309,246.114 334.278,246.28 335.219,246.532 336.093,246.554 336.919,246.57 338.05,246.125 339.174,246.954 340.068,246.478 341.051,246.363 342.069,247.031 343.031,246.247 343.995,247.613 345.114,246.166 346.147,246.036 346.997,246.286 347.738,247.304 348.874,246.569 349.966,246.174 350.941,246.87 351.952,246.369 353.025,246.891 353.996,246.472 354.93,246.913 355.85,247.37 356.742,246.641 357.674,246.715 358.507,246.626 359.32,247.008 360.009,246.601 360.633,246.683 361.556,246.811 362.298,246.506 362.949,246.537 363.673,246.909 364.401,246.801 365.174,247.115 365.95,247.064 366.699,246.812 367.364,247.064 368.093,246.988 368.791,247.189 369.48,247.09 370.116,247.03 370.797,246.808 371.449,246.886 372.139,246.945 372.783,246.856 373.425,247.211 373.882,246.97 374.299,247.29 375.079,246.914 375.792,247.326 376.334,246.702 376.924,246.851 377.535,247.395 378.089,246.909 378.684,246.688 379.189,246.875 379.607,246.957 380.051,247.195 380.403,247.226 380.729,247.094 381.055,247.105 381.407,247.133 381.718,247.08 382.086,246.957 382.457,247.236 382.848,246.931 383.248,246.951 383.608,246.84 383.97,247.318 384.317,247.331 384.679,246.79 385.059,246.948 385.38,247.11 385.747,246.803 386.084,247.039 386.36,247.1 386.632,246.96 386.908,247.289 387.138,247.272 387.377,246.893 387.59,247.012 387.813,247.082 387.954,247.013 388.15,246.803 388.319,247.282 388.492,247.08 388.672,247.213 388.851,246.856 388.993,247.235 389.168,246.842 389.302,247.407 389.43,246.701 389.535,247.106 389.57,247.195 389.598,247.254 389.616,246.978 " />
</g>

<g fill="none" stroke="#3594cc" stroke-opacity="1" stroke-dasharray="4,4" stroke-dashoffset="0" stroke-width="4" stroke-linecap="butt" stroke-linejoin="round" transform="matrix(0.5,0,0,0.5,0,0)"
font-family="Helvetica" font-size="18" font-weight="400" font-style="normal" 
>
<polyline fill="none" vector-effect="none" points="358.656,261.823 356.925,261.646 355.194,261.47 353.461,261.295 351.729,261.12 349.997,260.946 348.264,260.774 346.53,260.602 344.796,260.432 343.063,260.264 341.329,260.096 339.596,259.93 337.864,259.76 336.132,259.585 334.402,259.409 332.673,259.231 330.946,259.052 329.221,258.873 327.499,258.691 325.778,258.509 324.06,258.325 322.346,258.14 320.634,257.953 318.926,257.764 317.221,257.574 315.521,257.381 313.824,257.187 312.132,256.992 310.444,256.794 308.762,256.593 307.084,256.392 305.412,256.187 303.745,255.981 302.084,255.772 300.429,255.561 298.781,255.347 297.139,255.131 295.503,254.912 293.875,254.689 292.254,254.465 290.641,254.237 289.035,254.007 287.438,253.773 285.848,253.536 284.267,253.295 282.695,253.051 281.132,252.804 279.577,252.552 278.033,252.298 276.498,252.039 274.973,251.775 273.458,251.508 271.953,251.237 270.46,250.962 268.977,250.682 267.505,250.397 266.044,250.106 264.595,249.812 263.158,249.512 261.733,249.206 260.321,248.896 258.921,248.58 257.534,248.258 256.159,247.93 254.799,247.597 253.451,247.256 252.118,246.898 250.798,246.514 249.493,246.108 248.203,245.68 246.927,245.231 245.666,244.764 244.42,244.276 243.19,243.767 241.975,243.239 240.777,242.69 239.594,242.118 238.428,241.525 237.279,240.91 236.147,240.271 235.032,239.608 233.934,238.918 232.854,238.205 231.792,237.463 230.748,236.694 229.722,235.898 228.715,235.067 227.726,234.21 226.757,233.318 225.807,232.392 224.877,231.431 223.967,230.431 223.075,229.397 222.201,228.321 221.344,227.201 220.503,226.042 219.677,224.833 218.865,223.582 218.068,222.278 217.283,220.924 216.51,219.52 215.75,218.054 215,216.533 214.261,214.949 213.532,213.304 212.813,211.588 212.103,209.804 211.402,207.95 210.709,206.01 210.024,204.011 209.346,201.926 208.675,199.785 208.012,197.575 207.354,195.305 206.703,192.948 206.058,190.511 205.418,188.012 204.784,185.427 204.154,182.761 203.529,179.982 202.909,177.135 202.292,174.185 201.68,171.156 201.072,168 200.467,164.74 199.865,161.387 199.266,157.911 198.67,154.329 198.077,150.583 197.486,146.738 196.897,142.739 196.311,138.639 195.726,134.365 195.143,129.937 194.561,125.336 193.981,120.594 193.402,115.671 192.824,110.586 192.246,105.25 191.669,99.739 191.093,94.017 190.517,88.0948 189.94,83.9536 189.364,85.4697 188.787,87.0498 188.21,88.6556 187.632,90.2952 187.053,91.9715 186.474,93.6401 185.893,95.3459 185.31,97.0897 184.727,98.8704 184.141,100.685 183.553,102.508 182.964,104.362 182.372,106.257 181.777,108.163 181.18,110.067 180.58,111.94 179.976,113.794 179.369,115.622 178.759,117.48 178.145,119.296 177.527,121.118 176.904,122.907 176.277,124.714 175.645,126.524 175.008,128.314 174.365,130.106 173.717,131.874 173.063,133.688 172.402,135.477 171.735,137.29 171.061,139.06 170.38,140.827 169.691,142.607 168.993,144.369 168.288,146.158 167.573,147.887 166.849,149.635 166.115,151.374 165.371,153.112 164.616,154.843 163.85,156.532 163.071,158.245 162.28,159.938 161.476,161.643 160.657,163.33 159.824,164.986 158.975,166.647 158.109,168.294 157.227,169.946 156.325,171.552 155.405,173.171 154.464,174.778 153.502,176.381 152.519,177.95 151.515,179.513 150.489,181.081 149.441,182.635 148.369,184.164 147.275,185.677 146.157,187.197 145.016,188.71 143.85,190.184 142.659,191.658 141.443,193.12 140.202,194.591 138.938,196.013 137.65,197.442 136.339,198.866 135.006,200.275 133.652,201.659 132.277,203.043 130.881,204.43 129.466,205.776 128.032,207.124 126.58,208.465 125.11,209.792 123.624,211.097 122.121,212.41 120.602,213.719 119.069,214.993 117.521,216.263 115.96,217.503 114.385,218.72 112.798,219.896 111.199,221.047 109.59,222.159 107.969,223.243 106.339,224.294 104.7,225.31 103.052,226.299 101.399,227.256 99.7358,228.191 98.0664,229.093 96.3912,229.968 94.7106,230.816 93.0254,231.635 91.3362,232.429 89.6437,233.194 87.9486,233.937 86.2514,234.649 84.5528,235.341 82.8535,236.005 81.154,236.641 79.4551,237.249 77.7573,237.829 76.0606,238.378 74.3644,238.816 72.6684,239.116 70.9719,239.456 69.2744,239.789 67.5754,240.114 65.8743,240.429 64.1707,240.735 " />
</g>

<g fill="none" stroke="#298c8c" stroke-opacity="1" stroke-width="4" stroke-linecap="butt" stroke-linejoin="round" transform="matrix(0.5,0,0,0.5,0,0)"
font-family="Helvetica" font-size="18" font-weight="400" font-style="normal" 
>
<polyline fill="none" vector-effect="none" points="366.632,246.862 366.632,246.524 366.632,246.783 366.632,246.67 366.632,246.714 366.631,246.795 366.631,246.747 366.629,246.745 366.627,246.769 366.618,246.63 366.607,246.745 366.583,246.615 366.562,246.634 366.512,246.468 366.38,246.569 366.211,246.802 366.022,246.626 365.782,246.514 365.538,246.586 365.248,246.594 364.989,246.427 364.671,246.541 364.355,246.284 364.055,246.28 363.782,246.606 363.479,246.118 363.196,246.275 362.88,246.609 362.581,246.183 362.293,246.561 361.951,246.454 361.607,246.338 361.273,246.3 360.955,246.29 360.573,246.191 360.177,246.319 359.769,246.195 359.375,246.03 358.917,246.13 358.368,246.435 357.861,246.597 357.342,245.987 356.805,246.14 356.332,245.959 355.81,246.122 355.29,245.736 354.788,246.291 354.213,246.344 353.67,245.971 353.144,246.145 352.597,245.628 352.084,246.349 351.508,245.701 350.966,245.628 350.403,245.515 349.734,245.812 349.083,246.133 348.567,245.894 348.021,245.937 347.138,245.727 346.353,245.668 345.765,246.11 345.043,246.041 344.298,245.185 343.551,245.887 342.811,245.358 342.1,245.339 341.353,245.454 340.659,245.155 339.903,245.032 339.161,245.541 338.379,245.345 337.644,245.14 336.818,245.304 335.983,245.08 335.152,245.118 334.332,244.888 333.483,244.301 332.654,245.215 331.799,244.992 330.948,243.954 330.203,244.658 329.476,243.909 328.408,244.65 327.364,243.814 326.517,244.086 325.496,243.733 324.485,243.918 323.484,243.858 322.459,243.393 321.461,243.105 320.432,243.586 319.406,242.387 318.399,242.391 317.421,242.29 316.34,241.994 315.268,242.279 314.335,241.478 313.465,241.534 312.267,240.88 311.152,240.921 310.219,240.576 309.156,240.444 308.016,239.629 306.906,239.295 305.804,238.896 304.671,238.128 303.471,238.156 302.266,237.443 301.264,236.795 300.27,236.004 298.887,235.165 297.65,234.212 296.514,233.217 295.247,232.043 294.046,230.983 292.785,229.422 291.507,227.132 290.218,226.092 289.062,224.006 287.999,223.875 286.606,225.986 285.314,222.939 284.19,223.693 282.976,222.397 281.782,222.467 280.512,222.259 279.294,221.629 278.156,220.883 277.2,220.816 275.738,219.895 274.305,219.082 273.146,217.105 271.831,217.577 270.575,216.119 269.258,216.739 267.997,215.164 266.914,215.058 265.331,214.051 263.804,212.059 262.578,212.14 261.121,210.001 259.703,208.575 258.478,209.057 257.294,207.216 255.735,206.263 254.174,205.164 252.919,203.641 251.507,202.471 250.001,202.121 248.773,201.089 247.593,199.808 246.014,198.929 244.418,197.276 243.135,196.612 241.687,195.017 240.177,193.156 238.924,193.391 237.707,192.338 236.044,191.022 234.434,189.525 233.066,188.059 231.633,188.282 230.302,187.524 228.967,186.497 227.375,184.085 225.698,184.996 224.389,183.767 222.88,181.585 221.557,181.062 220.25,179.698 218.647,179.323 216.954,177.965 215.516,176.996 214.058,176.297 212.626,176.905 211.379,175.658 209.589,174.734 207.892,172.973 206.511,171.908 205.112,172.221 203.776,171.323 202.04,170.581 200.331,169.461 198.854,169.353 197.322,169.469 195.803,168.792 194.443,168.326 192.711,167.275 190.954,166.776 189.499,167.271 188.054,166.826 186.661,166.595 184.994,166.265 183.278,165.588 181.742,164.488 180.1,164.681 178.698,165.04 177.201,164.343 175.434,165.589 173.74,164.773 172.168,164.513 170.673,164.727 169.312,165.311 167.574,166.146 165.748,165.642 164.177,166.155 162.686,166.119 161.281,167.15 159.425,166.911 157.687,166.283 156.166,167.558 154.529,168.474 153.042,169.658 151.599,170.035 149.805,170.305 148.11,171.365 146.575,171.523 145.07,173.384 143.659,173.64 141.848,174.752 140.268,175.981 138.853,176.569 137.37,177.543 135.968,178.167 134.306,179.061 132.746,180.647 131.369,181.321 129.868,182.469 128.424,183.507 126.988,185.162 125.277,186.578 123.594,187.327 122.108,189.364 120.485,190.768 118.954,193.144 117.466,194.295 115.656,195.62 113.922,197.543 112.446,199.153 110.971,200.909 109.591,202.219 107.815,203.544 106.157,205.115 104.673,206.011 103.107,207.909 101.677,209.384 100.299,210.821 98.5755,211.62 96.9636,212.642 95.5911,213.791 94.1029,215.277 92.8085,215.734 91.5183,217.11 89.9503,218.552 88.3862,218.917 87.0368,220.215 85.624,220.903 84.1772,221.864 82.8937,223.575 81.7141,223.41 80.1265,223.928 78.6677,224.571 77.4023,225.573 75.9994,225.155 74.687,225.749 73.4656,226.791 72.2566,227.947 70.7263,227.911 69.236,229.215 68.0126,229.791 66.6886,229.529 65.3209,230.145 64.1707,230.522 " />
</g>

<g fill="none" stroke="#5bb5b7" stroke-opacity="1" stroke-width="4" stroke-linecap="butt" stroke-linejoin="round" transform="matrix(0.5,0,0,0.5,0,0)"
font-family="Helvetica" font-size="18" font-weight="400" font-style="normal" 
>
<polyline fill="none" vector-effect="none" points="64.2762,231.722 65.4976,232.303 66.7101,231.449 67.9047,230.938 69.3779,231.157 70.6532,230.521 71.9047,230.632 73.2371,231.155 74.5422,230.276 75.9163,228.177 77.0831,227.512 78.2335,226.537 79.9051,226.669 81.425,225.177 82.7672,224.176 84.2289,224.637 85.6196,222.748 86.897,222.375 88.5749,221.618 90.0907,220.085 91.4343,218.968 92.8997,217.953 94.338,216.734 95.7065,216.145 97.0569,214.191 98.6732,214.138 100.257,213.391 101.564,210.478 103.097,209.729 104.478,207.547 105.832,206.77 107.583,205.848 109.279,204.149 110.739,203.258 112.353,200.597 113.868,199.585 115.279,197.594 117.073,195.392 118.854,193.649 120.382,193.097 122.021,191.683 123.52,189.906 124.936,187.976 126.715,186.567 128.457,185.457 129.938,183.622 131.393,182.368 132.83,180.861 134.61,180.911 136.325,179.869 137.8,179.645 139.373,177.661 140.781,176.163 142.149,176.619 143.927,174.726 145.553,174.63 146.929,173.334 148.315,173.073 149.623,172.78 151.302,171.65 152.942,171.087 154.389,170.607 155.923,170.659 157.292,169.55 158.482,168.717 160.18,168.418 161.864,169.327 163.354,168.955 164.72,168.845 165.936,167.129 167.682,167.491 169.336,168.341 170.752,168.756 172.07,168.294 173.277,167.04 175.001,168.482 176.673,168.749 178.016,168.998 179.461,168.035 180.952,167.446 182.268,168.977 183.902,168.675 185.608,170.546 186.958,169.307 188.305,169.151 189.58,170.681 191.155,170.932 192.729,171.323 194.036,170.788 195.507,172.24 196.936,173.015 198.221,173.194 199.841,173.4 201.368,173.829 202.758,175.494 204.286,175.857 205.587,175.934 207.298,176.242 208.924,177.481 210.458,179.138 212.157,179.691 213.646,178.664 215.159,180.956 216.879,181.539 218.546,183.54 219.895,184.29 221.476,184.038 222.858,185.931 224.172,186.338 225.721,188.374 227.186,188.763 228.526,189.353 229.88,191.043 231.152,192.269 232.342,192.979 233.99,193.188 235.454,195.349 236.722,196.373 238.081,197.416 239.307,197.584 240.437,197.969 242.031,199.652 243.546,201.333 244.798,202.184 246.23,203.998 247.536,204.073 248.925,205.071 250.121,207.372 251.587,206.942 252.992,207.91 254.352,209.982 255.801,210.841 257.144,210.986 258.415,212.412 259.594,213.687 261.157,214.687 262.647,216.56 263.87,216.507 265.271,218.885 266.638,218.685 267.8,218.866 268.891,220.892 270.405,220.647 271.878,221.341 273.174,223.542 274.461,222.55 275.794,225.434 277.148,224.467 278.348,224.97 279.502,226.738 281.046,226.758 282.387,225.638 283.597,227.304 284.898,228.804 286.162,226.209 287.455,227.791 288.762,230.399 289.921,231.505 291.003,234.07 292.439,235.156 293.821,235.624 294.935,236.882 296.167,237.579 297.389,238.538 298.59,238.903 299.761,239.144 300.976,240.551 302.143,240.731 303.191,241.241 304.2,241.658 305.471,241.387 306.737,241.989 307.809,242.928 308.908,242.316 310.003,243.105 311.133,243.219 312.217,242.985 313.391,243.909 314.475,243.4 315.539,244.163 316.563,243.7 317.525,244.764 318.73,244.687 319.876,244.777 320.751,244.231 321.801,245.139 322.77,244.994 323.773,245.146 324.826,244.904 325.785,245.068 326.705,245.381 327.676,245.575 328.573,244.96 329.495,245.558 330.325,245.657 331.214,245.775 332.134,245.901 332.89,245.343 333.602,246.204 334.605,245.645 335.585,245.909 336.298,245.985 337.092,246.272 337.928,246.257 338.727,246.126 339.565,246.105 340.318,246.03 341.09,246.603 341.92,246.231 342.712,246.595 343.414,246.043 344.175,246.653 344.868,246.141 345.588,246.966 346.315,246.154 347.027,246.532 347.691,246.427 348.397,246.361 349.058,246.229 349.788,246.665 350.431,245.918 351.046,246.708 351.564,246.452 352.231,247.111 352.706,246.504 353.042,245.956 353.742,247.172 354.256,246.186 354.659,246.562 355.156,246.579 355.631,246.735 356.148,246.906 356.633,246.417 357.163,246.877 357.635,246.43 358.101,246.834 358.599,246.756 359.045,246.968 359.531,247.168 360.037,246.905 360.543,246.658 360.898,246.825 361.264,246.786 361.623,246.911 361.963,246.858 362.245,246.767 362.567,247.154 362.89,246.902 363.191,246.63 363.456,247.272 363.774,246.992 364.085,247.118 364.361,247.2 364.566,246.618 364.782,247.346 365.001,247.021 365.157,246.997 365.351,246.591 365.524,246.99 365.653,246.708 365.799,247.146 365.934,246.906 366.125,247.351 366.286,246.876 366.448,246.655 366.602,247.102 366.701,247.018 366.798,247.199 366.796,247.196 366.796,246.885 366.779,247.035 366.787,246.884 " />
</g>

<g fill="none" stroke="#3594cc" stroke-opacity="1" stroke-dasharray="4,4" stroke-dashoffset="0" stroke-width="4" stroke-linecap="butt" stroke-linejoin="round" transform="matrix(0.5,0,0,0.5,0,0)"
font-family="Helvetica" font-size="18" font-weight="400" font-style="normal" 
>
<polyline fill="none" vector-effect="none" points="363.267,261.822 361.587,261.643 359.945,261.465 358.339,261.287 356.769,261.11 355.234,260.932 353.733,260.755 352.266,260.578 350.832,260.401 349.432,260.225 348.063,260.048 346.726,259.871 345.42,259.689 344.144,259.5 342.899,259.307 341.682,259.111 340.494,258.911 339.333,258.708 338.197,258.502 337.085,258.291 335.996,258.075 334.929,257.855 333.881,257.63 332.853,257.399 331.843,257.163 330.851,256.92 329.875,256.672 328.914,256.416 327.968,256.153 327.037,255.883 326.119,255.604 325.213,255.317 324.32,255.021 323.438,254.715 322.568,254.399 321.707,254.072 320.857,253.733 320.016,253.382 319.184,253.018 318.361,252.64 317.546,252.247 316.739,251.839 315.939,251.413 315.146,250.97 314.36,250.507 313.58,250.023 312.806,249.517 312.038,248.987 311.274,248.432 310.516,247.849 309.763,247.236 309.014,246.592 308.27,245.912 307.529,245.207 306.792,244.472 306.058,243.71 305.327,242.919 304.599,242.098 303.874,241.244 303.151,240.359 302.431,239.438 301.712,238.481 300.995,237.488 300.279,236.456 299.565,235.385 298.852,234.273 298.139,233.094 297.428,231.835 296.716,230.497 296.005,229.079 295.293,228.55 294.582,228.274 293.87,227.976 293.157,227.668 292.443,227.338 291.728,226.997 291.012,226.64 290.294,226.267 289.574,225.888 288.852,225.49 288.128,225.08 287.402,224.655 286.672,224.216 285.94,223.767 285.204,223.304 284.465,222.827 283.722,222.339 282.975,221.834 282.224,221.318 281.468,220.79 280.707,220.244 279.941,219.687 279.17,219.116 278.392,218.528 277.609,217.927 276.819,217.313 276.022,216.68 275.218,216.036 274.407,215.374 273.587,214.694 272.759,214.006 271.922,213.297 271.076,212.566 270.221,211.827 269.355,211.066 268.478,210.283 267.59,209.492 266.69,208.677 265.78,207.84 264.858,207.004 263.926,206.152 262.982,205.296 262.028,204.451 261.063,203.612 260.088,202.758 259.103,201.906 258.107,201.058 257.101,200.214 256.086,199.366 255.061,198.517 254.026,197.67 252.982,196.829 251.928,195.997 250.865,195.148 249.793,194.303 248.712,193.469 247.622,192.643 246.524,191.818 245.417,190.98 244.301,190.151 243.178,189.327 242.046,188.509 240.906,187.704 239.758,186.883 238.602,186.069 237.439,185.263 236.269,184.471 235.09,183.685 233.905,182.882 232.713,182.092 231.514,181.313 230.308,180.541 229.095,179.776 227.875,179.008 226.65,178.251 225.417,177.506 224.179,176.779 222.935,176.071 221.685,175.357 220.429,174.664 219.168,173.997 217.901,173.357 216.628,172.742 215.351,172.128 214.068,171.544 212.781,170.991 211.488,170.467 210.191,169.975 208.889,169.505 207.583,169.06 206.273,168.651 204.958,168.279 203.64,167.954 202.317,167.643 200.991,167.368 199.661,167.136 198.328,166.957 196.991,166.811 195.651,166.693 194.308,166.623 192.962,166.601 191.613,166.629 190.262,166.707 188.908,166.807 187.552,166.953 186.193,167.149 184.832,167.395 183.468,167.694 182.102,168.015 180.734,168.389 179.364,168.816 177.991,169.297 176.617,169.815 175.239,170.361 173.86,170.955 172.478,171.595 171.093,172.281 169.705,173.001 168.315,173.739 166.922,174.524 165.526,175.349 164.127,176.204 162.725,177.074 161.32,177.981 159.912,178.926 158.5,179.902 157.086,180.883 155.668,181.9 154.246,182.951 152.821,184.033 151.393,185.11 149.961,186.215 148.526,187.351 147.086,188.71 145.643,190.184 144.197,191.658 142.746,193.12 141.292,194.591 139.833,196.013 138.37,197.442 136.904,198.866 135.433,200.275 133.958,201.659 132.478,203.043 130.995,204.43 129.506,205.776 128.014,207.124 126.517,208.465 125.015,209.803 123.508,211.106 121.997,212.41 120.479,213.719 118.945,214.993 117.398,216.263 115.836,217.503 114.261,218.72 112.674,219.896 111.076,221.047 109.466,222.159 107.846,223.243 106.216,224.294 104.577,225.31 102.929,226.299 101.273,227.256 99.6105,228.191 97.9411,229.093 96.2659,229.968 94.5854,230.816 92.9001,231.635 91.2109,232.429 89.5184,233.194 87.8233,233.937 86.1261,234.649 84.4275,235.341 82.7282,236.005 81.0287,236.641 79.3297,237.249 77.632,237.829 75.936,238.378 74.2426,238.816 72.5523,239.081 70.8658,239.335 69.1838,239.584 67.5068,239.821 65.8356,240.05 64.1707,240.268 " />
</g>

<g fill="#ffffff" fill-opacity="1" stroke="none" transform="matrix(5e-05,0,0,5e-05,0,0)"
font-family="Helvetica" font-size="18" font-weight="400" font-style="normal" 
>
<path vector-effect="none" fill-rule="evenodd" d="M2.69e+06,370000 L2.69e+06,1.51e+06 L4.29e+06,1.51e+06 L4.29e+06,370000 L2.69e+06,370000"/>
</g>

<g fill="#f1a226" fill-opacity="1" stroke="#f1a226" stroke-opacity="1" stroke-width="4" stroke-linecap="butt" stroke-linejoin="round" transform="matrix(0.5,0,0,0.5,0,0)"
font-family="Helvetica" font-size="18" font-weight="400" font-style="normal" 
>
<polyline fill="none" vector-effect="none" points="275.019,50.5 335.207,50.5 " />
</g>

<g fill="#f1c285" fill-opacity="1" stroke="#f1c285" stroke-opacity="1" stroke-width="4" stroke-linecap="butt" stroke-linejoin="round" transform="matrix(0.5,0,0,0.5,0,0)"
font-family="Helvetica" font-size="18" font-weight="400" font-style="normal" 
>
<polyline fill="none" vector-effect="none" points="275.019,72.25 335.207,72.25 " />
</g>

<g fill="#298c8c" fill-opacity="1" stroke="#298c8c" stroke-opacity="1" stroke-width="4" stroke-linecap="butt" stroke-linejoin="round" transform="matrix(0.5,0,0,0.5,0,0)"
font-family="Helvetica" font-size="18" font-weight="400" font-style="normal" 
>
<polyline fill="none" vector-effect="none" points="275.019,94 335.207,94 " />
</g>

<g fill="#5bb5b7" fill-opacity="1" stroke="#5bb5b7" stroke-opacity="1" stroke-width="4" stroke-linecap="butt" stroke-linejoin="round" transform="matrix(0.5,0,0,0.5,0,0)"
font-family="Helvetica" font-size="18" font-weight="400" font-style="normal" 
>
<polyline fill="none" vector-effect="none" points="275.019,115.75 335.207,115.75 " />
</g>

<g fill="#3594cc" fill-opacity="1" stroke="#3594cc" stroke-opacity="1" stroke-dasharray="4,4" stroke-dashoffset="0" stroke-width="4" stroke-linecap="butt" stroke-linejoin="round" transform="matrix(0.5,0,0,0.5,0,0)"
font-family="Helvetica" font-size="18" font-weight="400" font-style="normal" 
>
<polyline fill="none" vector-effect="none" points="275.019,137.5 335.207,137.5 " />
</g>

<g fill="#212121" fill-opacity="1" stroke="#212121" stroke-opacity="1" stroke-width="1" stroke-linecap="square" stroke-linejoin="bevel" transform="matrix(0.5,0,0,0.5,169.861,27.75)"
font-family="Helvetica" font-size="18" font-weight="400" font-style="normal" 
>
<text fill="#212121" fill-opacity="1" stroke="none" xml:space="preserve" x="0" y="-0.140625" font-family="Helvetica" font-size="18" font-weight="400" font-style="normal" 
 >Si-St, Stor</text>
</g>

<g fill="#212121" fill-opacity="1" stroke="#212121" stroke-opacity="1" stroke-width="1" stroke-linecap="square" stroke-linejoin="bevel" transform="matrix(0.5,0,0,0.5,169.861,38.625)"
font-family="Helvetica" font-size="18" font-weight="400" font-style="normal" 
>
<text fill="#212121" fill-opacity="1" stroke="none" xml:space="preserve" x="0" y="-0.140625" font-family="Helvetica" font-size="18" font-weight="400" font-style="normal" 
 >Si-St, Rel</text>
</g>

<g fill="#212121" fill-opacity="1" stroke="#212121" stroke-opacity="1" stroke-width="1" stroke-linecap="square" stroke-linejoin="bevel" transform="matrix(0.5,0,0,0.5,169.861,49.5)"
font-family="Helvetica" font-size="18" font-weight="400" font-style="normal" 
>
<text fill="#212121" fill-opacity="1" stroke="none" xml:space="preserve" x="0" y="-0.140625" font-family="Helvetica" font-size="18" font-weight="400" font-style="normal" 
 >St-Si, Stor</text>
</g>

<g fill="#212121" fill-opacity="1" stroke="#212121" stroke-opacity="1" stroke-width="1" stroke-linecap="square" stroke-linejoin="bevel" transform="matrix(0.5,0,0,0.5,169.861,60.375)"
font-family="Helvetica" font-size="18" font-weight="400" font-style="normal" 
>
<text fill="#212121" fill-opacity="1" stroke="none" xml:space="preserve" x="0" y="-0.140625" font-family="Helvetica" font-size="18" font-weight="400" font-style="normal" 
 >St-Si, Rel</text>
</g>

<g fill="#212121" fill-opacity="1" stroke="#212121" stroke-opacity="1" stroke-width="1" stroke-linecap="square" stroke-linejoin="bevel" transform="matrix(0.5,0,0,0.5,169.861,71.25)"
font-family="Helvetica" font-size="18" font-weight="400" font-style="normal" 
>
<text fill="#212121" fill-opacity="1" stroke="none" xml:space="preserve" x="0" y="-0.140625" font-family="Helvetica" font-size="18" font-weight="400" font-style="normal" 
 >Predicted</text>
</g>

<g fill="none" stroke="#212121" stroke-opacity="1" stroke-width="1" stroke-linecap="butt" stroke-linejoin="miter" stroke-miterlimit="2" transform="matrix(0.5,0,0,0.5,0,0)"
font-family="Helvetica" font-size="18" font-weight="400" font-style="normal" 
>
<path vector-effect="none" fill-rule="evenodd" d="M269,151 L269,37 L429,37 L429,151 L269,151"/>
</g>
</g>
</svg>
