<?xml version="1.0" encoding="UTF-8" standalone="no"?>
<svg width="86.4306mm" height="56.0917mm"
 viewBox="0 0 245 159"
 xmlns="http://www.w3.org/2000/svg" xmlns:xlink="http://www.w3.org/1999/xlink"  version="1.2" baseProfile="tiny">
<title>Qt SVG Document</title>
<desc>MATLAB, The MathWorks, Inc. Version 25.1.0.2973910 R2025a Update 1</desc>
<defs>
</defs>
<g fill="none" stroke="black" stroke-width="1" fill-rule="evenodd" stroke-linecap="square" stroke-linejoin="bevel" >

<g fill="#ffffff" fill-opacity="1" stroke="none" transform="matrix(0.5,0,0,0.5,0,0)"
font-family=".AppleSystemUIFont" font-size="13" font-weight="400" font-style="normal" 
>
<path vector-effect="none" fill-rule="evenodd" d="M0,0 L491,0 L491,318 L0,318 L0,0"/>
</g>

<g fill="#ffffff" fill-opacity="1" stroke="none" transform="matrix(5e-05,0,0,5e-05,0,0)"
font-family=".AppleSystemUIFont" font-size="13" font-weight="400" font-style="normal" 
>
<path vector-effect="none" fill-rule="evenodd" d="M640000,240000 L640000,2.67e+06 L4.43e+06,2.67e+06 L4.43e+06,240000 L640000,240000"/>
</g>

<g fill="#212121" fill-opacity="1" stroke="#212121" stroke-opacity="1" stroke-width="1" stroke-linecap="square" stroke-linejoin="bevel" transform="matrix(0.5,0,0,0.5,65.75,154.8)"
font-family="Helvetica" font-size="20" font-weight="400" font-style="normal" 
>
<text fill="#212121" fill-opacity="1" stroke="none" xml:space="preserve" x="0" y="0.390625" font-family="Helvetica" font-size="20" font-weight="400" font-style="normal" 
 >Cable Stroke Distance (cm)</text>
</g>

<g fill="#212121" fill-opacity="1" stroke="#212121" stroke-opacity="1" stroke-width="1" stroke-linecap="square" stroke-linejoin="round" transform="matrix(0.5,0,0,0.5,0,0)"
font-family="Helvetica" font-size="20" font-weight="400" font-style="normal" 
>
<polyline fill="none" vector-effect="none" points="64,267 443,267 " />
<polyline fill="none" vector-effect="none" points="64,267 64,263.21 " />
<polyline fill="none" vector-effect="none" points="158.75,267 158.75,263.21 " />
<polyline fill="none" vector-effect="none" points="253.5,267 253.5,263.21 " />
<polyline fill="none" vector-effect="none" points="348.25,267 348.25,263.21 " />
<polyline fill="none" vector-effect="none" points="443,267 443,263.21 " />
</g>

<g fill="#212121" fill-opacity="1" stroke="#212121" stroke-opacity="1" stroke-width="1" stroke-linecap="square" stroke-linejoin="bevel" transform="matrix(0.5,0,0,0.5,29.5,143.3)"
font-family="Helvetica" font-size="18" font-weight="400" font-style="normal" 
>
<text fill="#212121" fill-opacity="1" stroke="none" xml:space="preserve" x="0" y="-0.140625" font-family="Helvetica" font-size="18" font-weight="400" font-style="normal" 
 >0</text>
</g>

<g fill="#212121" fill-opacity="1" stroke="#212121" stroke-opacity="1" stroke-width="1" stroke-linecap="square" stroke-linejoin="bevel" transform="matrix(0.5,0,0,0.5,76.875,143.3)"
font-family="Helvetica" font-size="18" font-weight="400" font-style="normal" 
>
<text fill="#212121" fill-opacity="1" stroke="none" xml:space="preserve" x="0" y="-0.140625" font-family="Helvetica" font-size="18" font-weight="400" font-style="normal" 
 >2</text>
</g>

<g fill="#212121" fill-opacity="1" stroke="#212121" stroke-opacity="1" stroke-width="1" stroke-linecap="square" stroke-linejoin="bevel" transform="matrix(0.5,0,0,0.5,124.25,143.3)"
font-family="Helvetica" font-size="18" font-weight="400" font-style="normal" 
>
<text fill="#212121" fill-opacity="1" stroke="none" xml:space="preserve" x="0" y="-0.140625" font-family="Helvetica" font-size="18" font-weight="400" font-style="normal" 
 >4</text>
</g>

<g fill="#212121" fill-opacity="1" stroke="#212121" stroke-opacity="1" stroke-width="1" stroke-linecap="square" stroke-linejoin="bevel" transform="matrix(0.5,0,0,0.5,171.625,143.3)"
font-family="Helvetica" font-size="18" font-weight="400" font-style="normal" 
>
<text fill="#212121" fill-opacity="1" stroke="none" xml:space="preserve" x="0" y="-0.140625" font-family="Helvetica" font-size="18" font-weight="400" font-style="normal" 
 >6</text>
</g>

<g fill="#212121" fill-opacity="1" stroke="#212121" stroke-opacity="1" stroke-width="1" stroke-linecap="square" stroke-linejoin="bevel" transform="matrix(0.5,0,0,0.5,219,143.3)"
font-family="Helvetica" font-size="18" font-weight="400" font-style="normal" 
>
<text fill="#212121" fill-opacity="1" stroke="none" xml:space="preserve" x="0" y="-0.140625" font-family="Helvetica" font-size="18" font-weight="400" font-style="normal" 
 >8</text>
</g>

<g fill="#212121" fill-opacity="1" stroke="#212121" stroke-opacity="1" stroke-width="1" stroke-linecap="square" stroke-linejoin="bevel" transform="matrix(0,-0.5,0.5,0,14.2,112.75)"
font-family="Helvetica" font-size="20" font-weight="400" font-style="normal" 
>
<text fill="#212121" fill-opacity="1" stroke="none" xml:space="preserve" x="0" y="0.390625" font-family="Helvetica" font-size="20" font-weight="400" font-style="normal" 
 >Cable Tension (N)</text>
</g>

<g fill="#212121" fill-opacity="1" stroke="#212121" stroke-opacity="1" stroke-width="1" stroke-linecap="square" stroke-linejoin="round" transform="matrix(0.5,0,0,0.5,0,0)"
font-family="Helvetica" font-size="20" font-weight="400" font-style="normal" 
>
<polyline fill="none" vector-effect="none" points="64,267 64,24 " />
<polyline fill="none" vector-effect="none" points="64,267 67.79,267 " />
<polyline fill="none" vector-effect="none" points="64,206.25 67.79,206.25 " />
<polyline fill="none" vector-effect="none" points="64,145.5 67.79,145.5 " />
<polyline fill="none" vector-effect="none" points="64,84.75 67.79,84.75 " />
<polyline fill="none" vector-effect="none" points="64,24 67.79,24 " />
</g>

<g fill="#212121" fill-opacity="1" stroke="#212121" stroke-opacity="1" stroke-width="1" stroke-linecap="square" stroke-linejoin="bevel" transform="matrix(0.5,0,0,0.5,24.2,136)"
font-family="Helvetica" font-size="18" font-weight="400" font-style="normal" 
>
<text fill="#212121" fill-opacity="1" stroke="none" xml:space="preserve" x="0" y="-0.140625" font-family="Helvetica" font-size="18" font-weight="400" font-style="normal" 
 >0</text>
</g>

<g fill="#212121" fill-opacity="1" stroke="#212121" stroke-opacity="1" stroke-width="1" stroke-linecap="square" stroke-linejoin="bevel" transform="matrix(0.5,0,0,0.5,19.2,105.625)"
font-family="Helvetica" font-size="18" font-weight="400" font-style="normal" 
>
<text fill="#212121" fill-opacity="1" stroke="none" xml:space="preserve" x="0" y="-0.140625" font-family="Helvetica" font-size="18" font-weight="400" font-style="normal" 
 >20</text>
</g>

<g fill="#212121" fill-opacity="1" stroke="#212121" stroke-opacity="1" stroke-width="1" stroke-linecap="square" stroke-linejoin="bevel" transform="matrix(0.5,0,0,0.5,19.2,75.25)"
font-family="Helvetica" font-size="18" font-weight="400" font-style="normal" 
>
<text fill="#212121" fill-opacity="1" stroke="none" xml:space="preserve" x="0" y="-0.140625" font-family="Helvetica" font-size="18" font-weight="400" font-style="normal" 
 >40</text>
</g>

<g fill="#212121" fill-opacity="1" stroke="#212121" stroke-opacity="1" stroke-width="1" stroke-linecap="square" stroke-linejoin="bevel" transform="matrix(0.5,0,0,0.5,19.2,44.875)"
font-family="Helvetica" font-size="18" font-weight="400" font-style="normal" 
>
<text fill="#212121" fill-opacity="1" stroke="none" xml:space="preserve" x="0" y="-0.140625" font-family="Helvetica" font-size="18" font-weight="400" font-style="normal" 
 >60</text>
</g>

<g fill="#212121" fill-opacity="1" stroke="#212121" stroke-opacity="1" stroke-width="1" stroke-linecap="square" stroke-linejoin="bevel" transform="matrix(0.5,0,0,0.5,19.2,14.5)"
font-family="Helvetica" font-size="18" font-weight="400" font-style="normal" 
>
<text fill="#212121" fill-opacity="1" stroke="none" xml:space="preserve" x="0" y="-0.140625" font-family="Helvetica" font-size="18" font-weight="400" font-style="normal" 
 >80</text>
</g>

<g fill="none" stroke="#f1a226" stroke-opacity="1" stroke-width="4" stroke-linecap="butt" stroke-linejoin="round" transform="matrix(0.5,0,0,0.5,0,0)"
font-family="Helvetica" font-size="18" font-weight="400" font-style="normal" 
>
<polyline fill="none" vector-effect="none" points="388.88,251.683 388.88,251.62 388.881,251.785 388.853,251.431 388.854,251.675 388.88,251.712 388.85,251.535 388.845,251.619 388.832,251.754 388.828,251.606 388.803,251.584 388.751,251.672 388.707,251.547 388.652,251.453 388.53,251.444 388.388,251.834 388.181,251.514 387.958,251.529 387.686,251.607 387.498,251.884 387.394,251.526 386.891,251.545 386.507,251.576 386.23,251.586 385.843,251.507 385.528,251.326 385.153,251.663 384.803,251.015 384.438,251.295 384.076,251.508 383.712,251.202 383.371,251.136 383.006,251.472 382.65,251.653 382.33,251.273 381.982,250.942 381.608,251.128 381.202,251.132 380.781,251.509 380.383,251.089 379.945,251.192 379.52,251.025 379.083,250.691 378.653,251.217 378.198,250.557 377.743,250.507 377.26,250.626 376.695,250.098 376.097,250.166 375.516,250.412 374.948,250.056 374.357,250.662 373.721,249.473 373.043,249.625 372.333,249.51 371.708,249.1 371.02,249.435 370.473,248.386 369.918,248.901 369.042,248.728 368.289,249.052 367.766,249.806 367.092,250.447 366.435,249.713 365.749,250.444 365.017,249.744 364.345,250.024 363.626,249.376 362.859,249.399 362.062,249.283 361.289,250.178 360.513,249.815 359.7,250.041 358.88,249.507 358.048,249.549 357.323,249.784 356.597,249.743 355.583,249.567 354.699,248.961 354.009,249.771 353.216,249.188 352.38,249.229 351.578,249.701 350.667,249.279 349.768,249.675 348.853,249.716 347.9,249.155 346.917,249.201 346.013,249.007 345.19,249.662 344.393,248.734 343.121,248.785 342.026,248.839 341.017,248.88 339.871,247.963 338.764,248.377 337.649,248.638 336.473,249.037 335.333,248.936 334.224,249.237 333.175,247.812 332.103,248.335 330.849,248.421 329.657,248.055 328.703,247.8 327.693,248.31 326.592,248.071 325.514,248.646 324.424,248.368 323.408,248.501 322.456,248.449 321.104,247.656 319.88,247.615 318.88,248.057 317.709,246.999 316.497,247.273 315.328,247.835 314.203,248.343 313.126,246.988 311.679,248.018 310.363,247.265 309.21,247.892 307.944,247.765 306.652,247.661 305.342,246.89 304.162,248.115 303.033,247.811 301.506,247.055 300.119,247.47 298.941,247.399 297.629,246.714 296.335,246.874 295.161,246.375 293.933,246.358 292.391,246.402 291.012,246.196 289.689,245.898 288.242,245.185 286.906,246.273 285.544,246.001 283.958,244.978 282.424,245.725 280.998,245.353 279.531,244.53 278.233,245.255 276.898,244.2 275.242,243.45 273.677,244.728 272.507,244.326 271.149,243.298 269.855,244.287 268.719,243.033 267.205,243.078 265.829,243.168 264.67,242.355 263.34,242.109 262.136,241.76 260.886,241.778 259.275,241.375 257.755,240.842 256.416,240.721 255.094,239.873 253.732,239.01 252.059,239.034 250.413,237.901 249.057,238.454 247.453,235.685 246.028,236.131 244.728,236.352 242.963,234.262 241.356,233.89 239.82,232.173 238.348,231.479 236.961,231.355 235.256,229.611 233.671,228.451 232.263,227.151 230.809,225.327 229.612,225.319 227.876,222.044 226.369,221.656 224.982,218.751 223.597,217.885 222.336,216.437 220.648,214.377 219.044,212.324 217.69,208.5 216.353,207.452 214.604,204.895 213.035,202.194 211.698,199.431 210.257,195.027 208.986,193.191 207.327,190.347 205.836,186.312 204.477,182.261 203.165,177.76 201.844,175.239 200.287,171.855 198.74,166.406 197.411,160.958 196.121,155.501 194.975,153.112 193.32,148.371 191.787,139.942 190.771,134.103 189.677,129.577 188.045,124.864 186.62,119.69 185.62,111.629 184.509,103.309 183.454,98.6304 182.03,93.5567 180.75,85.4856 179.687,74.8723 178.653,66.4408 177.652,61.9144 176.131,56.8448 174.846,59.8298 173.702,65.4109 172.561,70.3523 171.498,83.8587 169.777,91.2329 168.071,87.9315 166.832,103.723 165.303,108.322 163.351,116.594 161.337,125.234 159.488,124.325 157.581,133.987 155.769,139.661 153.417,144.275 151.003,148.481 149.015,149.749 147.028,157.72 145.072,160.924 142.732,165.789 140.414,165.667 138.385,169.603 136.35,174.271 134.578,177.385 132.455,180.05 130.461,179.169 128.776,183.728 127.022,185.292 125.46,188.746 123.983,188.352 122.184,189.176 120.444,192.499 119.023,193.928 117.642,195.455 116.337,195.859 114.653,197.402 113.06,198.617 111.791,201.252 110.511,201.257 109.238,202.262 107.716,204.112 106.178,205.53 104.961,206.905 103.599,206.406 102.392,208.985 101.238,209.529 99.6392,211.566 98.2342,212.083 97.0831,212.049 95.6111,213.757 94.465,215.794 93.3727,216.595 91.816,216.141 90.343,217.547 89.14,218.418 87.8342,219.557 86.4584,219.934 85.3085,221.021 84.3032,222.088 82.8453,222.756 81.4573,222.538 80.396,222.852 79.1662,223.692 78.1595,224.504 77.201,225.674 75.8095,225.707 74.4719,225.992 73.3526,227.213 72.1611,227.708 70.9685,227.961 69.7832,228.006 68.6214,228.434 67.6552,229.17 66.3178,229.462 64.9949,229.55 64,230.064 " />
</g>

<g fill="none" stroke="#f1c285" stroke-opacity="1" stroke-width="4" stroke-linecap="butt" stroke-linejoin="round" transform="matrix(0.5,0,0,0.5,0,0)"
font-family="Helvetica" font-size="18" font-weight="400" font-style="normal" 
>
<polyline fill="none" vector-effect="none" points="65.1869,237.679 66.1933,236.796 67.365,236.87 68.5569,236.309 69.8361,236.054 70.869,234.549 71.943,234.294 73.4206,233.571 74.7511,233.497 76.0472,233.001 77.3627,232.247 78.7033,231.139 80.029,230.74 81.3181,229.871 82.5633,228.168 84.1505,227.41 85.4247,226.912 86.6829,225.368 88.0573,224.828 89.3275,223.29 90.5202,221.33 91.7824,221.108 93.2405,220.467 94.6799,218.507 95.9622,218.047 97.3914,217.152 98.7189,215.645 99.9729,214.749 101.595,213.468 103.199,211.764 104.573,211.327 106.16,209.925 107.511,208.129 108.75,206.601 110.428,204.883 112.064,204.168 113.445,202.638 114.957,200.197 116.346,198.615 117.631,196.973 119.339,195.642 120.999,194.471 122.415,192.563 123.817,190.765 125.094,189.062 126.804,187.748 128.471,186.15 129.814,183.77 131.32,182.742 132.675,180.676 133.914,178.156 135.632,176.221 137.265,174.347 138.666,172.6 140.02,170.496 141.362,167.245 143.079,165.183 144.78,163.735 146.238,161.058 147.691,157.854 149.077,154.272 150.901,152.435 152.693,150.627 154.108,147.694 155.609,144.228 157.018,139.959 158.757,138.155 160.442,135.957 161.961,133.117 163.424,128.576 164.754,122.098 166.567,120.258 168.265,114.639 169.778,107.566 171.333,101.119 172.701,90.8099 174.686,84.8723 176.595,81.1457 177.913,70.2862 179.466,87.8191 181.415,113.752 183.291,116.139 184.867,138.483 186.336,141.945 187.534,128.325 189.046,152.672 190.445,151.449 191.465,158.393 192.456,163.283 193.265,151.011 194.568,168.091 195.759,168.817 196.646,172.055 197.54,173.312 198.346,168.876 199.502,180.68 200.679,184.722 201.446,183.468 202.335,187.616 203.677,185.971 205.108,197.546 206.308,197.397 207.525,199.41 208.597,198.339 210.316,203.962 211.969,210.197 213.272,210.305 214.681,211.906 215.947,211.915 217.716,216.854 219.379,221.831 220.732,220.2 222.225,222.01 223.45,221.078 225.277,227.218 226.958,229.333 228.391,228.262 229.856,229.163 231.229,230.482 233.016,234.831 234.745,234.439 236.21,234.49 237.701,235.3 239.085,236.067 240.872,239.042 242.59,238.058 244.048,237.792 245.487,239.094 246.827,240.048 248.544,242.099 250.196,241.255 251.666,241.131 252.999,242.013 254.372,243.385 256.052,243.652 257.783,243.656 259.303,243.423 260.824,244.926 262.288,244.739 263.591,244.389 265.425,245.046 267.086,244.964 268.366,246.568 269.763,245.973 271.047,246.083 272.73,246.254 274.229,245.568 275.556,247.61 277.122,247.227 278.406,246.02 279.634,247.153 281.326,247.444 282.911,247.727 284.19,247.503 285.565,247.051 286.914,248.473 288.159,247.626 289.696,247.58 291.174,248.546 292.551,248.403 293.943,248.455 295.379,248.614 296.614,248.655 297.768,248.691 299.313,249.522 300.819,248.948 302.095,249.34 303.443,249.458 304.777,248.894 305.962,249.512 307.174,249.852 308.7,249.114 310.091,249.91 311.288,249.802 312.673,249.22 313.962,250.62 315.203,250.172 316.343,250.324 317.498,250.446 318.946,250.525 320.321,250.151 321.452,249.988 322.707,250.985 323.944,250.569 325.138,250.066 326.164,251.02 327.119,250.564 328.316,250.382 329.469,250.829 330.306,251.281 331.302,250.911 332.26,251.123 333.26,250.78 334.229,250.949 335.171,251.207 336.045,251.23 336.871,251.246 338.003,250.792 339.127,251.638 340.021,251.152 341.005,251.034 342.024,251.716 342.986,250.916 343.951,252.31 345.07,250.834 346.104,250.701 346.954,250.956 347.695,251.995 348.832,251.245 349.924,250.842 350.9,251.552 351.911,251.041 352.984,251.573 353.956,251.146 354.89,251.596 355.811,252.062 356.704,251.318 357.635,251.394 358.469,251.303 359.283,251.693 359.972,251.277 360.596,251.361 361.519,251.492 362.261,251.181 362.913,251.212 363.637,251.592 364.365,251.481 365.139,251.802 365.915,251.75 366.665,251.493 367.33,251.751 368.06,251.672 368.757,251.878 369.447,251.776 370.084,251.716 370.764,251.488 371.417,251.569 372.107,251.629 372.751,251.538 373.393,251.901 373.85,251.655 374.268,251.981 375.048,251.597 375.762,252.018 376.304,251.381 376.894,251.533 377.505,252.089 378.06,251.592 378.655,251.366 379.16,251.558 379.579,251.641 380.023,251.884 380.375,251.916 380.701,251.78 381.027,251.792 381.38,251.82 381.691,251.767 382.058,251.641 382.43,251.926 382.82,251.615 383.221,251.634 383.581,251.522 383.943,252.009 384.29,252.022 384.652,251.471 385.033,251.631 385.354,251.798 385.721,251.484 386.058,251.725 386.335,251.787 386.606,251.644 386.882,251.98 387.113,251.962 387.352,251.575 387.565,251.698 387.788,251.769 387.929,251.698 388.125,251.483 388.295,251.973 388.468,251.767 388.648,251.903 388.827,251.537 388.969,251.925 389.144,251.523 389.277,252.1 389.406,251.38 389.511,251.793 389.545,251.884 389.574,251.945 389.592,251.662 " />
</g>

<g fill="none" stroke="#3594cc" stroke-opacity="1" stroke-dasharray="4,4" stroke-dashoffset="0" stroke-width="4" stroke-linecap="butt" stroke-linejoin="round" transform="matrix(0.5,0,0,0.5,0,0)"
font-family="Helvetica" font-size="18" font-weight="400" font-style="normal" 
>
<polyline fill="none" vector-effect="none" points="358.618,266.82 356.886,266.639 355.154,266.459 353.421,266.28 351.688,266.101 349.955,265.924 348.221,265.748 346.487,265.573 344.752,265.4 343.018,265.227 341.283,265.056 339.549,264.887 337.816,264.713 336.084,264.535 334.353,264.355 332.624,264.173 330.896,263.991 329.17,263.807 327.446,263.622 325.725,263.436 324.007,263.248 322.291,263.059 320.579,262.868 318.87,262.675 317.165,262.481 315.463,262.284 313.766,262.086 312.073,261.886 310.385,261.684 308.701,261.48 307.023,261.274 305.35,261.065 303.682,260.854 302.021,260.641 300.365,260.426 298.716,260.207 297.073,259.986 295.437,259.763 293.808,259.536 292.186,259.307 290.572,259.074 288.966,258.839 287.367,258.6 285.777,258.358 284.196,258.112 282.623,257.863 281.059,257.61 279.504,257.354 277.958,257.094 276.423,256.829 274.897,256.56 273.381,256.288 271.876,256.011 270.382,255.73 268.898,255.444 267.426,255.153 265.965,254.856 264.515,254.556 263.077,254.25 261.652,253.938 260.239,253.621 258.838,253.298 257.45,252.969 256.075,252.635 254.714,252.294 253.366,251.946 252.032,251.581 250.712,251.188 249.406,250.774 248.115,250.337 246.838,249.879 245.577,249.402 244.331,248.904 243.1,248.384 241.885,247.845 240.686,247.284 239.503,246.7 238.336,246.095 237.186,245.466 236.054,244.814 234.938,244.138 233.84,243.433 232.759,242.706 231.696,241.948 230.652,241.162 229.626,240.349 228.618,239.502 227.629,238.626 226.66,237.715 225.71,236.77 224.779,235.789 223.868,234.767 222.976,233.712 222.101,232.613 221.244,231.47 220.402,230.286 219.576,229.052 218.764,227.775 217.966,226.444 217.181,225.061 216.408,223.627 215.647,222.131 214.897,220.578 214.158,218.96 213.429,217.281 212.71,215.529 211.999,213.708 211.298,211.815 210.604,209.834 209.919,207.793 209.241,205.663 208.57,203.478 207.906,201.222 207.248,198.904 206.597,196.497 205.951,194.009 205.311,191.458 204.676,188.818 204.046,186.097 203.421,183.259 202.8,180.352 202.184,177.34 201.571,174.247 200.963,171.026 200.357,167.697 199.755,164.273 199.156,160.725 198.56,157.067 197.966,153.243 197.375,149.316 196.786,145.233 196.2,141.047 195.615,136.683 195.031,132.163 194.45,127.465 193.869,122.623 193.29,117.597 192.711,112.405 192.133,106.957 191.556,101.33 190.979,95.4879 190.403,89.4413 189.826,85.2131 189.25,86.7611 188.673,88.3744 188.095,90.0139 187.517,91.688 186.938,93.3995 186.358,95.1031 185.777,96.8448 185.194,98.6252 184.61,100.443 184.024,102.296 183.437,104.158 182.847,106.05 182.254,107.985 181.659,109.931 181.062,111.875 180.461,113.787 179.858,115.68 179.251,117.547 178.64,119.444 178.025,121.298 177.407,123.159 176.784,124.984 176.157,126.83 175.524,128.678 174.887,130.505 174.244,132.335 173.595,134.14 172.941,135.993 172.28,137.819 171.613,139.67 170.938,141.477 170.257,143.281 169.567,145.099 168.87,146.898 168.164,148.725 167.449,150.49 166.725,152.274 165.991,154.05 165.246,155.824 164.491,157.592 163.724,159.316 162.945,161.065 162.154,162.793 161.349,164.535 160.53,166.257 159.696,167.948 158.847,169.644 157.981,171.326 157.098,173.013 156.196,174.652 155.275,176.305 154.334,177.946 153.372,179.583 152.388,181.184 151.384,182.78 150.357,184.381 149.308,185.968 148.237,187.529 147.142,189.074 146.024,190.625 144.881,192.17 143.715,193.676 142.523,195.18 141.307,196.673 140.066,198.175 138.801,199.627 137.512,201.086 136.201,202.539 134.867,203.978 133.512,205.391 132.137,206.804 130.74,208.22 129.325,209.595 127.89,210.971 126.437,212.341 124.967,213.696 123.48,215.027 121.976,216.369 120.457,217.704 118.923,219.005 117.374,220.302 115.812,221.568 114.237,222.811 112.649,224.012 111.05,225.187 109.439,226.322 107.818,227.429 106.188,228.501 104.548,229.539 102.899,230.549 101.245,231.526 99.5812,232.48 97.911,233.402 96.235,234.296 94.5537,235.16 92.8677,235.997 91.1777,236.808 89.4845,237.589 87.7886,238.347 86.0906,239.075 84.3913,239.781 82.6912,240.458 80.9909,241.108 79.2913,241.729 77.5927,242.321 75.8952,242.881 74.1983,243.329 72.5015,243.635 70.8042,243.982 69.106,244.322 67.4062,244.654 65.7044,244.976 64,245.288 " />
</g>

<g fill="none" stroke="#298c8c" stroke-opacity="1" stroke-width="4" stroke-linecap="butt" stroke-linejoin="round" transform="matrix(0.5,0,0,0.5,0,0)"
font-family="Helvetica" font-size="18" font-weight="400" font-style="normal" 
>
<polyline fill="none" vector-effect="none" points="366.598,251.544 366.598,251.199 366.598,251.463 366.598,251.348 366.598,251.393 366.597,251.476 366.596,251.427 366.595,251.425 366.592,251.449 366.583,251.307 366.573,251.424 366.548,251.292 366.528,251.311 366.478,251.142 366.345,251.245 366.177,251.483 365.987,251.303 365.747,251.189 365.503,251.262 365.213,251.27 364.954,251.1 364.636,251.216 364.319,250.953 364.02,250.95 363.746,251.283 363.443,250.785 363.16,250.945 362.844,251.285 362.544,250.851 362.257,251.237 361.915,251.128 361.57,251.009 361.237,250.97 360.918,250.96 360.536,250.859 360.14,250.989 359.731,250.863 359.338,250.694 358.879,250.797 358.33,251.108 357.823,251.274 357.304,250.651 356.767,250.807 356.293,250.622 355.771,250.788 355.251,250.395 354.748,250.961 354.173,251.015 353.63,250.634 353.104,250.812 352.557,250.284 352.043,251.021 351.467,250.358 350.924,250.284 350.361,250.168 349.692,250.472 349.04,250.799 348.524,250.556 347.978,250.6 347.095,250.386 346.31,250.324 345.721,250.776 344.999,250.706 344.254,249.832 343.506,250.549 342.766,250.008 342.054,249.989 341.307,250.106 340.613,249.802 339.856,249.675 339.115,250.196 338.332,249.995 337.597,249.785 336.77,249.953 335.935,249.725 335.104,249.764 334.283,249.528 333.434,248.929 332.605,249.862 331.749,249.634 330.897,248.575 330.152,249.294 329.425,248.529 328.357,249.286 327.312,248.432 326.464,248.709 325.443,248.349 324.432,248.538 323.43,248.477 322.405,248.002 321.406,247.708 320.377,248.199 319.35,246.975 318.343,246.979 317.364,246.876 316.283,246.573 315.21,246.864 314.277,246.047 313.406,246.104 312.208,245.436 311.093,245.478 310.159,245.125 309.096,244.991 307.955,244.159 306.845,243.818 305.743,243.411 304.609,242.626 303.408,242.656 302.203,241.927 301.2,241.265 300.206,240.458 298.822,239.601 297.584,238.628 296.448,237.612 295.18,236.414 293.979,235.332 292.717,233.737 291.439,231.399 290.149,230.338 288.993,228.208 287.929,228.074 286.536,230.229 285.243,227.118 284.118,227.888 282.904,226.565 281.709,226.637 280.439,226.424 279.22,225.781 278.082,225.02 277.126,224.951 275.663,224.01 274.229,223.18 273.069,221.162 271.753,221.644 270.497,220.155 269.18,220.788 267.918,219.181 266.835,219.072 265.251,218.044 263.723,216.01 262.496,216.093 261.039,213.909 259.62,212.453 258.395,212.945 257.21,211.065 255.65,210.092 254.089,208.97 252.833,207.415 251.421,206.22 249.914,205.863 248.686,204.81 247.505,203.502 245.925,202.604 244.329,200.916 243.045,200.238 241.596,198.61 240.085,196.71 238.832,196.949 237.615,195.875 235.951,194.531 234.34,193.002 232.971,191.505 231.538,191.733 230.206,190.96 228.871,189.91 227.278,187.448 225.6,188.378 224.29,187.124 222.781,184.895 221.457,184.362 220.15,182.969 218.546,182.586 216.852,181.199 215.414,180.21 213.955,179.496 212.522,180.118 211.274,178.844 209.484,177.901 207.786,176.102 206.405,175.015 205.004,175.335 203.668,174.418 201.932,173.66 200.221,172.517 198.744,172.407 197.211,172.525 195.692,171.834 194.331,171.358 192.599,170.285 190.84,169.776 189.384,170.28 187.939,169.826 186.545,169.591 184.878,169.254 183.161,168.563 181.624,167.439 179.982,167.637 178.579,168.003 177.081,167.291 175.314,168.563 173.619,167.731 172.046,167.465 170.55,167.684 169.188,168.279 167.45,169.133 165.623,168.617 164.051,169.142 162.56,169.105 161.154,170.157 159.298,169.913 157.559,169.272 156.037,170.574 154.399,171.509 152.911,172.718 151.468,173.103 149.673,173.379 147.978,174.461 146.442,174.623 144.935,176.523 143.524,176.784 141.713,177.919 140.131,179.174 138.716,179.774 137.233,180.769 135.83,181.406 134.167,182.318 132.607,183.938 131.229,184.626 129.727,185.798 128.283,186.858 126.846,188.547 125.134,189.994 123.45,190.758 121.963,192.838 120.339,194.271 118.808,196.698 117.319,197.873 115.508,199.226 113.774,201.189 112.297,202.833 110.821,204.626 109.44,205.964 107.664,207.316 106.005,208.92 104.521,209.835 102.954,211.773 101.523,213.279 100.145,214.746 98.4203,215.562 96.8077,216.605 95.4345,217.779 93.9457,219.295 92.6507,219.762 91.36,221.167 89.7912,222.639 88.2264,223.012 86.8764,224.337 85.463,225.04 84.0155,226.021 82.7314,227.768 81.5513,227.6 79.963,228.128 78.5035,228.784 77.2375,229.808 75.834,229.381 74.521,229.987 73.2991,231.051 72.0895,232.232 70.5585,232.195 69.0676,233.526 67.8437,234.114 66.5191,233.847 65.1507,234.476 64,234.86 " />
</g>

<g fill="none" stroke="#5bb5b7" stroke-opacity="1" stroke-width="4" stroke-linecap="butt" stroke-linejoin="round" transform="matrix(0.5,0,0,0.5,0,0)"
font-family="Helvetica" font-size="18" font-weight="400" font-style="normal" 
>
<polyline fill="none" vector-effect="none" points="65.3275,236.679 66.5405,235.807 67.7357,235.285 69.2095,235.509 70.4854,234.859 71.7375,234.973 73.0705,235.507 74.3762,234.61 75.7509,232.466 76.9182,231.788 78.0691,230.792 79.7415,230.926 81.2621,229.403 82.6049,228.382 84.0673,228.852 85.4586,226.923 86.7366,226.542 88.4152,225.769 89.9317,224.205 91.2759,223.064 92.7419,222.028 94.1809,220.783 95.55,220.182 96.901,218.187 98.518,218.132 100.102,217.37 101.41,214.396 102.944,213.63 104.325,211.403 105.681,210.61 107.432,209.669 109.128,207.933 110.589,207.024 112.204,204.307 113.719,203.273 115.132,201.241 116.926,198.993 118.708,197.213 120.236,196.65 121.876,195.206 123.376,193.391 124.793,191.421 126.572,189.982 128.315,188.849 129.797,186.975 131.253,185.695 132.691,184.157 134.471,184.207 136.187,183.144 137.662,182.915 139.236,180.889 140.645,179.36 142.014,179.825 143.792,177.892 145.419,177.794 146.795,176.472 148.182,176.205 149.491,175.905 151.171,174.752 152.811,174.177 154.259,173.687 155.793,173.74 157.164,172.608 158.354,171.757 160.052,171.452 161.737,172.38 163.228,172 164.595,171.888 165.811,170.136 167.558,170.506 169.213,171.373 170.63,171.797 171.948,171.325 173.155,170.045 174.88,171.517 176.553,171.79 177.897,172.044 179.342,171.061 180.833,170.46 182.151,172.023 183.785,171.714 185.492,173.625 186.843,172.36 188.19,172.2 189.465,173.762 191.042,174.018 192.616,174.418 193.924,173.872 195.396,175.354 196.825,176.145 198.111,176.329 199.731,176.539 201.259,176.977 202.65,178.677 204.178,179.047 205.48,179.126 207.191,179.44 208.819,180.706 210.353,182.398 212.053,182.962 213.542,181.913 215.056,184.254 216.777,184.849 218.444,186.891 219.795,187.657 221.377,187.4 222.759,189.333 224.073,189.748 225.624,191.827 227.088,192.225 228.429,192.827 229.783,194.552 231.057,195.804 232.247,196.529 233.896,196.742 235.361,198.949 236.629,199.995 237.988,201.059 239.215,201.231 240.346,201.623 241.941,203.343 243.456,205.059 244.708,205.927 246.142,207.78 247.448,207.856 248.838,208.875 250.034,211.224 251.5,210.785 252.906,211.774 254.267,213.889 255.717,214.766 257.061,214.915 258.332,216.37 259.511,217.672 261.076,218.693 262.566,220.605 263.789,220.551 265.191,222.979 266.559,222.775 267.721,222.96 268.812,225.028 270.328,224.778 271.801,225.487 273.097,227.734 274.385,226.721 275.719,229.666 277.073,228.678 278.274,229.192 279.428,230.997 280.973,231.018 282.314,229.874 283.525,231.575 284.827,233.107 286.091,230.457 287.385,232.073 288.693,234.735 289.852,235.864 290.934,238.483 292.372,239.592 293.753,240.07 294.868,241.354 296.101,242.066 297.323,243.045 298.525,243.418 299.697,243.664 300.912,245.101 302.079,245.284 303.128,245.805 304.138,246.23 305.409,245.954 306.676,246.569 307.748,247.527 308.848,246.902 309.943,247.708 311.074,247.824 312.158,247.585 313.332,248.529 314.417,248.009 315.482,248.788 316.506,248.316 317.468,249.402 318.674,249.323 319.821,249.415 320.696,248.857 321.746,249.785 322.715,249.637 323.72,249.792 324.773,249.545 325.733,249.712 326.653,250.032 327.624,250.23 328.522,249.602 329.444,250.213 330.274,250.314 331.164,250.434 332.084,250.563 332.84,249.993 333.553,250.872 334.556,250.302 335.537,250.571 336.25,250.648 337.045,250.941 337.88,250.927 338.68,250.792 339.518,250.771 340.272,250.695 341.045,251.279 341.874,250.9 342.667,251.272 343.369,250.708 344.131,251.33 344.824,250.808 345.544,251.65 346.271,250.821 346.983,251.207 347.648,251.1 348.355,251.032 349.016,250.898 349.746,251.343 350.389,250.58 351.005,251.387 351.523,251.126 352.19,251.798 352.666,251.178 353.002,250.619 353.702,251.86 354.216,250.853 354.619,251.238 355.117,251.255 355.592,251.414 356.109,251.589 356.594,251.089 357.124,251.559 357.596,251.103 358.063,251.515 358.561,251.436 359.007,251.652 359.493,251.856 360,251.588 360.506,251.336 360.861,251.507 361.227,251.467 361.586,251.594 361.927,251.54 362.209,251.447 362.53,251.842 362.854,251.584 363.155,251.307 363.42,251.962 363.739,251.677 364.049,251.806 364.325,251.889 364.53,251.295 364.746,252.039 364.966,251.707 365.122,251.682 365.316,251.267 365.489,251.675 365.618,251.387 365.764,251.834 365.9,251.589 366.091,252.043 366.252,251.558 366.413,251.333 366.567,251.789 366.667,251.703 366.763,251.888 366.762,251.885 366.762,251.567 366.745,251.72 366.752,251.566 " />
</g>

<g fill="none" stroke="#3594cc" stroke-opacity="1" stroke-dasharray="4,4" stroke-dashoffset="0" stroke-width="4" stroke-linecap="butt" stroke-linejoin="round" transform="matrix(0.5,0,0,0.5,0,0)"
font-family="Helvetica" font-size="18" font-weight="400" font-style="normal" 
>
<polyline fill="none" vector-effect="none" points="363.231,266.818 361.551,266.636 359.908,266.454 358.301,266.272 356.73,266.091 355.194,265.91 353.692,265.729 352.225,265.548 350.791,265.368 349.39,265.187 348.02,265.007 346.683,264.826 345.376,264.64 344.1,264.447 342.853,264.25 341.636,264.05 340.448,263.847 339.286,263.639 338.15,263.428 337.038,263.213 335.948,262.993 334.88,262.768 333.832,262.538 332.804,262.303 331.793,262.061 330.8,261.814 329.824,261.56 328.863,261.299 327.917,261.03 326.985,260.754 326.066,260.47 325.16,260.176 324.267,259.874 323.384,259.562 322.513,259.239 321.653,258.905 320.802,258.56 319.961,258.201 319.129,257.83 318.305,257.444 317.49,257.043 316.682,256.625 315.882,256.191 315.089,255.738 314.302,255.265 313.522,254.771 312.747,254.255 311.978,253.714 311.215,253.147 310.457,252.552 309.703,251.926 308.954,251.268 308.209,250.574 307.468,249.854 306.73,249.104 305.996,248.326 305.265,247.518 304.537,246.68 303.811,245.808 303.088,244.904 302.367,243.964 301.648,242.987 300.931,241.973 300.215,240.919 299.501,239.826 298.787,238.69 298.074,237.487 297.362,236.201 296.65,234.835 295.939,233.388 295.227,232.847 294.515,232.565 293.802,232.262 293.089,231.946 292.375,231.61 291.66,231.262 290.943,230.897 290.225,230.516 289.505,230.129 288.783,229.723 288.058,229.305 287.331,228.871 286.602,228.422 285.869,227.963 285.133,227.491 284.394,227.004 283.65,226.505 282.903,225.99 282.151,225.464 281.395,224.924 280.634,224.367 279.868,223.798 279.096,223.216 278.318,222.615 277.534,222.001 276.744,221.374 275.947,220.728 275.143,220.071 274.331,219.395 273.511,218.7 272.682,217.998 271.845,217.274 270.999,216.528 270.143,215.773 269.276,214.996 268.399,214.197 267.511,213.389 266.611,212.557 265.7,211.703 264.778,210.848 263.845,209.979 262.901,209.104 261.946,208.242 260.981,207.385 260.006,206.513 259.02,205.643 258.024,204.778 257.018,203.916 256.002,203.05 254.976,202.183 253.941,201.319 252.896,200.46 251.842,199.611 250.778,198.744 249.706,197.881 248.624,197.03 247.534,196.186 246.435,195.344 245.328,194.488 244.212,193.642 243.088,192.801 241.955,191.965 240.815,191.144 239.666,190.305 238.51,189.473 237.347,188.651 236.175,187.842 234.997,187.039 233.811,186.22 232.618,185.414 231.418,184.618 230.212,183.829 228.998,183.049 227.778,182.264 226.552,181.491 225.319,180.731 224.081,179.989 222.836,179.266 221.585,178.537 220.329,177.829 219.067,177.148 217.799,176.495 216.526,175.867 215.248,175.24 213.965,174.644 212.677,174.079 211.384,173.544 210.086,173.041 208.784,172.561 207.477,172.108 206.166,171.689 204.851,171.31 203.532,170.978 202.209,170.661 200.882,170.38 199.551,170.143 198.217,169.96 196.88,169.811 195.54,169.691 194.196,169.62 192.849,169.597 191.5,169.625 190.148,169.705 188.794,169.807 187.437,169.956 186.077,170.156 184.715,170.408 183.351,170.713 181.985,171.04 180.616,171.422 179.245,171.859 177.872,172.349 176.497,172.878 175.119,173.436 173.738,174.043 172.356,174.695 170.97,175.396 169.582,176.132 168.191,176.885 166.797,177.686 165.401,178.529 164.001,179.402 162.599,180.289 161.193,181.215 159.784,182.181 158.372,183.177 156.957,184.178 155.538,185.217 154.116,186.29 152.691,187.395 151.262,188.494 149.829,189.623 148.393,190.783 146.953,192.17 145.509,193.676 144.062,195.18 142.611,196.673 141.156,198.175 139.696,199.627 138.233,201.086 136.766,202.539 135.294,203.978 133.818,205.391 132.338,206.804 130.854,208.22 129.365,209.595 127.872,210.971 126.374,212.341 124.872,213.706 123.364,215.036 121.853,216.369 120.333,217.704 118.799,219.005 117.251,220.302 115.689,221.568 114.113,222.811 112.526,224.012 110.926,225.187 109.316,226.322 107.695,227.429 106.064,228.501 104.424,229.539 102.776,230.549 101.119,231.526 99.4558,232.48 97.7856,233.402 96.1096,234.296 94.4284,235.16 92.7424,235.997 91.0524,236.808 89.3591,237.589 87.6632,238.347 85.9653,239.075 84.2659,239.781 82.5658,240.458 80.8656,241.108 79.1659,241.729 77.4673,242.322 75.7706,242.882 74.0764,243.329 72.3854,243.6 70.6982,243.859 69.0153,244.113 67.3376,244.355 65.6656,244.588 64,244.811 " />
</g>

<g fill="#ffffff" fill-opacity="1" stroke="none" transform="matrix(5e-05,0,0,5e-05,0,0)"
font-family="Helvetica" font-size="18" font-weight="400" font-style="normal" 
>
<path vector-effect="none" fill-rule="evenodd" d="M2.79e+06,370000 L2.79e+06,1.36e+06 L4.29e+06,1.36e+06 L4.29e+06,370000 L2.79e+06,370000"/>
</g>

<g fill="#f1a226" fill-opacity="1" stroke="#f1a226" stroke-opacity="1" stroke-width="4" stroke-linecap="butt" stroke-linejoin="round" transform="matrix(0.5,0,0,0.5,0,0)"
font-family="Helvetica" font-size="18" font-weight="400" font-style="normal" 
>
<polyline fill="none" vector-effect="none" points="285.02,49 345.221,49 " />
</g>

<g fill="#f1c285" fill-opacity="1" stroke="#f1c285" stroke-opacity="1" stroke-width="4" stroke-linecap="butt" stroke-linejoin="round" transform="matrix(0.5,0,0,0.5,0,0)"
font-family="Helvetica" font-size="18" font-weight="400" font-style="normal" 
>
<polyline fill="none" vector-effect="none" points="285.02,67.75 345.221,67.75 " />
</g>

<g fill="#298c8c" fill-opacity="1" stroke="#298c8c" stroke-opacity="1" stroke-width="4" stroke-linecap="butt" stroke-linejoin="round" transform="matrix(0.5,0,0,0.5,0,0)"
font-family="Helvetica" font-size="18" font-weight="400" font-style="normal" 
>
<polyline fill="none" vector-effect="none" points="285.02,86.5 345.221,86.5 " />
</g>

<g fill="#5bb5b7" fill-opacity="1" stroke="#5bb5b7" stroke-opacity="1" stroke-width="4" stroke-linecap="butt" stroke-linejoin="round" transform="matrix(0.5,0,0,0.5,0,0)"
font-family="Helvetica" font-size="18" font-weight="400" font-style="normal" 
>
<polyline fill="none" vector-effect="none" points="285.02,105.25 345.221,105.25 " />
</g>

<g fill="#3594cc" fill-opacity="1" stroke="#3594cc" stroke-opacity="1" stroke-dasharray="4,4" stroke-dashoffset="0" stroke-width="4" stroke-linecap="butt" stroke-linejoin="round" transform="matrix(0.5,0,0,0.5,0,0)"
font-family="Helvetica" font-size="18" font-weight="400" font-style="normal" 
>
<polyline fill="none" vector-effect="none" points="285.02,124 345.221,124 " />
</g>

<g fill="#212121" fill-opacity="1" stroke="#212121" stroke-opacity="1" stroke-width="1" stroke-linecap="square" stroke-linejoin="bevel" transform="matrix(0.5,0,0,0.5,174.868,26.5)"
font-family="Helvetica" font-size="16" font-weight="400" font-style="normal" 
>
<text fill="#212121" fill-opacity="1" stroke="none" xml:space="preserve" x="0" y="0.3125" font-family="Helvetica" font-size="16" font-weight="400" font-style="normal" 
 >Si-St, Stor</text>
</g>

<g fill="#212121" fill-opacity="1" stroke="#212121" stroke-opacity="1" stroke-width="1" stroke-linecap="square" stroke-linejoin="bevel" transform="matrix(0.5,0,0,0.5,174.868,35.875)"
font-family="Helvetica" font-size="16" font-weight="400" font-style="normal" 
>
<text fill="#212121" fill-opacity="1" stroke="none" xml:space="preserve" x="0" y="0.3125" font-family="Helvetica" font-size="16" font-weight="400" font-style="normal" 
 >Si-St, Rel</text>
</g>

<g fill="#212121" fill-opacity="1" stroke="#212121" stroke-opacity="1" stroke-width="1" stroke-linecap="square" stroke-linejoin="bevel" transform="matrix(0.5,0,0,0.5,174.868,45.25)"
font-family="Helvetica" font-size="16" font-weight="400" font-style="normal" 
>
<text fill="#212121" fill-opacity="1" stroke="none" xml:space="preserve" x="0" y="0.3125" font-family="Helvetica" font-size="16" font-weight="400" font-style="normal" 
 >St-Si, Stor</text>
</g>

<g fill="#212121" fill-opacity="1" stroke="#212121" stroke-opacity="1" stroke-width="1" stroke-linecap="square" stroke-linejoin="bevel" transform="matrix(0.5,0,0,0.5,174.868,54.625)"
font-family="Helvetica" font-size="16" font-weight="400" font-style="normal" 
>
<text fill="#212121" fill-opacity="1" stroke="none" xml:space="preserve" x="0" y="0.3125" font-family="Helvetica" font-size="16" font-weight="400" font-style="normal" 
 >St-Si, Rel</text>
</g>

<g fill="#212121" fill-opacity="1" stroke="#212121" stroke-opacity="1" stroke-width="1" stroke-linecap="square" stroke-linejoin="bevel" transform="matrix(0.5,0,0,0.5,174.868,64)"
font-family="Helvetica" font-size="16" font-weight="400" font-style="normal" 
>
<text fill="#212121" fill-opacity="1" stroke="none" xml:space="preserve" x="0" y="0.3125" font-family="Helvetica" font-size="16" font-weight="400" font-style="normal" 
 >Predicted</text>
</g>

<g fill="none" stroke="#212121" stroke-opacity="1" stroke-width="1" stroke-linecap="butt" stroke-linejoin="miter" stroke-miterlimit="2" transform="matrix(0.5,0,0,0.5,0,0)"
font-family="Helvetica" font-size="16" font-weight="400" font-style="normal" 
>
<path vector-effect="none" fill-rule="evenodd" d="M279,136 L279,37 L429,37 L429,136 L279,136"/>
</g>
</g>
</svg>
