<?xml version="1.0" encoding="UTF-8" standalone="no"?>
<svg width="86.4306mm" height="56.0917mm"
 viewBox="0 0 245 159"
 xmlns="http://www.w3.org/2000/svg" xmlns:xlink="http://www.w3.org/1999/xlink"  version="1.2" baseProfile="tiny">
<title>Qt SVG Document</title>
<desc>MATLAB, The MathWorks, Inc. Version 25.1.0.2973910 R2025a Update 1</desc>
<defs>
</defs>
<g fill="none" stroke="black" stroke-width="1" fill-rule="evenodd" stroke-linecap="square" stroke-linejoin="bevel" >

<g fill="#ffffff" fill-opacity="1" stroke="none" transform="matrix(0.5,0,0,0.5,0,0)"
font-family=".AppleSystemUIFont" font-size="13" font-weight="400" font-style="normal" 
>
<path vector-effect="none" fill-rule="evenodd" d="M0,0 L491,0 L491,318 L0,318 L0,0"/>
</g>

<g fill="#ffffff" fill-opacity="1" stroke="none" transform="matrix(5e-05,0,0,5e-05,0,0)"
font-family=".AppleSystemUIFont" font-size="13" font-weight="400" font-style="normal" 
>
<path vector-effect="none" fill-rule="evenodd" d="M640000,240000 L640000,2.62e+06 L4.43e+06,2.62e+06 L4.43e+06,240000 L640000,240000"/>
</g>

<g fill="#212121" fill-opacity="1" stroke="#212121" stroke-opacity="1" stroke-width="1" stroke-linecap="square" stroke-linejoin="bevel" transform="matrix(0.5,0,0,0.5,40.5,153.8)"
font-family="Helvetica" font-size="24" font-weight="400" font-style="normal" 
>
<text fill="#212121" fill-opacity="1" stroke="none" xml:space="preserve" x="0" y="0.46875" font-family="Helvetica" font-size="24" font-weight="400" font-style="normal" 
 >Cable Stroke Displacement (cm)</text>
</g>

<g fill="#212121" fill-opacity="1" stroke="#212121" stroke-opacity="1" stroke-width="1" stroke-linecap="square" stroke-linejoin="round" transform="matrix(0.5,0,0,0.5,0,0)"
font-family="Helvetica" font-size="24" font-weight="400" font-style="normal" 
>
<polyline fill="none" vector-effect="none" points="64,262 443,262 " />
<polyline fill="none" vector-effect="none" points="64,24 443,24 " />
<polyline fill="none" vector-effect="none" points="64,262 64,258.21 " />
<polyline fill="none" vector-effect="none" points="64,27.79 64,24 " />
<polyline fill="none" vector-effect="none" points="184.009,262 184.009,258.21 " />
<polyline fill="none" vector-effect="none" points="184.009,27.79 184.009,24 " />
<polyline fill="none" vector-effect="none" points="304.017,262 304.017,258.21 " />
<polyline fill="none" vector-effect="none" points="304.017,27.79 304.017,24 " />
<polyline fill="none" vector-effect="none" points="424.026,262 424.026,258.21 " />
<polyline fill="none" vector-effect="none" points="424.026,27.79 424.026,24 " />
</g>

<g fill="#212121" fill-opacity="1" stroke="#212121" stroke-opacity="1" stroke-width="1" stroke-linecap="square" stroke-linejoin="bevel" transform="matrix(0.5,0,0,0.5,29.5,140.8)"
font-family="Helvetica" font-size="18" font-weight="400" font-style="normal" 
>
<text fill="#212121" fill-opacity="1" stroke="none" xml:space="preserve" x="0" y="-0.140625" font-family="Helvetica" font-size="18" font-weight="400" font-style="normal" 
 >0</text>
</g>

<g fill="#212121" fill-opacity="1" stroke="#212121" stroke-opacity="1" stroke-width="1" stroke-linecap="square" stroke-linejoin="bevel" transform="matrix(0.5,0,0,0.5,89.5043,140.8)"
font-family="Helvetica" font-size="18" font-weight="400" font-style="normal" 
>
<text fill="#212121" fill-opacity="1" stroke="none" xml:space="preserve" x="0" y="-0.140625" font-family="Helvetica" font-size="18" font-weight="400" font-style="normal" 
 >2</text>
</g>

<g fill="#212121" fill-opacity="1" stroke="#212121" stroke-opacity="1" stroke-width="1" stroke-linecap="square" stroke-linejoin="bevel" transform="matrix(0.5,0,0,0.5,149.509,140.8)"
font-family="Helvetica" font-size="18" font-weight="400" font-style="normal" 
>
<text fill="#212121" fill-opacity="1" stroke="none" xml:space="preserve" x="0" y="-0.140625" font-family="Helvetica" font-size="18" font-weight="400" font-style="normal" 
 >4</text>
</g>

<g fill="#212121" fill-opacity="1" stroke="#212121" stroke-opacity="1" stroke-width="1" stroke-linecap="square" stroke-linejoin="bevel" transform="matrix(0.5,0,0,0.5,209.513,140.8)"
font-family="Helvetica" font-size="18" font-weight="400" font-style="normal" 
>
<text fill="#212121" fill-opacity="1" stroke="none" xml:space="preserve" x="0" y="-0.140625" font-family="Helvetica" font-size="18" font-weight="400" font-style="normal" 
 >6</text>
</g>

<g fill="#212121" fill-opacity="1" stroke="#212121" stroke-opacity="1" stroke-width="1" stroke-linecap="square" stroke-linejoin="bevel" transform="matrix(0,-0.5,0.5,0,13.7,119.5)"
font-family="Helvetica" font-size="24" font-weight="400" font-style="normal" 
>
<text fill="#212121" fill-opacity="1" stroke="none" xml:space="preserve" x="0" y="0.46875" font-family="Helvetica" font-size="24" font-weight="400" font-style="normal" 
 >Cable Tension (N)</text>
</g>

<g fill="#212121" fill-opacity="1" stroke="#212121" stroke-opacity="1" stroke-width="1" stroke-linecap="square" stroke-linejoin="round" transform="matrix(0.5,0,0,0.5,0,0)"
font-family="Helvetica" font-size="24" font-weight="400" font-style="normal" 
>
<polyline fill="none" vector-effect="none" points="64,262 64,24 " />
<polyline fill="none" vector-effect="none" points="443,262 443,24 " />
<polyline fill="none" vector-effect="none" points="64,262 67.79,262 " />
<polyline fill="none" vector-effect="none" points="439.21,262 443,262 " />
<polyline fill="none" vector-effect="none" points="64,222.333 67.79,222.333 " />
<polyline fill="none" vector-effect="none" points="439.21,222.333 443,222.333 " />
<polyline fill="none" vector-effect="none" points="64,182.667 67.79,182.667 " />
<polyline fill="none" vector-effect="none" points="439.21,182.667 443,182.667 " />
<polyline fill="none" vector-effect="none" points="64,143 67.79,143 " />
<polyline fill="none" vector-effect="none" points="439.21,143 443,143 " />
<polyline fill="none" vector-effect="none" points="64,103.333 67.79,103.333 " />
<polyline fill="none" vector-effect="none" points="439.21,103.333 443,103.333 " />
<polyline fill="none" vector-effect="none" points="64,63.6667 67.79,63.6667 " />
<polyline fill="none" vector-effect="none" points="439.21,63.6667 443,63.6667 " />
<polyline fill="none" vector-effect="none" points="64,24 67.79,24 " />
<polyline fill="none" vector-effect="none" points="439.21,24 443,24 " />
</g>

<g fill="#212121" fill-opacity="1" stroke="#212121" stroke-opacity="1" stroke-width="1" stroke-linecap="square" stroke-linejoin="bevel" transform="matrix(0.5,0,0,0.5,24.2,133.5)"
font-family="Helvetica" font-size="18" font-weight="400" font-style="normal" 
>
<text fill="#212121" fill-opacity="1" stroke="none" xml:space="preserve" x="0" y="-0.140625" font-family="Helvetica" font-size="18" font-weight="400" font-style="normal" 
 >0</text>
</g>

<g fill="#212121" fill-opacity="1" stroke="#212121" stroke-opacity="1" stroke-width="1" stroke-linecap="square" stroke-linejoin="bevel" transform="matrix(0.5,0,0,0.5,19.2,113.667)"
font-family="Helvetica" font-size="18" font-weight="400" font-style="normal" 
>
<text fill="#212121" fill-opacity="1" stroke="none" xml:space="preserve" x="0" y="-0.140625" font-family="Helvetica" font-size="18" font-weight="400" font-style="normal" 
 >10</text>
</g>

<g fill="#212121" fill-opacity="1" stroke="#212121" stroke-opacity="1" stroke-width="1" stroke-linecap="square" stroke-linejoin="bevel" transform="matrix(0.5,0,0,0.5,19.2,93.8333)"
font-family="Helvetica" font-size="18" font-weight="400" font-style="normal" 
>
<text fill="#212121" fill-opacity="1" stroke="none" xml:space="preserve" x="0" y="-0.140625" font-family="Helvetica" font-size="18" font-weight="400" font-style="normal" 
 >20</text>
</g>

<g fill="#212121" fill-opacity="1" stroke="#212121" stroke-opacity="1" stroke-width="1" stroke-linecap="square" stroke-linejoin="bevel" transform="matrix(0.5,0,0,0.5,19.2,74)"
font-family="Helvetica" font-size="18" font-weight="400" font-style="normal" 
>
<text fill="#212121" fill-opacity="1" stroke="none" xml:space="preserve" x="0" y="-0.140625" font-family="Helvetica" font-size="18" font-weight="400" font-style="normal" 
 >30</text>
</g>

<g fill="#212121" fill-opacity="1" stroke="#212121" stroke-opacity="1" stroke-width="1" stroke-linecap="square" stroke-linejoin="bevel" transform="matrix(0.5,0,0,0.5,19.2,54.1667)"
font-family="Helvetica" font-size="18" font-weight="400" font-style="normal" 
>
<text fill="#212121" fill-opacity="1" stroke="none" xml:space="preserve" x="0" y="-0.140625" font-family="Helvetica" font-size="18" font-weight="400" font-style="normal" 
 >40</text>
</g>

<g fill="#212121" fill-opacity="1" stroke="#212121" stroke-opacity="1" stroke-width="1" stroke-linecap="square" stroke-linejoin="bevel" transform="matrix(0.5,0,0,0.5,19.2,34.3333)"
font-family="Helvetica" font-size="18" font-weight="400" font-style="normal" 
>
<text fill="#212121" fill-opacity="1" stroke="none" xml:space="preserve" x="0" y="-0.140625" font-family="Helvetica" font-size="18" font-weight="400" font-style="normal" 
 >50</text>
</g>

<g fill="#212121" fill-opacity="1" stroke="#212121" stroke-opacity="1" stroke-width="1" stroke-linecap="square" stroke-linejoin="bevel" transform="matrix(0.5,0,0,0.5,19.2,14.5)"
font-family="Helvetica" font-size="18" font-weight="400" font-style="normal" 
>
<text fill="#212121" fill-opacity="1" stroke="none" xml:space="preserve" x="0" y="-0.140625" font-family="Helvetica" font-size="18" font-weight="400" font-style="normal" 
 >60</text>
</g>

<g fill="none" stroke="#298c8c" stroke-opacity="1" stroke-dasharray="4,4" stroke-dashoffset="0" stroke-width="4" stroke-linecap="butt" stroke-linejoin="round" transform="matrix(0.5,0,0,0.5,0,0)"
font-family="Helvetica" font-size="18" font-weight="400" font-style="normal" 
>
<polyline fill="none" vector-effect="none" points="443,261.763 440.872,261.524 438.791,261.287 436.756,261.049 434.766,260.813 432.821,260.576 430.919,260.34 429.06,260.104 427.244,259.868 425.469,259.633 423.735,259.397 422.041,259.161 420.386,258.919 418.769,258.666 417.191,258.409 415.649,258.148 414.144,257.882 412.672,257.611 411.233,257.335 409.824,257.054 408.444,256.767 407.092,256.473 405.764,256.173 404.462,255.866 403.182,255.55 401.924,255.227 400.687,254.895 399.47,254.555 398.272,254.204 397.092,253.843 395.928,253.472 394.781,253.089 393.649,252.694 392.532,252.286 391.428,251.865 390.338,251.429 389.261,250.978 388.195,250.51 387.141,250.024 386.098,249.52 385.065,248.997 384.042,248.452 383.029,247.885 382.024,247.293 381.028,246.676 380.039,246.031 379.059,245.356 378.085,244.65 377.118,243.909 376.158,243.132 375.203,242.315 374.254,241.456 373.31,240.55 372.372,239.609 371.438,238.63 370.508,237.614 369.582,236.559 368.66,235.464 367.741,234.326 366.825,233.145 365.912,231.917 365.001,230.641 364.092,229.317 363.186,227.941 362.281,226.514 361.377,225.03 360.474,223.459 359.572,221.78 358.671,219.996 357.769,218.106 356.868,217.399 355.966,217.032 355.064,216.635 354.16,216.224 353.256,215.784 352.35,215.33 351.442,214.853 350.532,214.356 349.62,213.85 348.706,213.321 347.788,212.774 346.867,212.207 345.943,211.621 345.015,211.022 344.083,210.406 343.146,209.769 342.205,209.118 341.258,208.446 340.306,207.758 339.349,207.054 338.385,206.326 337.414,205.583 336.436,204.822 335.451,204.038 334.459,203.236 333.458,202.417 332.448,201.573 331.429,200.715 330.401,199.832 329.362,198.925 328.313,198.008 327.253,197.063 326.181,196.088 325.097,195.102 323.999,194.088 322.888,193.044 321.763,191.989 320.623,190.903 319.469,189.787 318.302,188.672 317.12,187.536 315.924,186.394 314.715,185.268 313.493,184.149 312.257,183.01 311.008,181.875 309.747,180.744 308.473,179.619 307.186,178.487 305.887,177.356 304.575,176.227 303.252,175.105 301.917,173.997 300.57,172.864 299.212,171.738 297.842,170.626 296.461,169.524 295.069,168.424 293.666,167.306 292.253,166.202 290.829,165.103 289.395,164.012 287.95,162.939 286.496,161.845 285.032,160.758 283.558,159.684 282.074,158.627 280.581,157.579 279.079,156.509 277.569,155.457 276.049,154.417 274.521,153.388 272.984,152.368 271.439,151.344 269.885,150.334 268.324,149.341 266.755,148.372 265.179,147.428 263.595,146.476 262.003,145.552 260.405,144.662 258.799,143.81 257.187,142.99 255.568,142.171 253.943,141.393 252.311,140.655 250.674,139.957 249.03,139.3 247.38,138.673 245.725,138.08 244.065,137.534 242.399,137.038 240.728,136.605 239.053,136.19 237.372,135.824 235.687,135.515 233.997,135.275 232.303,135.081 230.606,134.924 228.904,134.831 227.198,134.802 225.489,134.838 223.777,134.943 222.061,135.076 220.342,135.27 218.621,135.532 216.896,135.86 215.168,136.259 213.437,136.687 211.704,137.185 209.967,137.755 208.228,138.396 206.486,139.087 204.741,139.815 202.993,140.607 201.241,141.46 199.487,142.374 197.728,143.335 195.967,144.319 194.201,145.366 192.432,146.466 190.66,147.606 188.883,148.765 187.103,149.974 185.318,151.235 183.53,152.535 181.737,153.844 179.941,155.2 178.139,156.601 176.334,158.044 174.524,159.479 172.71,160.953 170.891,162.468 169.067,164.28 167.238,166.246 165.405,168.21 163.567,170.16 161.724,172.122 159.876,174.018 158.022,175.923 156.164,177.821 154.3,179.699 152.431,181.545 150.556,183.391 148.676,185.24 146.79,187.035 144.899,188.832 143.002,190.62 141.099,192.403 139.19,194.141 137.275,195.881 135.351,197.625 133.408,199.323 131.447,201.017 129.468,202.671 127.473,204.293 125.462,205.862 123.436,207.396 121.396,208.879 119.343,210.324 117.278,211.725 115.201,213.08 113.113,214.399 111.015,215.674 108.908,216.921 106.792,218.124 104.669,219.291 102.54,220.421 100.405,221.513 98.2641,222.572 96.1194,223.592 93.9714,224.582 91.8208,225.533 89.6685,226.455 87.5151,227.339 85.3616,228.188 83.2088,228.998 81.0575,229.773 78.9085,230.504 76.7626,231.088 74.6208,231.442 72.4838,231.78 70.3523,232.111 68.2274,232.428 66.1096,232.733 64,233.024 " />
</g>

<g fill="none" stroke="#f1a226" stroke-opacity="1" stroke-dasharray="4,4" stroke-dashoffset="0" stroke-width="4" stroke-linecap="butt" stroke-linejoin="round" transform="matrix(0.5,0,0,0.5,0,0)"
font-family="Helvetica" font-size="18" font-weight="400" font-style="normal" 
>
<polyline fill="none" vector-effect="none" points="437.157,261.764 434.965,261.529 432.771,261.294 430.575,261.06 428.381,260.826 426.185,260.595 423.989,260.365 421.793,260.137 419.596,259.91 417.399,259.685 415.202,259.462 413.006,259.24 410.811,259.014 408.617,258.781 406.424,258.545 404.234,258.309 402.045,258.07 399.86,257.83 397.676,257.589 395.496,257.345 393.32,257.1 391.147,256.853 388.978,256.604 386.814,256.352 384.654,256.098 382.499,255.842 380.349,255.583 378.205,255.322 376.066,255.058 373.934,254.791 371.808,254.522 369.689,254.25 367.577,253.974 365.472,253.696 363.376,253.415 361.287,253.129 359.206,252.841 357.134,252.549 355.071,252.253 353.017,251.953 350.972,251.65 348.938,251.342 346.913,251.03 344.899,250.714 342.896,250.393 340.903,250.068 338.922,249.738 336.953,249.403 334.996,249.063 333.051,248.718 331.118,248.367 329.199,248.011 327.292,247.65 325.399,247.282 323.52,246.909 321.655,246.529 319.805,246.141 317.969,245.749 316.148,245.349 314.342,244.942 312.552,244.529 310.778,244.107 309.02,243.677 307.279,243.241 305.555,242.796 303.847,242.341 302.158,241.864 300.486,241.352 298.832,240.81 297.197,240.24 295.58,239.641 293.982,239.019 292.403,238.368 290.844,237.689 289.305,236.986 287.787,236.253 286.289,235.49 284.811,234.701 283.355,233.879 281.92,233.027 280.507,232.144 279.116,231.224 277.747,230.274 276.401,229.284 275.078,228.259 273.778,227.197 272.502,226.09 271.25,224.946 270.022,223.757 268.818,222.523 267.64,221.241 266.486,219.907 265.356,218.529 264.248,217.094 263.162,215.602 262.096,214.055 261.05,212.444 260.022,210.777 259.011,209.037 258.016,207.232 257.038,205.359 256.074,203.405 255.124,201.378 254.188,199.265 253.264,197.072 252.353,194.783 251.453,192.405 250.564,189.934 249.686,187.347 248.818,184.681 247.959,181.901 247.109,179.047 246.268,176.1 245.436,173.074 244.61,169.931 243.793,166.681 242.982,163.35 242.178,159.902 241.38,156.348 240.588,152.642 239.802,148.847 239.021,144.913 238.245,140.875 237.474,136.667 236.708,132.32 235.945,127.849 235.186,123.215 234.431,118.439 233.679,113.445 232.931,108.317 232.185,102.985 231.442,97.5181 230.701,91.8195 229.962,85.9161 229.225,79.7817 228.49,73.4588 227.756,66.8943 227.023,60.115 226.291,52.9997 225.56,45.652 224.83,38.0226 224.099,30.1264 223.369,24.6048 222.639,26.6262 221.908,28.7331 221.177,30.8741 220.444,33.0603 219.711,35.2954 218.977,37.5201 218.24,39.7946 217.503,42.1196 216.763,44.4938 216.021,46.9136 215.276,49.3446 214.529,51.8158 213.779,54.3426 213.025,56.8837 212.268,59.4228 211.508,61.9197 210.743,64.3919 209.974,66.829 209.201,69.3066 208.423,71.728 207.639,74.1579 206.85,76.5422 206.055,78.9518 205.255,81.3651 204.447,83.752 203.633,86.1412 202.812,88.4988 201.983,90.9177 201.146,93.3028 200.3,95.7197 199.446,98.0799 198.583,100.436 197.71,102.81 196.826,105.159 195.932,107.545 195.027,109.85 194.109,112.179 193.179,114.498 192.237,116.815 191.28,119.124 190.309,121.376 189.322,123.66 188.32,125.917 187.3,128.191 186.263,130.44 185.207,132.648 184.131,134.863 183.035,137.059 181.916,139.262 180.774,141.403 179.607,143.561 178.415,145.704 177.197,147.842 175.951,149.933 174.679,152.017 173.379,154.108 172.05,156.18 170.693,158.218 169.306,160.237 167.89,162.262 166.443,164.28 164.965,166.246 163.456,168.21 161.916,170.16 160.344,172.122 158.741,174.018 157.109,175.923 155.448,177.821 153.759,179.699 152.043,181.545 150.3,183.391 148.532,185.24 146.739,187.035 144.922,188.832 143.082,190.62 141.22,192.39 139.336,194.129 137.432,195.881 135.507,197.625 133.564,199.323 131.603,201.017 129.624,202.671 127.629,204.293 125.618,205.862 123.592,207.396 121.553,208.879 119.5,210.324 117.434,211.725 115.357,213.08 113.269,214.399 111.173,215.674 109.066,216.921 106.951,218.124 104.828,219.291 102.699,220.421 100.563,221.513 98.4228,222.572 96.2782,223.592 94.1302,224.582 91.9796,225.533 89.8272,226.455 87.6739,227.339 85.5204,228.188 83.3676,228.998 81.2163,229.772 79.0663,230.503 76.917,231.088 74.7679,231.487 72.6181,231.941 70.4671,232.385 68.3142,232.819 66.1587,233.239 64,233.647 " />
</g>

<g fill="#ffffff" fill-opacity="1" stroke="none" transform="matrix(5e-05,0,0,5e-05,0,0)"
font-family="Helvetica" font-size="18" font-weight="400" font-style="normal" 
>
<path vector-effect="none" fill-rule="evenodd" d="M2.29e+06,370000 L2.29e+06,850000 L4.29e+06,850000 L4.29e+06,370000 L2.29e+06,370000"/>
</g>

<g fill="#298c8c" fill-opacity="1" stroke="#298c8c" stroke-opacity="1" stroke-dasharray="4,4" stroke-dashoffset="0" stroke-width="4" stroke-linecap="butt" stroke-linejoin="round" transform="matrix(0.5,0,0,0.5,0,0)"
font-family="Helvetica" font-size="18" font-weight="400" font-style="normal" 
>
<polyline fill="none" vector-effect="none" points="235.015,50.2923 295.165,50.2923 " />
</g>

<g fill="#f1a226" fill-opacity="1" stroke="#f1a226" stroke-opacity="1" stroke-dasharray="4,4" stroke-dashoffset="0" stroke-width="4" stroke-linecap="butt" stroke-linejoin="round" transform="matrix(0.5,0,0,0.5,0,0)"
font-family="Helvetica" font-size="18" font-weight="400" font-style="normal" 
>
<polyline fill="none" vector-effect="none" points="235.015,71.7077 295.165,71.7077 " />
</g>

<g fill="#212121" fill-opacity="1" stroke="#212121" stroke-opacity="1" stroke-width="1" stroke-linecap="square" stroke-linejoin="bevel" transform="matrix(0.5,0,0,0.5,149.838,27.6462)"
font-family="Helvetica" font-size="18" font-weight="400" font-style="normal" 
>
<text fill="#212121" fill-opacity="1" stroke="none" xml:space="preserve" x="0" y="-0.140625" font-family="Helvetica" font-size="18" font-weight="400" font-style="normal" 
 >St-Si (Storage)</text>
</g>

<g fill="#212121" fill-opacity="1" stroke="#212121" stroke-opacity="1" stroke-width="1" stroke-linecap="square" stroke-linejoin="bevel" transform="matrix(0.5,0,0,0.5,149.838,38.3538)"
font-family="Helvetica" font-size="18" font-weight="400" font-style="normal" 
>
<text fill="#212121" fill-opacity="1" stroke="none" xml:space="preserve" x="0" y="-0.140625" font-family="Helvetica" font-size="18" font-weight="400" font-style="normal" 
 >Si-St (Release)</text>
</g>

<g fill="none" stroke="#212121" stroke-opacity="1" stroke-width="1" stroke-linecap="butt" stroke-linejoin="miter" stroke-miterlimit="2" transform="matrix(0.5,0,0,0.5,0,0)"
font-family="Helvetica" font-size="18" font-weight="400" font-style="normal" 
>
<path vector-effect="none" fill-rule="evenodd" d="M229,85 L229,37 L429,37 L429,85 L229,85"/>
</g>
</g>
</svg>
