<?xml version="1.0" encoding="UTF-8" standalone="no"?>
<svg width="86.4306mm" height="59.6194mm"
 viewBox="0 0 245 169"
 xmlns="http://www.w3.org/2000/svg" xmlns:xlink="http://www.w3.org/1999/xlink"  version="1.2" baseProfile="tiny">
<title>Qt SVG Document</title>
<desc>MATLAB, The MathWorks, Inc. Version 25.1.0.2973910 R2025a Update 1</desc>
<defs>
</defs>
<g fill="none" stroke="black" stroke-width="1" fill-rule="evenodd" stroke-linecap="square" stroke-linejoin="bevel" >

<g fill="#ffffff" fill-opacity="1" stroke="none" transform="matrix(0.501036,0,0,0.500544,-6.71699,-8.01034)"
font-family=".AppleSystemUIFont" font-size="13" font-weight="400" font-style="normal" 
>
<path vector-effect="none" fill-rule="evenodd" d="M12,15 L502,15 L502,353 L12,353 L12,15"/>
</g>

<g fill="#ffffff" fill-opacity="1" stroke="none" transform="matrix(5.01036e-05,0,0,5.00544e-05,-6.71699,-8.01034)"
font-family=".AppleSystemUIFont" font-size="13" font-weight="400" font-style="normal" 
>
<path vector-effect="none" fill-rule="evenodd" d="M710000,270000 L710000,2.99e+06 L4.95e+06,2.99e+06 L4.95e+06,270000 L710000,270000"/>
</g>

<g fill="#212121" fill-opacity="1" stroke="#212121" stroke-opacity="1" stroke-width="1" stroke-linecap="square" stroke-linejoin="bevel" transform="matrix(0.501036,0,0,0.500544,61.6744,164.477)"
font-family="Helvetica" font-size="24" font-weight="400" font-style="normal" 
>
<text fill="#212121" fill-opacity="1" stroke="none" xml:space="preserve" x="0" y="0.46875" font-family="Helvetica" font-size="24" font-weight="400" font-style="normal" 
 >Cable Stroke Distance (cm)</text>
</g>

<g fill="#212121" fill-opacity="1" stroke="#212121" stroke-opacity="1" stroke-width="1" stroke-linecap="square" stroke-linejoin="round" transform="matrix(0.501036,0,0,0.500544,-6.71699,-8.01034)"
font-family="Helvetica" font-size="24" font-weight="400" font-style="normal" 
>
<polyline fill="none" vector-effect="none" points="71,299 495,299 " />
<polyline fill="none" vector-effect="none" points="71,27 495,27 " />
<polyline fill="none" vector-effect="none" points="71.191,299 71.191,294.76 " />
<polyline fill="none" vector-effect="none" points="71.191,31.24 71.191,27 " />
<polyline fill="none" vector-effect="none" points="177.143,299 177.143,294.76 " />
<polyline fill="none" vector-effect="none" points="177.143,31.24 177.143,27 " />
<polyline fill="none" vector-effect="none" points="283.095,299 283.095,294.76 " />
<polyline fill="none" vector-effect="none" points="283.095,31.24 283.095,27 " />
<polyline fill="none" vector-effect="none" points="389.048,299 389.048,294.76 " />
<polyline fill="none" vector-effect="none" points="389.048,31.24 389.048,27 " />
<polyline fill="none" vector-effect="none" points="495,299 495,294.76 " />
<polyline fill="none" vector-effect="none" points="495,31.24 495,27 " />
</g>

<g fill="#212121" fill-opacity="1" stroke="#212121" stroke-opacity="1" stroke-width="1" stroke-linecap="square" stroke-linejoin="bevel" transform="matrix(0.501036,0,0,0.500544,26.4471,151.463)"
font-family="Helvetica" font-size="18" font-weight="400" font-style="normal" 
>
<text fill="#212121" fill-opacity="1" stroke="none" xml:space="preserve" x="0" y="-0.140625" font-family="Helvetica" font-size="18" font-weight="400" font-style="normal" 
 >0</text>
</g>

<g fill="#212121" fill-opacity="1" stroke="#212121" stroke-opacity="1" stroke-width="1" stroke-linecap="square" stroke-linejoin="bevel" transform="matrix(0.501036,0,0,0.500544,79.533,151.463)"
font-family="Helvetica" font-size="18" font-weight="400" font-style="normal" 
>
<text fill="#212121" fill-opacity="1" stroke="none" xml:space="preserve" x="0" y="-0.140625" font-family="Helvetica" font-size="18" font-weight="400" font-style="normal" 
 >2</text>
</g>

<g fill="#212121" fill-opacity="1" stroke="#212121" stroke-opacity="1" stroke-width="1" stroke-linecap="square" stroke-linejoin="bevel" transform="matrix(0.501036,0,0,0.500544,132.619,151.463)"
font-family="Helvetica" font-size="18" font-weight="400" font-style="normal" 
>
<text fill="#212121" fill-opacity="1" stroke="none" xml:space="preserve" x="0" y="-0.140625" font-family="Helvetica" font-size="18" font-weight="400" font-style="normal" 
 >4</text>
</g>

<g fill="#212121" fill-opacity="1" stroke="#212121" stroke-opacity="1" stroke-width="1" stroke-linecap="square" stroke-linejoin="bevel" transform="matrix(0.501036,0,0,0.500544,185.705,151.463)"
font-family="Helvetica" font-size="18" font-weight="400" font-style="normal" 
>
<text fill="#212121" fill-opacity="1" stroke="none" xml:space="preserve" x="0" y="-0.140625" font-family="Helvetica" font-size="18" font-weight="400" font-style="normal" 
 >6</text>
</g>

<g fill="#212121" fill-opacity="1" stroke="#212121" stroke-opacity="1" stroke-width="1" stroke-linecap="square" stroke-linejoin="bevel" transform="matrix(0.501036,0,0,0.500544,238.791,151.463)"
font-family="Helvetica" font-size="18" font-weight="400" font-style="normal" 
>
<text fill="#212121" fill-opacity="1" stroke="none" xml:space="preserve" x="0" y="-0.140625" font-family="Helvetica" font-size="18" font-weight="400" font-style="normal" 
 >8</text>
</g>

<g fill="#212121" fill-opacity="1" stroke="#212121" stroke-opacity="1" stroke-width="1" stroke-linecap="square" stroke-linejoin="bevel" transform="matrix(0,-0.500544,0.501036,0,10.5186,121.631)"
font-family="Helvetica" font-size="24" font-weight="400" font-style="normal" 
>
<text fill="#212121" fill-opacity="1" stroke="none" xml:space="preserve" x="0" y="0.46875" font-family="Helvetica" font-size="24" font-weight="400" font-style="normal" 
 >Cable Tension (N)</text>
</g>

<g fill="#212121" fill-opacity="1" stroke="#212121" stroke-opacity="1" stroke-width="1" stroke-linecap="square" stroke-linejoin="round" transform="matrix(0.501036,0,0,0.500544,-6.71699,-8.01034)"
font-family="Helvetica" font-size="24" font-weight="400" font-style="normal" 
>
<polyline fill="none" vector-effect="none" points="71,299 71,27 " />
<polyline fill="none" vector-effect="none" points="495,299 495,27 " />
<polyline fill="none" vector-effect="none" points="71,299 75.24,299 " />
<polyline fill="none" vector-effect="none" points="490.76,299 495,299 " />
<polyline fill="none" vector-effect="none" points="71,231 75.24,231 " />
<polyline fill="none" vector-effect="none" points="490.76,231 495,231 " />
<polyline fill="none" vector-effect="none" points="71,163 75.24,163 " />
<polyline fill="none" vector-effect="none" points="490.76,163 495,163 " />
<polyline fill="none" vector-effect="none" points="71,95 75.24,95 " />
<polyline fill="none" vector-effect="none" points="490.76,95 495,95 " />
<polyline fill="none" vector-effect="none" points="71,27 75.24,27 " />
<polyline fill="none" vector-effect="none" points="490.76,27 495,27 " />
</g>

<g fill="#212121" fill-opacity="1" stroke="#212121" stroke-opacity="1" stroke-width="1" stroke-linecap="square" stroke-linejoin="bevel" transform="matrix(0.501036,0,0,0.500544,21.0404,144.155)"
font-family="Helvetica" font-size="18" font-weight="400" font-style="normal" 
>
<text fill="#212121" fill-opacity="1" stroke="none" xml:space="preserve" x="0" y="-0.140625" font-family="Helvetica" font-size="18" font-weight="400" font-style="normal" 
 >0</text>
</g>

<g fill="#212121" fill-opacity="1" stroke="#212121" stroke-opacity="1" stroke-width="1" stroke-linecap="square" stroke-linejoin="bevel" transform="matrix(0.501036,0,0,0.500544,16.03,110.118)"
font-family="Helvetica" font-size="18" font-weight="400" font-style="normal" 
>
<text fill="#212121" fill-opacity="1" stroke="none" xml:space="preserve" x="0" y="-0.140625" font-family="Helvetica" font-size="18" font-weight="400" font-style="normal" 
 >20</text>
</g>

<g fill="#212121" fill-opacity="1" stroke="#212121" stroke-opacity="1" stroke-width="1" stroke-linecap="square" stroke-linejoin="bevel" transform="matrix(0.501036,0,0,0.500544,16.03,76.0811)"
font-family="Helvetica" font-size="18" font-weight="400" font-style="normal" 
>
<text fill="#212121" fill-opacity="1" stroke="none" xml:space="preserve" x="0" y="-0.140625" font-family="Helvetica" font-size="18" font-weight="400" font-style="normal" 
 >40</text>
</g>

<g fill="#212121" fill-opacity="1" stroke="#212121" stroke-opacity="1" stroke-width="1" stroke-linecap="square" stroke-linejoin="bevel" transform="matrix(0.501036,0,0,0.500544,16.03,42.0441)"
font-family="Helvetica" font-size="18" font-weight="400" font-style="normal" 
>
<text fill="#212121" fill-opacity="1" stroke="none" xml:space="preserve" x="0" y="-0.140625" font-family="Helvetica" font-size="18" font-weight="400" font-style="normal" 
 >60</text>
</g>

<g fill="#212121" fill-opacity="1" stroke="#212121" stroke-opacity="1" stroke-width="1" stroke-linecap="square" stroke-linejoin="bevel" transform="matrix(0.501036,0,0,0.500544,16.03,8.00708)"
font-family="Helvetica" font-size="18" font-weight="400" font-style="normal" 
>
<text fill="#212121" fill-opacity="1" stroke="none" xml:space="preserve" x="0" y="-0.140625" font-family="Helvetica" font-size="18" font-weight="400" font-style="normal" 
 >80</text>
</g>

<g fill="none" stroke="#298c8c" stroke-opacity="1" stroke-width="4" stroke-linecap="butt" stroke-linejoin="round" transform="matrix(0.501036,0,0,0.500544,-6.71699,-8.01034)"
font-family="Helvetica" font-size="18" font-weight="400" font-style="normal" 
>
<polyline fill="none" vector-effect="none" points="434.482,281.855 434.482,281.785 434.482,281.969 434.452,281.573 434.453,281.846 434.481,281.887 434.448,281.69 434.442,281.783 434.428,281.935 434.423,281.769 434.396,281.745 434.337,281.843 434.288,281.703 434.226,281.598 434.09,281.587 433.931,282.024 433.699,281.666 433.451,281.682 433.146,281.77 432.936,282.08 432.82,281.68 432.257,281.701 431.828,281.735 431.519,281.746 431.085,281.658 430.733,281.455 430.314,281.833 429.923,281.107 429.514,281.421 429.11,281.659 428.703,281.316 428.321,281.242 427.913,281.619 427.515,281.821 427.157,281.396 426.768,281.026 426.35,281.234 425.895,281.238 425.425,281.66 424.979,281.19 424.49,281.305 424.015,281.119 423.526,280.745 423.045,281.334 422.537,280.594 422.027,280.538 421.488,280.672 420.855,280.081 420.187,280.157 419.537,280.433 418.902,280.034 418.242,280.712 417.53,279.381 416.773,279.551 415.978,279.423 415.279,278.964 414.51,279.339 413.899,278.164 413.277,278.741 412.298,278.548 411.456,278.91 410.871,279.754 410.118,280.472 409.383,279.65 408.616,280.468 407.797,279.685 407.045,279.998 406.242,279.272 405.384,279.298 404.493,279.169 403.628,280.171 402.761,279.764 401.852,280.017 400.935,279.419 400.004,279.466 399.193,279.73 398.382,279.683 397.248,279.487 396.259,278.808 395.488,279.715 394.601,279.062 393.666,279.108 392.769,279.637 391.75,279.165 390.745,279.608 389.722,279.654 388.656,279.025 387.557,279.077 386.547,278.86 385.625,279.593 384.734,278.555 383.313,278.611 382.088,278.672 380.959,278.717 379.678,277.692 378.44,278.154 377.194,278.446 375.879,278.893 374.603,278.78 373.364,279.117 372.191,277.522 370.991,278.107 369.589,278.203 368.257,277.794 367.189,277.508 366.061,278.079 364.829,277.812 363.624,278.455 362.405,278.144 361.269,278.293 360.204,278.236 358.693,277.347 357.323,277.302 356.206,277.797 354.896,276.612 353.541,276.918 352.233,277.548 350.976,278.117 349.771,276.6 348.153,277.752 346.681,276.91 345.392,277.612 343.976,277.47 342.531,277.353 341.067,276.49 339.747,277.861 338.484,277.521 336.777,276.675 335.226,277.139 333.909,277.06 332.441,276.293 330.994,276.472 329.683,275.914 328.308,275.894 326.584,275.944 325.043,275.713 323.563,275.379 321.945,274.582 320.451,275.799 318.928,275.495 317.155,274.35 315.439,275.186 313.844,274.77 312.204,273.849 310.753,274.66 309.26,273.479 307.409,272.64 305.658,274.07 304.349,273.62 302.831,272.47 301.384,273.576 300.114,272.173 298.421,272.223 296.882,272.324 295.586,271.414 294.099,271.139 292.752,270.748 291.355,270.768 289.553,270.317 287.854,269.721 286.356,269.585 284.878,268.635 283.355,267.669 281.484,267.697 279.644,266.428 278.128,267.047 276.334,263.948 274.74,264.448 273.286,264.694 271.312,262.355 269.516,261.938 267.798,260.017 266.152,259.239 264.601,259.101 262.695,257.148 260.922,255.851 259.348,254.396 257.721,252.354 256.384,252.344 254.442,248.679 252.756,248.244 251.206,244.993 249.657,244.023 248.247,242.402 246.359,240.097 244.566,237.799 243.052,233.518 241.557,232.345 239.6,229.483 237.846,226.46 236.351,223.367 234.74,218.438 233.318,216.383 231.463,213.199 229.797,208.682 228.276,204.148 226.809,199.11 225.332,196.288 223.591,192.5 221.862,186.401 220.375,180.303 218.933,174.195 217.651,171.521 215.8,166.214 214.086,156.779 212.95,150.243 211.727,145.177 209.901,139.902 208.308,134.11 207.19,125.087 205.948,115.774 204.768,110.537 203.176,104.858 201.744,95.8234 200.556,83.9435 199.399,74.5058 198.28,69.4392 196.579,63.7645 195.142,67.1058 193.864,73.3529 192.587,78.8841 191.399,94.0023 189.474,102.257 187.567,98.5612 186.181,116.238 184.471,121.385 182.288,130.644 180.036,140.316 177.969,139.298 175.836,150.112 173.81,156.464 171.18,161.629 168.48,166.337 166.258,167.756 164.036,176.679 161.848,180.265 159.232,185.711 156.639,185.574 154.37,189.979 152.095,195.205 150.114,198.69 147.74,201.673 145.51,200.687 143.626,205.79 141.664,207.54 139.917,211.407 138.266,210.966 136.254,211.888 134.309,215.608 132.72,217.207 131.175,218.917 129.716,219.369 127.832,221.096 126.052,222.456 124.632,225.405 123.201,225.411 121.778,226.536 120.075,228.606 118.356,230.194 116.995,231.733 115.472,231.174 114.122,234.062 112.831,234.671 111.044,236.95 109.473,237.53 108.185,237.491 106.539,239.403 105.258,241.683 104.036,242.58 102.296,242.072 100.648,243.645 99.3033,244.62 97.8431,245.895 96.3046,246.317 95.0188,247.534 93.8946,248.729 92.2643,249.475 90.7122,249.231 89.5254,249.583 88.1503,250.523 87.0245,251.433 85.9527,252.742 84.3967,252.779 82.901,253.098 81.6493,254.465 80.317,255.019 78.9834,255.302 77.658,255.352 76.3588,255.831 75.2783,256.655 73.7828,256.983 72.3036,257.081 71.191,257.656 " />
</g>

<g fill="none" stroke="#f1a226" stroke-opacity="1" stroke-width="4" stroke-linecap="butt" stroke-linejoin="round" transform="matrix(0.501036,0,0,0.500544,-6.71699,-8.01034)"
font-family="Helvetica" font-size="18" font-weight="400" font-style="normal" 
>
<polyline fill="none" vector-effect="none" points="71,266.06 72.5182,266.179 73.6436,265.191 74.9539,265.274 76.2866,264.646 77.7171,264.361 78.8721,262.677 80.0731,262.391 81.7253,261.582 83.2132,261.499 84.6625,260.944 86.1335,260.1 87.6326,258.86 89.1151,258.412 90.5566,257.439 91.949,255.534 93.7238,254.685 95.1487,254.127 96.5557,252.399 98.0926,251.795 99.5129,250.073 100.847,247.879 102.258,247.631 103.889,246.914 105.498,244.72 106.932,244.205 108.53,243.203 110.015,241.517 111.417,240.514 113.231,239.079 115.025,237.172 116.561,236.683 118.335,235.114 119.846,233.104 121.232,231.392 123.108,229.469 124.938,228.67 126.481,226.957 128.173,224.225 129.726,222.453 131.163,220.615 133.072,219.126 134.929,217.815 136.512,215.679 138.08,213.667 139.508,211.761 141.42,210.29 143.284,208.501 144.787,205.837 146.471,204.686 147.986,202.373 149.371,199.553 151.292,197.387 153.118,195.29 154.685,193.334 156.199,190.979 157.699,187.34 159.62,185.032 161.522,183.411 163.152,180.415 164.777,176.828 166.327,172.819 168.366,170.763 170.37,168.739 171.953,165.456 173.631,161.576 175.206,156.798 177.151,154.779 179.035,152.318 180.734,149.139 182.369,144.057 183.857,136.806 185.884,134.746 187.783,128.456 189.475,120.539 191.214,113.322 192.744,101.783 194.964,95.1369 197.099,90.9656 198.572,78.8101 200.308,98.4354 202.488,127.463 204.586,130.135 206.348,155.146 207.99,159.021 209.331,143.776 211.021,171.028 212.585,169.659 213.726,177.432 214.834,182.905 215.739,169.169 217.196,188.287 218.528,189.1 219.52,192.724 220.519,194.131 221.421,189.165 222.714,202.378 224.03,206.903 224.887,205.5 225.882,210.142 227.382,208.301 228.982,221.257 230.323,221.09 231.685,223.344 232.884,222.145 234.806,228.439 236.654,235.418 238.111,235.539 239.687,237.331 241.102,237.341 243.081,242.87 244.94,248.441 246.453,246.615 248.122,248.641 249.493,247.598 251.536,254.47 253.416,256.838 255.017,255.639 256.656,256.647 258.192,258.124 260.19,262.992 262.124,262.553 263.761,262.61 265.429,263.517 266.977,264.376 268.975,267.706 270.896,266.604 272.526,266.306 274.135,267.764 275.634,268.831 277.553,271.127 279.401,270.182 281.045,270.044 282.536,271.031 284.07,272.566 285.949,272.866 287.885,272.87 289.585,272.61 291.285,274.292 292.923,274.083 294.38,273.691 296.431,274.425 298.288,274.334 299.719,276.13 301.282,275.463 302.717,275.587 304.599,275.779 306.275,275.011 307.759,277.296 309.51,276.867 310.947,275.517 312.32,276.785 314.212,277.111 315.984,277.427 317.414,277.176 318.951,276.67 320.46,278.262 321.852,277.313 323.571,277.263 325.224,278.343 326.763,278.183 328.32,278.242 329.925,278.42 331.307,278.466 332.597,278.506 334.324,279.436 336.008,278.794 337.436,279.233 338.943,279.365 340.435,278.733 341.76,279.424 343.115,279.806 344.821,278.98 346.377,279.871 347.716,279.75 349.264,279.098 350.706,280.665 352.094,280.164 353.368,280.334 354.66,280.47 356.279,280.559 357.817,280.14 359.082,279.958 360.485,281.074 361.868,280.609 363.203,280.045 364.35,281.113 365.418,280.602 366.757,280.398 368.046,280.899 368.983,281.405 370.096,280.991 371.167,281.228 372.285,280.844 373.369,281.034 374.422,281.323 375.4,281.348 376.324,281.366 377.589,280.857 378.846,281.804 379.846,281.26 380.946,281.129 382.086,281.892 383.161,280.997 384.24,282.557 385.492,280.904 386.647,280.756 387.598,281.041 388.428,282.205 389.699,281.365 390.919,280.914 392.011,281.708 393.141,281.136 394.342,281.732 395.428,281.254 396.473,281.758 397.502,282.28 398.501,281.447 399.543,281.532 400.475,281.43 401.385,281.867 402.155,281.401 402.853,281.495 403.885,281.641 404.716,281.293 405.444,281.328 406.254,281.754 407.069,281.629 407.933,281.989 408.801,281.93 409.639,281.642 410.384,281.931 411.2,281.843 411.979,282.073 412.751,281.96 413.463,281.892 414.224,281.637 414.954,281.727 415.725,281.794 416.446,281.693 417.164,282.099 417.675,281.823 418.142,282.188 419.014,281.758 419.813,282.23 420.419,281.516 421.079,281.687 421.762,282.309 422.382,281.753 423.047,281.5 423.612,281.715 424.08,281.808 424.577,282.08 424.971,282.116 425.336,281.964 425.7,281.977 426.094,282.009 426.442,281.949 426.853,281.809 427.269,282.127 427.705,281.779 428.154,281.801 428.556,281.674 428.961,282.22 429.349,282.235 429.754,281.618 430.18,281.797 430.539,281.983 430.949,281.632 431.326,281.902 431.635,281.972 431.939,281.812 432.247,282.188 432.505,282.168 432.772,281.735 433.01,281.871 433.261,281.951 433.418,281.872 433.638,281.632 433.827,282.18 434.02,281.949 434.222,282.101 434.422,281.692 434.581,282.126 434.776,281.676 434.926,282.322 435.069,281.516 435.187,281.978 435.226,282.08 435.258,282.148 435.277,281.832 " />
</g>

<g fill="none" stroke="#3594cc" stroke-opacity="1" stroke-dasharray="4,4" stroke-dashoffset="0" stroke-width="4" stroke-linecap="butt" stroke-linejoin="round" transform="matrix(0.501036,0,0,0.500544,-6.71699,-8.01034)"
font-family="Helvetica" font-size="18" font-weight="400" font-style="normal" 
>
<polyline fill="none" vector-effect="none" points="448.083,299 446.144,298.793 444.207,298.588 442.27,298.385 440.332,298.183 438.393,297.983 436.454,297.784 434.515,297.587 432.575,297.392 430.636,297.198 428.696,297.006 426.757,296.816 424.818,296.622 422.879,296.422 420.941,296.221 419.004,296.018 417.068,295.813 415.133,295.608 413.199,295.401 411.267,295.192 409.336,294.982 407.407,294.77 405.479,294.556 403.554,294.341 401.631,294.123 399.71,293.904 397.791,293.682 395.875,293.458 393.961,293.232 392.051,293.003 390.143,292.773 388.238,292.539 386.336,292.303 384.438,292.065 382.543,291.824 380.652,291.579 378.764,291.333 376.879,291.083 375,290.829 373.124,290.572 371.252,290.313 369.383,290.049 367.519,289.782 365.66,289.512 363.806,289.236 361.956,288.958 360.111,288.676 358.27,288.389 356.433,288.098 354.602,287.802 352.776,287.502 350.955,287.197 349.139,286.888 347.328,286.573 345.523,286.253 343.723,285.928 341.928,285.597 340.139,285.261 338.355,284.919 336.577,284.57 334.805,284.216 333.036,283.855 331.273,283.487 329.516,283.114 327.764,282.733 326.017,282.344 324.276,281.936 322.541,281.498 320.811,281.035 319.087,280.548 317.369,280.036 315.656,279.503 313.949,278.947 312.245,278.366 310.544,277.763 308.85,277.135 307.161,276.481 305.479,275.802 303.802,275.096 302.124,274.363 300.451,273.601 298.786,272.806 297.126,271.986 295.465,271.129 293.81,270.24 292.159,269.319 290.51,268.356 288.867,267.361 287.226,266.324 285.583,265.246 283.945,264.125 282.328,262.956 280.756,261.747 279.241,260.485 277.786,259.172 276.387,257.808 275.039,256.384 273.738,254.909 272.481,253.368 271.266,251.766 270.09,250.101 268.949,248.361 267.842,246.552 266.767,244.665 265.721,242.702 264.704,240.651 263.712,238.517 262.745,236.294 261.802,233.965 260.88,231.56 259.979,229.048 259.096,226.465 258.232,223.792 257.386,221.042 256.555,218.182 255.739,215.22 254.937,212.177 254.149,209.023 253.374,205.766 252.61,202.366 251.857,198.876 251.115,195.255 250.383,191.529 249.659,187.644 248.944,183.623 248.238,179.48 247.538,175.18 246.846,170.743 246.159,166.099 245.479,161.323 244.804,156.349 244.133,151.241 243.468,145.914 242.806,140.388 242.148,134.639 241.492,128.704 240.84,122.539 240.19,116.163 239.542,109.465 238.895,102.544 238.249,95.3488 237.604,87.8928 236.959,82.6088 236.314,84.2773 235.669,86.1008 235.023,88.0247 234.376,90.0471 233.726,92.1582 233.075,94.2899 232.421,96.4826 231.765,98.7264 231.105,101.01 230.441,103.319 229.773,105.615 229.1,107.92 228.423,110.231 227.739,112.511 227.05,114.737 226.354,116.862 225.651,118.914 224.94,120.877 224.221,122.813 223.493,124.631 222.756,126.392 222.009,128.049 221.251,129.663 220.481,131.206 219.699,132.662 218.904,134.109 218.096,135.563 217.273,137.122 216.434,138.686 215.579,140.318 214.706,141.938 213.814,143.593 212.902,145.303 211.97,147.023 211.015,148.809 210.036,150.552 209.032,152.351 208,154.171 206.94,156.019 205.85,157.888 204.726,159.729 203.568,161.629 202.372,163.529 201.137,165.47 199.858,167.412 198.533,169.337 197.16,171.291 195.735,173.25 194.251,175.237 192.704,177.182 191.096,179.166 189.434,181.153 187.73,183.154 185.995,185.129 184.225,187.116 182.419,189.13 180.577,191.14 178.7,193.13 176.785,195.113 174.834,197.114 172.847,199.118 170.823,201.077 168.758,203.044 166.666,205.003 164.571,206.979 162.487,208.895 160.417,210.825 158.357,212.752 156.308,214.662 154.268,216.54 152.238,218.42 150.218,220.303 148.207,222.133 146.206,223.967 144.213,225.792 142.228,227.613 140.251,229.388 138.28,231.167 136.316,232.952 134.358,234.692 132.404,236.428 130.455,238.125 128.511,239.791 126.572,241.403 124.638,242.981 122.709,244.506 120.782,245.993 118.858,247.435 116.936,248.831 115.017,250.19 113.103,251.504 111.19,252.789 109.278,254.029 107.37,255.233 105.463,256.398 103.556,257.525 101.651,258.617 99.7478,259.67 97.8452,260.691 95.9431,261.672 94.0414,262.624 92.1399,263.537 90.2386,264.412 88.3373,265.249 86.4356,266.048 84.5335,266.804 82.6307,267.407 80.7271,267.777 78.8226,268.129 76.9169,268.475 75.0099,268.806 73.1013,269.124 71.191,269.428 " />
</g>

<g fill="#ffffff" fill-opacity="1" stroke="none" transform="matrix(5.01036e-05,0,0,5.00544e-05,-6.71699,-8.01034)"
font-family="Helvetica" font-size="18" font-weight="400" font-style="normal" 
>
<path vector-effect="none" fill-rule="evenodd" d="M2.46e+06,410000 L2.46e+06,1.11e+06 L4.8e+06,1.11e+06 L4.8e+06,410000 L2.46e+06,410000"/>
</g>

<g fill="#298c8c" fill-opacity="1" stroke="#298c8c" stroke-opacity="1" stroke-width="4" stroke-linecap="butt" stroke-linejoin="round" transform="matrix(0.501036,0,0,0.500544,-6.71699,-8.01034)"
font-family="Helvetica" font-size="18" font-weight="400" font-style="normal" 
>
<polyline fill="none" vector-effect="none" points="252.013,54.4043 312.141,54.4043 " />
</g>

<g fill="#f1a226" fill-opacity="1" stroke="#f1a226" stroke-opacity="1" stroke-width="4" stroke-linecap="butt" stroke-linejoin="round" transform="matrix(0.501036,0,0,0.500544,-6.71699,-8.01034)"
font-family="Helvetica" font-size="18" font-weight="400" font-style="normal" 
>
<polyline fill="none" vector-effect="none" points="252.013,76 312.141,76 " />
</g>

<g fill="#3594cc" fill-opacity="1" stroke="#3594cc" stroke-opacity="1" stroke-dasharray="4,4" stroke-dashoffset="0" stroke-width="4" stroke-linecap="butt" stroke-linejoin="round" transform="matrix(0.501036,0,0,0.500544,-6.71699,-8.01034)"
font-family="Helvetica" font-size="18" font-weight="400" font-style="normal" 
>
<polyline fill="none" vector-effect="none" points="252.013,97.5957 312.141,97.5957 " />
</g>

<g fill="#212121" fill-opacity="1" stroke="#212121" stroke-opacity="1" stroke-width="1" stroke-linecap="square" stroke-linejoin="bevel" transform="matrix(0.501036,0,0,0.500544,151.937,21.7241)"
font-family="Helvetica" font-size="18" font-weight="400" font-style="normal" 
>
<text fill="#212121" fill-opacity="1" stroke="none" xml:space="preserve" x="0" y="-0.140625" font-family="Helvetica" font-size="18" font-weight="400" font-style="normal" 
 >Measured, Storage</text>
</g>

<g fill="#212121" fill-opacity="1" stroke="#212121" stroke-opacity="1" stroke-width="1" stroke-linecap="square" stroke-linejoin="bevel" transform="matrix(0.501036,0,0,0.500544,151.937,32.5338)"
font-family="Helvetica" font-size="18" font-weight="400" font-style="normal" 
>
<text fill="#212121" fill-opacity="1" stroke="none" xml:space="preserve" x="0" y="-0.140625" font-family="Helvetica" font-size="18" font-weight="400" font-style="normal" 
 >Measured, Release</text>
</g>

<g fill="#212121" fill-opacity="1" stroke="#212121" stroke-opacity="1" stroke-width="1" stroke-linecap="square" stroke-linejoin="bevel" transform="matrix(0.501036,0,0,0.500544,151.937,43.3434)"
font-family="Helvetica" font-size="18" font-weight="400" font-style="normal" 
>
<text fill="#212121" fill-opacity="1" stroke="none" xml:space="preserve" x="0" y="-0.140625" font-family="Helvetica" font-size="18" font-weight="400" font-style="normal" 
 >Predicted</text>
</g>

<g fill="none" stroke="#212121" stroke-opacity="1" stroke-width="1" stroke-linecap="butt" stroke-linejoin="miter" stroke-miterlimit="2" transform="matrix(0.501036,0,0,0.500544,-6.71699,-8.01034)"
font-family="Helvetica" font-size="18" font-weight="400" font-style="normal" 
>
<path vector-effect="none" fill-rule="evenodd" d="M246,111 L246,41 L480,41 L480,111 L246,111"/>
</g>
</g>
</svg>
