<?xml version="1.0" encoding="UTF-8" standalone="no"?>
<svg width="86.4306mm" height="56.0917mm"
 viewBox="0 0 245 159"
 xmlns="http://www.w3.org/2000/svg" xmlns:xlink="http://www.w3.org/1999/xlink"  version="1.2" baseProfile="tiny">
<title>Qt SVG Document</title>
<desc>MATLAB, The MathWorks, Inc. Version 25.1.0.2973910 R2025a Update 1</desc>
<defs>
</defs>
<g fill="none" stroke="black" stroke-width="1" fill-rule="evenodd" stroke-linecap="square" stroke-linejoin="bevel" >

<g fill="#ffffff" fill-opacity="1" stroke="none" transform="matrix(0.5,0,0,0.5,0,0)"
font-family=".AppleSystemUIFont" font-size="13" font-weight="400" font-style="normal" 
>
<path vector-effect="none" fill-rule="evenodd" d="M0,0 L491,0 L491,318 L0,318 L0,0"/>
</g>

<g fill="#ffffff" fill-opacity="1" stroke="none" transform="matrix(5e-05,0,0,5e-05,0,0)"
font-family=".AppleSystemUIFont" font-size="13" font-weight="400" font-style="normal" 
>
<path vector-effect="none" fill-rule="evenodd" d="M640000,240000 L640000,2.62e+06 L4.43e+06,2.62e+06 L4.43e+06,240000 L640000,240000"/>
</g>

<g fill="#212121" fill-opacity="1" stroke="#212121" stroke-opacity="1" stroke-width="1" stroke-linecap="square" stroke-linejoin="bevel" transform="matrix(0.5,0,0,0.5,53.5,153.8)"
font-family="Helvetica" font-size="24" font-weight="400" font-style="normal" 
>
<text fill="#212121" fill-opacity="1" stroke="none" xml:space="preserve" x="0" y="0.46875" font-family="Helvetica" font-size="24" font-weight="400" font-style="normal" 
 >Cable Stroke Distance (cm)</text>
</g>

<g fill="#212121" fill-opacity="1" stroke="#212121" stroke-opacity="1" stroke-width="1" stroke-linecap="square" stroke-linejoin="round" transform="matrix(0.5,0,0,0.5,0,0)"
font-family="Helvetica" font-size="24" font-weight="400" font-style="normal" 
>
<polyline fill="none" vector-effect="none" points="64,262 443,262 " />
<polyline fill="none" vector-effect="none" points="64,24 443,24 " />
<polyline fill="none" vector-effect="none" points="64,262 64,258.21 " />
<polyline fill="none" vector-effect="none" points="64,27.79 64,24 " />
<polyline fill="none" vector-effect="none" points="158.75,262 158.75,258.21 " />
<polyline fill="none" vector-effect="none" points="158.75,27.79 158.75,24 " />
<polyline fill="none" vector-effect="none" points="253.5,262 253.5,258.21 " />
<polyline fill="none" vector-effect="none" points="253.5,27.79 253.5,24 " />
<polyline fill="none" vector-effect="none" points="348.25,262 348.25,258.21 " />
<polyline fill="none" vector-effect="none" points="348.25,27.79 348.25,24 " />
<polyline fill="none" vector-effect="none" points="443,262 443,258.21 " />
<polyline fill="none" vector-effect="none" points="443,27.79 443,24 " />
</g>

<g fill="#212121" fill-opacity="1" stroke="#212121" stroke-opacity="1" stroke-width="1" stroke-linecap="square" stroke-linejoin="bevel" transform="matrix(0.5,0,0,0.5,29.5,140.8)"
font-family="Helvetica" font-size="18" font-weight="400" font-style="normal" 
>
<text fill="#212121" fill-opacity="1" stroke="none" xml:space="preserve" x="0" y="-0.140625" font-family="Helvetica" font-size="18" font-weight="400" font-style="normal" 
 >0</text>
</g>

<g fill="#212121" fill-opacity="1" stroke="#212121" stroke-opacity="1" stroke-width="1" stroke-linecap="square" stroke-linejoin="bevel" transform="matrix(0.5,0,0,0.5,76.875,140.8)"
font-family="Helvetica" font-size="18" font-weight="400" font-style="normal" 
>
<text fill="#212121" fill-opacity="1" stroke="none" xml:space="preserve" x="0" y="-0.140625" font-family="Helvetica" font-size="18" font-weight="400" font-style="normal" 
 >2</text>
</g>

<g fill="#212121" fill-opacity="1" stroke="#212121" stroke-opacity="1" stroke-width="1" stroke-linecap="square" stroke-linejoin="bevel" transform="matrix(0.5,0,0,0.5,124.25,140.8)"
font-family="Helvetica" font-size="18" font-weight="400" font-style="normal" 
>
<text fill="#212121" fill-opacity="1" stroke="none" xml:space="preserve" x="0" y="-0.140625" font-family="Helvetica" font-size="18" font-weight="400" font-style="normal" 
 >4</text>
</g>

<g fill="#212121" fill-opacity="1" stroke="#212121" stroke-opacity="1" stroke-width="1" stroke-linecap="square" stroke-linejoin="bevel" transform="matrix(0.5,0,0,0.5,171.625,140.8)"
font-family="Helvetica" font-size="18" font-weight="400" font-style="normal" 
>
<text fill="#212121" fill-opacity="1" stroke="none" xml:space="preserve" x="0" y="-0.140625" font-family="Helvetica" font-size="18" font-weight="400" font-style="normal" 
 >6</text>
</g>

<g fill="#212121" fill-opacity="1" stroke="#212121" stroke-opacity="1" stroke-width="1" stroke-linecap="square" stroke-linejoin="bevel" transform="matrix(0.5,0,0,0.5,219,140.8)"
font-family="Helvetica" font-size="18" font-weight="400" font-style="normal" 
>
<text fill="#212121" fill-opacity="1" stroke="none" xml:space="preserve" x="0" y="-0.140625" font-family="Helvetica" font-size="18" font-weight="400" font-style="normal" 
 >8</text>
</g>

<g fill="#212121" fill-opacity="1" stroke="#212121" stroke-opacity="1" stroke-width="1" stroke-linecap="square" stroke-linejoin="bevel" transform="matrix(0,-0.5,0.5,0,13.7,119.5)"
font-family="Helvetica" font-size="24" font-weight="400" font-style="normal" 
>
<text fill="#212121" fill-opacity="1" stroke="none" xml:space="preserve" x="0" y="0.46875" font-family="Helvetica" font-size="24" font-weight="400" font-style="normal" 
 >Cable Tension (N)</text>
</g>

<g fill="#212121" fill-opacity="1" stroke="#212121" stroke-opacity="1" stroke-width="1" stroke-linecap="square" stroke-linejoin="round" transform="matrix(0.5,0,0,0.5,0,0)"
font-family="Helvetica" font-size="24" font-weight="400" font-style="normal" 
>
<polyline fill="none" vector-effect="none" points="64,262 64,24 " />
<polyline fill="none" vector-effect="none" points="443,262 443,24 " />
<polyline fill="none" vector-effect="none" points="64,262 67.79,262 " />
<polyline fill="none" vector-effect="none" points="439.21,262 443,262 " />
<polyline fill="none" vector-effect="none" points="64,202.5 67.79,202.5 " />
<polyline fill="none" vector-effect="none" points="439.21,202.5 443,202.5 " />
<polyline fill="none" vector-effect="none" points="64,143 67.79,143 " />
<polyline fill="none" vector-effect="none" points="439.21,143 443,143 " />
<polyline fill="none" vector-effect="none" points="64,83.5 67.79,83.5 " />
<polyline fill="none" vector-effect="none" points="439.21,83.5 443,83.5 " />
<polyline fill="none" vector-effect="none" points="64,24 67.79,24 " />
<polyline fill="none" vector-effect="none" points="439.21,24 443,24 " />
</g>

<g fill="#212121" fill-opacity="1" stroke="#212121" stroke-opacity="1" stroke-width="1" stroke-linecap="square" stroke-linejoin="bevel" transform="matrix(0.5,0,0,0.5,24.2,133.5)"
font-family="Helvetica" font-size="18" font-weight="400" font-style="normal" 
>
<text fill="#212121" fill-opacity="1" stroke="none" xml:space="preserve" x="0" y="-0.140625" font-family="Helvetica" font-size="18" font-weight="400" font-style="normal" 
 >0</text>
</g>

<g fill="#212121" fill-opacity="1" stroke="#212121" stroke-opacity="1" stroke-width="1" stroke-linecap="square" stroke-linejoin="bevel" transform="matrix(0.5,0,0,0.5,19.2,103.75)"
font-family="Helvetica" font-size="18" font-weight="400" font-style="normal" 
>
<text fill="#212121" fill-opacity="1" stroke="none" xml:space="preserve" x="0" y="-0.140625" font-family="Helvetica" font-size="18" font-weight="400" font-style="normal" 
 >20</text>
</g>

<g fill="#212121" fill-opacity="1" stroke="#212121" stroke-opacity="1" stroke-width="1" stroke-linecap="square" stroke-linejoin="bevel" transform="matrix(0.5,0,0,0.5,19.2,74)"
font-family="Helvetica" font-size="18" font-weight="400" font-style="normal" 
>
<text fill="#212121" fill-opacity="1" stroke="none" xml:space="preserve" x="0" y="-0.140625" font-family="Helvetica" font-size="18" font-weight="400" font-style="normal" 
 >40</text>
</g>

<g fill="#212121" fill-opacity="1" stroke="#212121" stroke-opacity="1" stroke-width="1" stroke-linecap="square" stroke-linejoin="bevel" transform="matrix(0.5,0,0,0.5,19.2,44.25)"
font-family="Helvetica" font-size="18" font-weight="400" font-style="normal" 
>
<text fill="#212121" fill-opacity="1" stroke="none" xml:space="preserve" x="0" y="-0.140625" font-family="Helvetica" font-size="18" font-weight="400" font-style="normal" 
 >60</text>
</g>

<g fill="#212121" fill-opacity="1" stroke="#212121" stroke-opacity="1" stroke-width="1" stroke-linecap="square" stroke-linejoin="bevel" transform="matrix(0.5,0,0,0.5,19.2,14.5)"
font-family="Helvetica" font-size="18" font-weight="400" font-style="normal" 
>
<text fill="#212121" fill-opacity="1" stroke="none" xml:space="preserve" x="0" y="-0.140625" font-family="Helvetica" font-size="18" font-weight="400" font-style="normal" 
 >80</text>
</g>

<g fill="none" stroke="#298c8c" stroke-opacity="1" stroke-width="4" stroke-linecap="butt" stroke-linejoin="round" transform="matrix(0.5,0,0,0.5,0,0)"
font-family="Helvetica" font-size="18" font-weight="400" font-style="normal" 
>
<polyline fill="none" vector-effect="none" points="366.598,246.862 366.598,246.524 366.598,246.783 366.598,246.67 366.598,246.714 366.597,246.795 366.596,246.747 366.595,246.745 366.592,246.769 366.583,246.63 366.573,246.745 366.548,246.615 366.528,246.634 366.478,246.468 366.345,246.569 366.177,246.802 365.987,246.626 365.747,246.514 365.503,246.586 365.213,246.594 364.954,246.427 364.636,246.541 364.319,246.284 364.02,246.28 363.746,246.606 363.443,246.118 363.16,246.275 362.844,246.609 362.544,246.183 362.257,246.561 361.915,246.454 361.57,246.338 361.237,246.3 360.918,246.29 360.536,246.191 360.14,246.319 359.731,246.195 359.338,246.03 358.879,246.13 358.33,246.435 357.823,246.597 357.304,245.987 356.767,246.14 356.293,245.959 355.771,246.122 355.251,245.736 354.748,246.291 354.173,246.344 353.63,245.971 353.104,246.145 352.557,245.628 352.043,246.349 351.467,245.701 350.924,245.628 350.361,245.515 349.692,245.812 349.04,246.133 348.524,245.894 347.978,245.937 347.095,245.727 346.31,245.668 345.721,246.11 344.999,246.041 344.254,245.185 343.506,245.887 342.766,245.358 342.054,245.339 341.307,245.454 340.613,245.155 339.856,245.032 339.115,245.541 338.332,245.345 337.597,245.14 336.77,245.304 335.935,245.08 335.104,245.118 334.283,244.888 333.434,244.301 332.605,245.215 331.749,244.992 330.897,243.954 330.152,244.658 329.425,243.909 328.357,244.65 327.312,243.814 326.464,244.086 325.443,243.733 324.432,243.918 323.43,243.858 322.405,243.393 321.406,243.105 320.377,243.586 319.35,242.387 318.343,242.391 317.364,242.29 316.283,241.994 315.21,242.279 314.277,241.478 313.406,241.534 312.208,240.88 311.093,240.921 310.159,240.576 309.096,240.444 307.955,239.629 306.845,239.295 305.743,238.896 304.609,238.128 303.408,238.156 302.203,237.443 301.2,236.795 300.206,236.004 298.822,235.165 297.584,234.212 296.448,233.217 295.18,232.043 293.979,230.983 292.717,229.422 291.439,227.132 290.149,226.092 288.993,224.006 287.929,223.875 286.536,225.986 285.243,222.939 284.118,223.693 282.904,222.397 281.709,222.467 280.439,222.259 279.22,221.629 278.082,220.883 277.126,220.816 275.663,219.895 274.229,219.082 273.069,217.105 271.753,217.577 270.497,216.119 269.18,216.739 267.918,215.164 266.835,215.058 265.251,214.051 263.723,212.059 262.496,212.14 261.039,210.001 259.62,208.575 258.395,209.057 257.21,207.216 255.65,206.263 254.089,205.164 252.833,203.641 251.421,202.471 249.914,202.121 248.686,201.089 247.505,199.808 245.925,198.929 244.329,197.276 243.045,196.612 241.596,195.017 240.085,193.156 238.832,193.391 237.615,192.338 235.951,191.022 234.34,189.525 232.971,188.059 231.538,188.282 230.206,187.524 228.871,186.497 227.278,184.085 225.6,184.996 224.29,183.767 222.781,181.585 221.457,181.062 220.15,179.698 218.546,179.323 216.852,177.965 215.414,176.996 213.955,176.297 212.522,176.905 211.274,175.658 209.484,174.734 207.786,172.973 206.405,171.908 205.004,172.221 203.668,171.323 201.932,170.581 200.221,169.461 198.744,169.353 197.211,169.469 195.692,168.792 194.331,168.326 192.599,167.275 190.84,166.776 189.384,167.271 187.939,166.826 186.545,166.595 184.878,166.265 183.161,165.588 181.624,164.488 179.982,164.681 178.579,165.04 177.081,164.343 175.314,165.589 173.619,164.773 172.046,164.513 170.55,164.727 169.188,165.311 167.45,166.146 165.623,165.642 164.051,166.155 162.56,166.119 161.154,167.15 159.298,166.911 157.559,166.283 156.037,167.558 154.399,168.474 152.911,169.658 151.468,170.035 149.673,170.305 147.978,171.365 146.442,171.523 144.935,173.384 143.524,173.64 141.713,174.752 140.131,175.981 138.716,176.569 137.233,177.543 135.83,178.167 134.167,179.061 132.607,180.647 131.229,181.321 129.727,182.469 128.283,183.507 126.846,185.162 125.134,186.578 123.45,187.327 121.963,189.364 120.339,190.768 118.808,193.144 117.319,194.295 115.508,195.62 113.774,197.543 112.297,199.153 110.821,200.909 109.44,202.219 107.664,203.544 106.005,205.115 104.521,206.011 102.954,207.909 101.523,209.384 100.145,210.821 98.4203,211.62 96.8077,212.642 95.4345,213.791 93.9457,215.277 92.6507,215.734 91.36,217.11 89.7912,218.552 88.2264,218.917 86.8764,220.215 85.463,220.903 84.0155,221.864 82.7314,223.575 81.5513,223.41 79.963,223.928 78.5035,224.571 77.2375,225.573 75.834,225.155 74.521,225.749 73.2991,226.791 72.0895,227.947 70.5585,227.911 69.0676,229.215 67.8437,229.791 66.5191,229.529 65.1507,230.145 64,230.522 " />
</g>

<g fill="none" stroke="#f1a226" stroke-opacity="1" stroke-width="4" stroke-linecap="butt" stroke-linejoin="round" transform="matrix(0.5,0,0,0.5,0,0)"
font-family="Helvetica" font-size="18" font-weight="400" font-style="normal" 
>
<polyline fill="none" vector-effect="none" points="64.1056,231.722 65.3275,232.303 66.5405,231.449 67.7357,230.938 69.2095,231.157 70.4854,230.521 71.7375,230.632 73.0705,231.155 74.3762,230.276 75.7509,228.177 76.9182,227.512 78.0691,226.537 79.7415,226.669 81.2621,225.177 82.6049,224.176 84.0673,224.637 85.4586,222.748 86.7366,222.375 88.4152,221.618 89.9317,220.085 91.2759,218.968 92.7419,217.953 94.1809,216.734 95.55,216.145 96.901,214.191 98.518,214.138 100.102,213.391 101.41,210.478 102.944,209.729 104.325,207.547 105.681,206.77 107.432,205.848 109.128,204.149 110.589,203.258 112.204,200.597 113.719,199.585 115.132,197.594 116.926,195.392 118.708,193.649 120.236,193.097 121.876,191.683 123.376,189.906 124.793,187.976 126.572,186.567 128.315,185.457 129.797,183.622 131.253,182.368 132.691,180.861 134.471,180.911 136.187,179.869 137.662,179.645 139.236,177.661 140.645,176.163 142.014,176.619 143.792,174.726 145.419,174.63 146.795,173.334 148.182,173.073 149.491,172.78 151.171,171.65 152.811,171.087 154.259,170.607 155.793,170.659 157.164,169.55 158.354,168.717 160.052,168.418 161.737,169.327 163.228,168.955 164.595,168.845 165.811,167.129 167.558,167.491 169.213,168.341 170.63,168.756 171.948,168.294 173.155,167.04 174.88,168.482 176.553,168.749 177.897,168.998 179.342,168.035 180.833,167.446 182.151,168.977 183.785,168.675 185.492,170.546 186.843,169.307 188.19,169.151 189.465,170.681 191.042,170.932 192.616,171.323 193.924,170.788 195.396,172.24 196.825,173.015 198.111,173.194 199.731,173.4 201.259,173.829 202.65,175.494 204.178,175.857 205.48,175.934 207.191,176.242 208.819,177.481 210.353,179.138 212.053,179.691 213.542,178.664 215.056,180.956 216.777,181.539 218.444,183.54 219.795,184.29 221.377,184.038 222.759,185.931 224.073,186.338 225.624,188.374 227.088,188.763 228.429,189.353 229.783,191.043 231.057,192.269 232.247,192.979 233.896,193.188 235.361,195.349 236.629,196.373 237.988,197.416 239.215,197.584 240.346,197.969 241.941,199.652 243.456,201.333 244.708,202.184 246.142,203.998 247.448,204.073 248.838,205.071 250.034,207.372 251.5,206.942 252.906,207.91 254.267,209.982 255.717,210.841 257.061,210.986 258.332,212.412 259.511,213.687 261.076,214.687 262.566,216.56 263.789,216.507 265.191,218.885 266.559,218.685 267.721,218.866 268.812,220.892 270.328,220.647 271.801,221.341 273.097,223.542 274.385,222.55 275.719,225.434 277.073,224.467 278.274,224.97 279.428,226.738 280.973,226.758 282.314,225.638 283.525,227.304 284.827,228.804 286.091,226.209 287.385,227.791 288.693,230.399 289.852,231.505 290.934,234.07 292.372,235.156 293.753,235.624 294.868,236.882 296.101,237.579 297.323,238.538 298.525,238.903 299.697,239.144 300.912,240.551 302.079,240.731 303.128,241.241 304.138,241.658 305.409,241.387 306.676,241.989 307.748,242.928 308.848,242.316 309.943,243.105 311.074,243.219 312.158,242.985 313.332,243.909 314.417,243.4 315.482,244.163 316.506,243.7 317.468,244.764 318.674,244.687 319.821,244.777 320.696,244.231 321.746,245.139 322.715,244.994 323.72,245.146 324.773,244.904 325.733,245.068 326.653,245.381 327.624,245.575 328.522,244.96 329.444,245.558 330.274,245.657 331.164,245.775 332.084,245.901 332.84,245.343 333.553,246.204 334.556,245.645 335.537,245.909 336.25,245.985 337.045,246.272 337.88,246.257 338.68,246.126 339.518,246.105 340.272,246.03 341.045,246.603 341.874,246.231 342.667,246.595 343.369,246.043 344.131,246.653 344.824,246.141 345.544,246.966 346.271,246.154 346.983,246.532 347.648,246.427 348.355,246.361 349.016,246.229 349.746,246.665 350.389,245.918 351.005,246.708 351.523,246.452 352.19,247.111 352.666,246.504 353.002,245.956 353.702,247.172 354.216,246.186 354.619,246.562 355.117,246.579 355.592,246.735 356.109,246.906 356.594,246.417 357.124,246.877 357.596,246.43 358.063,246.834 358.561,246.756 359.007,246.968 359.493,247.168 360,246.905 360.506,246.658 360.861,246.825 361.227,246.786 361.586,246.911 361.927,246.858 362.209,246.767 362.53,247.154 362.854,246.902 363.155,246.63 363.42,247.272 363.739,246.992 364.049,247.118 364.325,247.2 364.53,246.618 364.746,247.346 364.966,247.021 365.122,246.997 365.316,246.591 365.489,246.99 365.618,246.708 365.764,247.146 365.9,246.906 366.091,247.351 366.252,246.876 366.413,246.655 366.567,247.102 366.667,247.018 366.763,247.199 366.762,247.196 366.762,246.885 366.745,247.035 366.752,246.884 " />
</g>

<g fill="none" stroke="#3594cc" stroke-opacity="1" stroke-dasharray="4,4" stroke-dashoffset="0" stroke-width="4" stroke-linecap="butt" stroke-linejoin="round" transform="matrix(0.5,0,0,0.5,0,0)"
font-family="Helvetica" font-size="18" font-weight="400" font-style="normal" 
>
<polyline fill="none" vector-effect="none" points="398.234,262 395.498,261.817 392.806,261.636 390.165,261.456 387.576,261.277 385.038,261.098 382.548,260.92 380.097,260.742 377.696,260.565 375.343,260.388 373.039,260.211 370.782,260.034 368.57,259.852 366.397,259.664 364.271,259.472 362.19,259.277 360.165,259.078 358.224,258.876 356.368,258.67 354.593,258.46 352.891,258.245 351.255,258.026 349.682,257.801 348.168,257.572 346.708,257.337 345.298,257.095 343.935,256.848 342.616,256.593 341.339,256.332 340.1,256.063 338.897,255.786 337.727,255.5 336.59,255.206 335.482,254.902 334.402,254.588 333.349,254.263 332.32,253.926 331.315,253.577 330.331,253.216 329.368,252.84 328.424,252.45 327.499,252.044 326.591,251.621 325.699,251.181 324.822,250.721 323.959,250.24 323.11,249.738 322.274,249.212 321.449,248.66 320.635,248.081 319.832,247.473 319.039,246.833 318.255,246.158 317.479,245.458 316.711,244.728 315.95,243.971 315.196,243.185 314.448,242.369 313.705,241.522 312.968,240.642 312.236,239.726 311.507,238.776 310.783,237.788 310.061,236.763 309.342,235.699 308.626,234.593 307.911,233.421 307.198,232.169 306.486,230.839 305.774,229.43 305.062,228.899 304.35,228.619 303.637,228.317 302.923,228.003 302.208,227.668 301.49,227.321 300.77,226.956 300.046,226.575 299.32,226.187 298.589,225.779 297.854,225.357 297.114,224.919 296.368,224.465 295.617,224 294.859,223.52 294.095,223.023 293.322,222.514 292.542,221.987 291.752,221.446 290.954,220.892 290.145,220.317 289.325,219.729 288.494,219.125 287.651,218.501 286.794,217.863 285.924,217.208 285.039,216.532 284.138,215.843 283.22,215.133 282.285,214.401 281.33,213.66 280.356,212.894 279.361,212.104 278.342,211.302 277.299,210.476 276.231,209.624 275.14,208.76 274.033,207.87 272.922,206.955 271.807,206.036 270.688,205.098 269.562,204.153 268.431,203.217 267.298,202.282 266.159,201.33 265.014,200.377 263.865,199.425 262.711,198.474 261.552,197.515 260.387,196.554 259.219,195.591 258.045,194.63 256.866,193.678 255.683,192.704 254.495,191.731 253.302,190.767 252.104,189.809 250.901,188.85 249.694,187.874 248.482,186.906 247.265,185.94 246.044,184.978 244.818,184.029 243.588,183.06 242.352,182.095 241.112,181.137 239.869,180.193 238.621,179.253 237.368,178.292 236.111,177.346 234.851,176.408 233.586,175.476 232.316,174.56 231.042,173.671 229.765,172.824 228.484,172.018 227.199,171.255 225.91,170.533 224.618,169.819 223.322,169.136 222.022,168.485 220.718,167.863 219.412,167.261 218.101,166.651 216.788,166.06 215.471,165.481 214.151,164.91 212.828,164.344 211.502,163.766 210.173,163.185 208.842,162.606 207.507,162.025 206.169,161.449 204.829,160.844 203.487,160.232 202.142,159.615 200.795,158.999 199.446,158.366 198.095,157.744 196.741,157.182 195.386,156.69 194.028,156.262 192.669,155.906 191.307,155.588 189.944,155.338 188.579,155.159 187.211,155.051 185.842,155.014 184.471,155.019 183.097,155.099 181.721,155.255 180.343,155.488 178.962,155.779 177.579,156.117 176.193,156.525 174.804,157.001 173.412,157.546 172.016,158.146 170.618,158.782 169.216,159.486 167.811,160.253 166.403,161.069 164.991,161.916 163.576,162.823 162.157,163.788 160.735,164.802 159.309,165.839 157.879,166.935 156.445,168.085 155.008,169.285 153.567,170.489 152.121,171.739 150.672,173.034 149.218,174.603 147.761,176.318 146.299,178.038 144.833,179.752 143.362,181.482 141.887,183.158 140.408,184.847 138.923,186.533 137.435,188.204 135.941,189.848 134.443,191.492 132.94,193.14 131.432,194.742 129.919,196.346 128.401,197.943 126.878,199.536 125.35,201.09 123.816,202.646 122.234,204.208 120.49,205.73 118.741,207.25 116.998,208.734 115.26,210.192 113.526,211.603 111.796,212.983 110.071,214.318 108.348,215.619 106.627,216.881 104.908,218.102 103.192,219.291 101.481,220.441 99.7703,221.565 98.0605,222.651 96.3538,223.704 94.6484,224.723 92.9433,225.71 91.2396,226.665 89.5375,227.586 87.8361,228.48 86.1351,229.338 84.4344,230.171 82.734,230.97 81.0338,231.736 79.3334,232.468 77.6329,233.167 75.9319,233.828 74.2302,234.356 72.5279,234.679 70.8248,234.988 69.1206,235.291 67.4152,235.58 65.7084,235.858 64,236.124 " />
</g>
</g>
</svg>
