<?xml version="1.0" encoding="UTF-8" standalone="no"?>
<svg width="86.4306mm" height="59.6194mm"
 viewBox="0 0 245 169"
 xmlns="http://www.w3.org/2000/svg" xmlns:xlink="http://www.w3.org/1999/xlink"  version="1.2" baseProfile="tiny">
<title>Qt SVG Document</title>
<desc>MATLAB, The MathWorks, Inc. Version 25.1.0.2973910 R2025a Update 1</desc>
<defs>
</defs>
<g fill="none" stroke="black" stroke-width="1" fill-rule="evenodd" stroke-linecap="square" stroke-linejoin="bevel" >

<g fill="#ffffff" fill-opacity="1" stroke="none" transform="matrix(0.506281,0,0,0.502063,-6.29674,-8.0392)"
font-family=".AppleSystemUIFont" font-size="13" font-weight="400" font-style="normal" 
>
<path vector-effect="none" fill-rule="evenodd" d="M12,15 L496,15 L496,352 L12,352 L12,15"/>
</g>

<g fill="#ffffff" fill-opacity="1" stroke="none" transform="matrix(5.06281e-05,0,0,5.02063e-05,-6.29674,-8.0392)"
font-family=".AppleSystemUIFont" font-size="13" font-weight="400" font-style="normal" 
>
<path vector-effect="none" fill-rule="evenodd" d="M700000,270000 L700000,2.98e+06 L4.89e+06,2.98e+06 L4.89e+06,270000 L700000,270000"/>
</g>

<g fill="#212121" fill-opacity="1" stroke="#212121" stroke-opacity="1" stroke-width="1" stroke-linecap="square" stroke-linejoin="bevel" transform="matrix(0.506281,0,0,0.502063,61.0387,164.47)"
font-family="Helvetica" font-size="24" font-weight="400" font-style="normal" 
>
<text fill="#212121" fill-opacity="1" stroke="none" xml:space="preserve" x="0" y="0.46875" font-family="Helvetica" font-size="24" font-weight="400" font-style="normal" 
 >Cable Stroke Distance (cm)</text>
</g>

<g fill="#212121" fill-opacity="1" stroke="#212121" stroke-opacity="1" stroke-width="1" stroke-linecap="square" stroke-linejoin="round" transform="matrix(0.506281,0,0,0.502063,-6.29674,-8.0392)"
font-family="Helvetica" font-size="24" font-weight="400" font-style="normal" 
>
<polyline fill="none" vector-effect="none" points="70,298 489,298 " />
<polyline fill="none" vector-effect="none" points="70,27 489,27 " />
<polyline fill="none" vector-effect="none" points="70,298 70,293.81 " />
<polyline fill="none" vector-effect="none" points="70,31.19 70,27 " />
<polyline fill="none" vector-effect="none" points="174.75,298 174.75,293.81 " />
<polyline fill="none" vector-effect="none" points="174.75,31.19 174.75,27 " />
<polyline fill="none" vector-effect="none" points="279.5,298 279.5,293.81 " />
<polyline fill="none" vector-effect="none" points="279.5,31.19 279.5,27 " />
<polyline fill="none" vector-effect="none" points="384.25,298 384.25,293.81 " />
<polyline fill="none" vector-effect="none" points="384.25,31.19 384.25,27 " />
<polyline fill="none" vector-effect="none" points="489,298 489,293.81 " />
<polyline fill="none" vector-effect="none" points="489,31.19 489,27 " />
</g>

<g fill="#212121" fill-opacity="1" stroke="#212121" stroke-opacity="1" stroke-width="1" stroke-linecap="square" stroke-linejoin="bevel" transform="matrix(0.506281,0,0,0.502063,26.6116,151.416)"
font-family="Helvetica" font-size="18" font-weight="400" font-style="normal" 
>
<text fill="#212121" fill-opacity="1" stroke="none" xml:space="preserve" x="0" y="-0.140625" font-family="Helvetica" font-size="18" font-weight="400" font-style="normal" 
 >0</text>
</g>

<g fill="#212121" fill-opacity="1" stroke="#212121" stroke-opacity="1" stroke-width="1" stroke-linecap="square" stroke-linejoin="bevel" transform="matrix(0.506281,0,0,0.502063,79.6445,151.416)"
font-family="Helvetica" font-size="18" font-weight="400" font-style="normal" 
>
<text fill="#212121" fill-opacity="1" stroke="none" xml:space="preserve" x="0" y="-0.140625" font-family="Helvetica" font-size="18" font-weight="400" font-style="normal" 
 >2</text>
</g>

<g fill="#212121" fill-opacity="1" stroke="#212121" stroke-opacity="1" stroke-width="1" stroke-linecap="square" stroke-linejoin="bevel" transform="matrix(0.506281,0,0,0.502063,132.678,151.416)"
font-family="Helvetica" font-size="18" font-weight="400" font-style="normal" 
>
<text fill="#212121" fill-opacity="1" stroke="none" xml:space="preserve" x="0" y="-0.140625" font-family="Helvetica" font-size="18" font-weight="400" font-style="normal" 
 >4</text>
</g>

<g fill="#212121" fill-opacity="1" stroke="#212121" stroke-opacity="1" stroke-width="1" stroke-linecap="square" stroke-linejoin="bevel" transform="matrix(0.506281,0,0,0.502063,185.71,151.416)"
font-family="Helvetica" font-size="18" font-weight="400" font-style="normal" 
>
<text fill="#212121" fill-opacity="1" stroke="none" xml:space="preserve" x="0" y="-0.140625" font-family="Helvetica" font-size="18" font-weight="400" font-style="normal" 
 >6</text>
</g>

<g fill="#212121" fill-opacity="1" stroke="#212121" stroke-opacity="1" stroke-width="1" stroke-linecap="square" stroke-linejoin="bevel" transform="matrix(0.506281,0,0,0.502063,238.743,151.416)"
font-family="Helvetica" font-size="18" font-weight="400" font-style="normal" 
>
<text fill="#212121" fill-opacity="1" stroke="none" xml:space="preserve" x="0" y="-0.140625" font-family="Helvetica" font-size="18" font-weight="400" font-style="normal" 
 >8</text>
</g>

<g fill="#212121" fill-opacity="1" stroke="#212121" stroke-opacity="1" stroke-width="1" stroke-linecap="square" stroke-linejoin="bevel" transform="matrix(0,-0.502063,0.506281,0,10.6131,121.744)"
font-family="Helvetica" font-size="24" font-weight="400" font-style="normal" 
>
<text fill="#212121" fill-opacity="1" stroke="none" xml:space="preserve" x="0" y="0.46875" font-family="Helvetica" font-size="24" font-weight="400" font-style="normal" 
 >Cable Tension (N)</text>
</g>

<g fill="#212121" fill-opacity="1" stroke="#212121" stroke-opacity="1" stroke-width="1" stroke-linecap="square" stroke-linejoin="round" transform="matrix(0.506281,0,0,0.502063,-6.29674,-8.0392)"
font-family="Helvetica" font-size="24" font-weight="400" font-style="normal" 
>
<polyline fill="none" vector-effect="none" points="70,298 70,27 " />
<polyline fill="none" vector-effect="none" points="489,298 489,27 " />
<polyline fill="none" vector-effect="none" points="70,298 74.19,298 " />
<polyline fill="none" vector-effect="none" points="484.81,298 489,298 " />
<polyline fill="none" vector-effect="none" points="70,230.25 74.19,230.25 " />
<polyline fill="none" vector-effect="none" points="484.81,230.25 489,230.25 " />
<polyline fill="none" vector-effect="none" points="70,162.5 74.19,162.5 " />
<polyline fill="none" vector-effect="none" points="484.81,162.5 489,162.5 " />
<polyline fill="none" vector-effect="none" points="70,94.75 74.19,94.75 " />
<polyline fill="none" vector-effect="none" points="484.81,94.75 489,94.75 " />
<polyline fill="none" vector-effect="none" points="70,27 74.19,27 " />
<polyline fill="none" vector-effect="none" points="484.81,27 489,27 " />
</g>

<g fill="#212121" fill-opacity="1" stroke="#212121" stroke-opacity="1" stroke-width="1" stroke-linecap="square" stroke-linejoin="bevel" transform="matrix(0.506281,0,0,0.502063,21.245,144.086)"
font-family="Helvetica" font-size="18" font-weight="400" font-style="normal" 
>
<text fill="#212121" fill-opacity="1" stroke="none" xml:space="preserve" x="0" y="-0.140625" font-family="Helvetica" font-size="18" font-weight="400" font-style="normal" 
 >0</text>
</g>

<g fill="#212121" fill-opacity="1" stroke="#212121" stroke-opacity="1" stroke-width="1" stroke-linecap="square" stroke-linejoin="bevel" transform="matrix(0.506281,0,0,0.502063,16.1822,110.071)"
font-family="Helvetica" font-size="18" font-weight="400" font-style="normal" 
>
<text fill="#212121" fill-opacity="1" stroke="none" xml:space="preserve" x="0" y="-0.140625" font-family="Helvetica" font-size="18" font-weight="400" font-style="normal" 
 >20</text>
</g>

<g fill="#212121" fill-opacity="1" stroke="#212121" stroke-opacity="1" stroke-width="1" stroke-linecap="square" stroke-linejoin="bevel" transform="matrix(0.506281,0,0,0.502063,16.1822,76.0564)"
font-family="Helvetica" font-size="18" font-weight="400" font-style="normal" 
>
<text fill="#212121" fill-opacity="1" stroke="none" xml:space="preserve" x="0" y="-0.140625" font-family="Helvetica" font-size="18" font-weight="400" font-style="normal" 
 >40</text>
</g>

<g fill="#212121" fill-opacity="1" stroke="#212121" stroke-opacity="1" stroke-width="1" stroke-linecap="square" stroke-linejoin="bevel" transform="matrix(0.506281,0,0,0.502063,16.1822,42.0416)"
font-family="Helvetica" font-size="18" font-weight="400" font-style="normal" 
>
<text fill="#212121" fill-opacity="1" stroke="none" xml:space="preserve" x="0" y="-0.140625" font-family="Helvetica" font-size="18" font-weight="400" font-style="normal" 
 >60</text>
</g>

<g fill="#212121" fill-opacity="1" stroke="#212121" stroke-opacity="1" stroke-width="1" stroke-linecap="square" stroke-linejoin="bevel" transform="matrix(0.506281,0,0,0.502063,16.1822,8.02682)"
font-family="Helvetica" font-size="18" font-weight="400" font-style="normal" 
>
<text fill="#212121" fill-opacity="1" stroke="none" xml:space="preserve" x="0" y="-0.140625" font-family="Helvetica" font-size="18" font-weight="400" font-style="normal" 
 >80</text>
</g>

<g fill="none" stroke="#298c8c" stroke-opacity="1" stroke-width="4" stroke-linecap="butt" stroke-linejoin="round" transform="matrix(0.506281,0,0,0.502063,-6.29674,-8.0392)"
font-family="Helvetica" font-size="18" font-weight="400" font-style="normal" 
>
<polyline fill="none" vector-effect="none" points="404.534,280.763 404.534,280.379 404.534,280.673 404.534,280.544 404.534,280.595 404.533,280.687 404.533,280.633 404.531,280.63 404.528,280.657 404.518,280.499 404.507,280.629 404.479,280.482 404.457,280.504 404.402,280.315 404.255,280.429 404.069,280.695 403.859,280.495 403.594,280.367 403.324,280.449 403.003,280.458 402.717,280.268 402.365,280.398 402.015,280.105 401.684,280.101 401.382,280.471 401.047,279.916 400.733,280.095 400.384,280.475 400.053,279.99 399.735,280.42 399.357,280.299 398.976,280.167 398.607,280.123 398.255,280.112 397.833,279.999 397.395,280.144 396.943,280.004 396.508,279.816 396.001,279.93 395.394,280.277 394.833,280.461 394.259,279.767 393.665,279.941 393.142,279.735 392.564,279.92 391.99,279.481 391.434,280.113 390.798,280.173 390.197,279.748 389.616,279.947 389.011,279.358 388.443,280.179 387.807,279.441 387.207,279.358 386.584,279.229 385.845,279.568 385.124,279.933 384.553,279.661 383.949,279.71 382.973,279.471 382.105,279.403 381.454,279.906 380.656,279.828 379.832,278.854 379.005,279.653 378.188,279.05 377.4,279.028 376.574,279.159 375.807,278.82 374.97,278.679 374.15,279.259 373.285,279.036 372.473,278.802 371.559,278.988 370.635,278.734 369.716,278.777 368.809,278.515 367.87,277.847 366.953,278.887 366.007,278.633 365.066,277.452 364.242,278.254 363.438,277.401 362.257,278.245 361.102,277.293 360.165,277.602 359.036,277.2 357.918,277.41 356.81,277.343 355.677,276.813 354.573,276.485 353.436,277.033 352.3,275.668 351.186,275.672 350.104,275.557 348.909,275.22 347.723,275.544 346.692,274.633 345.729,274.696 344.404,273.951 343.171,273.998 342.139,273.605 340.964,273.455 339.702,272.527 338.475,272.147 337.256,271.693 336.003,270.818 334.675,270.85 333.343,270.038 332.235,269.3 331.135,268.399 329.605,267.444 328.237,266.359 326.98,265.226 325.579,263.889 324.251,262.683 322.856,260.905 321.443,258.297 320.017,257.113 318.739,254.738 317.563,254.588 316.022,256.992 314.593,253.523 313.35,254.381 312.007,252.906 310.686,252.986 309.282,252.748 307.935,252.031 306.676,251.182 305.619,251.106 304.002,250.057 302.416,249.131 301.135,246.88 299.68,247.417 298.291,245.757 296.835,246.464 295.44,244.67 294.242,244.55 292.491,243.403 290.802,241.135 289.446,241.227 287.834,238.791 286.266,237.168 284.912,237.717 283.601,235.62 281.877,234.535 280.151,233.283 278.763,231.549 277.201,230.217 275.536,229.819 274.178,228.644 272.872,227.185 271.125,226.184 269.361,224.301 267.942,223.546 266.34,221.729 264.67,219.61 263.284,219.878 261.938,218.679 260.099,217.181 258.318,215.475 256.805,213.806 255.22,214.061 253.748,213.198 252.271,212.028 250.511,209.281 248.656,210.319 247.207,208.92 245.538,206.435 244.076,205.84 242.63,204.286 240.857,203.86 238.984,202.313 237.394,201.21 235.781,200.414 234.197,201.107 232.818,199.686 230.839,198.635 228.961,196.629 227.434,195.416 225.886,195.772 224.409,194.75 222.489,193.905 220.598,192.63 218.965,192.507 217.27,192.639 215.591,191.868 214.086,191.337 212.171,190.141 210.227,189.573 208.617,190.136 207.02,189.629 205.479,189.367 203.635,188.991 201.738,188.22 200.038,186.967 198.223,187.188 196.671,187.596 195.016,186.802 193.062,188.221 191.188,187.292 189.45,186.996 187.795,187.24 186.29,187.904 184.368,188.856 182.349,188.281 180.611,188.866 178.962,188.825 177.408,189.998 175.355,189.726 173.433,189.011 171.75,190.464 169.939,191.506 168.295,192.854 166.699,193.284 164.715,193.591 162.841,194.798 161.143,194.978 159.477,197.097 157.917,197.389 155.914,198.654 154.166,200.055 152.602,200.724 150.962,201.833 149.411,202.543 147.572,203.561 145.848,205.367 144.324,206.135 142.663,207.442 141.067,208.623 139.479,210.507 137.586,212.12 135.724,212.973 134.081,215.292 132.285,216.891 130.592,219.597 128.947,220.907 126.944,222.416 125.027,224.606 123.394,226.439 121.763,228.439 120.236,229.931 118.273,231.439 116.439,233.228 114.797,234.248 113.065,236.41 111.484,238.089 109.96,239.725 108.053,240.635 106.27,241.798 104.752,243.107 103.106,244.798 101.675,245.319 100.248,246.886 98.5132,248.528 96.7832,248.944 95.2907,250.421 93.7282,251.205 92.1279,252.299 90.7084,254.248 89.4037,254.06 87.6477,254.649 86.0342,255.381 84.6346,256.522 83.083,256.047 81.6314,256.723 80.2805,257.909 78.9433,259.225 77.2507,259.184 75.6024,260.669 74.2493,261.325 72.7849,261.026 71.2722,261.728 70,262.157 " />
</g>

<g fill="none" stroke="#f1a226" stroke-opacity="1" stroke-width="4" stroke-linecap="butt" stroke-linejoin="round" transform="matrix(0.506281,0,0,0.502063,-6.29674,-8.0392)"
font-family="Helvetica" font-size="18" font-weight="400" font-style="normal" 
>
<polyline fill="none" vector-effect="none" points="70.1167,263.524 71.4676,264.185 72.8086,263.213 74.13,262.631 75.7593,262.881 77.1699,262.156 78.5541,262.282 80.0278,262.878 81.4713,261.877 82.9911,259.487 84.2816,258.73 85.554,257.62 87.4029,257.77 89.0839,256.071 90.5684,254.932 92.1852,255.456 93.7234,253.306 95.1362,252.88 96.992,252.018 98.6685,250.274 100.155,249.001 101.775,247.846 103.366,246.458 104.88,245.787 106.373,243.562 108.161,243.501 109.912,242.651 111.358,239.335 113.054,238.481 114.581,235.997 116.08,235.112 118.016,234.063 119.891,232.127 121.506,231.113 123.291,228.083 124.967,226.931 126.528,224.664 128.512,222.157 130.482,220.172 132.172,219.543 133.985,217.933 135.642,215.91 137.209,213.712 139.176,212.108 141.103,210.844 142.741,208.754 144.351,207.327 145.94,205.611 147.908,205.668 149.806,204.482 151.437,204.227 153.177,201.967 154.734,200.262 156.247,200.78 158.214,198.625 160.012,198.515 161.534,197.04 163.067,196.743 164.514,196.409 166.371,195.123 168.184,194.481 169.785,193.935 171.481,193.994 172.996,192.732 174.312,191.783 176.19,191.442 178.053,192.477 179.701,192.054 181.212,191.929 182.556,189.975 184.487,190.387 186.317,191.354 187.883,191.827 189.341,191.301 190.676,189.873 192.583,191.515 194.431,191.819 195.918,192.103 197.515,191.006 199.164,190.336 200.62,192.079 202.428,191.735 204.314,193.866 205.808,192.455 207.297,192.277 208.707,194.019 210.45,194.304 212.191,194.75 213.636,194.141 215.263,195.794 216.843,196.677 218.265,196.881 220.057,197.115 221.746,197.604 223.283,199.5 224.973,199.913 226.411,200 228.304,200.351 230.103,201.763 231.799,203.649 233.678,204.278 235.325,203.109 236.998,205.719 238.901,206.383 240.745,208.661 242.237,209.515 243.986,209.228 245.514,211.383 246.967,211.847 248.681,214.165 250.301,214.608 251.783,215.28 253.28,217.204 254.688,218.6 256.004,219.408 257.827,219.647 259.446,222.108 260.849,223.274 262.351,224.461 263.707,224.652 264.957,225.09 266.721,227.008 268.396,228.921 269.78,229.89 271.365,231.956 272.809,232.042 274.346,233.177 275.668,235.797 277.289,235.308 278.843,236.41 280.348,238.769 281.951,239.747 283.436,239.913 284.842,241.536 286.146,242.988 287.875,244.127 289.522,246.259 290.875,246.199 292.425,248.907 293.937,248.679 295.221,248.885 296.428,251.192 298.104,250.913 299.732,251.704 301.165,254.21 302.59,253.08 304.064,256.364 305.561,255.263 306.888,255.835 308.165,257.848 309.873,257.871 311.355,256.596 312.694,258.493 314.133,260.201 315.531,257.247 316.961,259.048 318.407,262.018 319.689,263.277 320.885,266.197 322.474,267.434 324.002,267.967 325.235,269.399 326.597,270.193 327.949,271.285 329.277,271.701 330.572,271.975 331.916,273.577 333.206,273.782 334.366,274.363 335.482,274.837 336.888,274.529 338.288,275.214 339.474,276.283 340.689,275.586 341.9,276.485 343.15,276.615 344.348,276.348 345.647,277.401 346.846,276.821 348.023,277.69 349.155,277.163 350.219,278.374 351.553,278.286 352.82,278.389 353.787,277.767 354.949,278.801 356.02,278.636 357.131,278.809 358.295,278.534 359.356,278.72 360.374,279.076 361.447,279.298 362.44,278.597 363.459,279.279 364.377,279.391 365.36,279.525 366.378,279.669 367.214,279.034 368.002,280.014 369.111,279.378 370.195,279.678 370.983,279.764 371.862,280.091 372.786,280.075 373.67,279.925 374.597,279.901 375.43,279.816 376.284,280.468 377.201,280.044 378.078,280.46 378.854,279.831 379.696,280.525 380.462,279.942 381.258,280.881 382.062,279.956 382.85,280.387 383.585,280.268 384.366,280.192 385.096,280.042 385.904,280.539 386.615,279.688 387.296,280.588 387.869,280.296 388.606,281.046 389.132,280.355 389.503,279.731 390.278,281.116 390.845,279.993 391.291,280.422 391.841,280.44 392.366,280.619 392.938,280.813 393.474,280.256 394.061,280.78 394.583,280.272 395.098,280.731 395.649,280.642 396.143,280.883 396.68,281.111 397.24,280.812 397.799,280.531 398.192,280.721 398.597,280.677 398.993,280.819 399.37,280.759 399.682,280.655 400.037,281.095 400.396,280.808 400.728,280.498 401.021,281.229 401.373,280.911 401.717,281.055 402.022,281.148 402.248,280.485 402.487,281.315 402.73,280.944 402.903,280.916 403.117,280.455 403.309,280.909 403.451,280.588 403.613,281.087 403.762,280.813 403.974,281.32 404.152,280.779 404.33,280.527 404.501,281.036 404.611,280.941 404.717,281.146 404.716,281.144 404.715,280.789 404.697,280.96 404.705,280.788 " />
</g>

<g fill="none" stroke="#3594cc" stroke-opacity="1" stroke-dasharray="4,4" stroke-dashoffset="0" stroke-width="4" stroke-linecap="butt" stroke-linejoin="round" transform="matrix(0.506281,0,0,0.502063,-6.29674,-8.0392)"
font-family="Helvetica" font-size="18" font-weight="400" font-style="normal" 
>
<polyline fill="none" vector-effect="none" points="439.51,298 436.485,297.792 433.508,297.586 430.589,297.381 427.727,297.177 424.921,296.973 422.168,296.77 419.459,296.568 416.804,296.366 414.203,296.164 411.655,295.963 409.16,295.761 406.714,295.555 404.313,295.34 401.962,295.122 399.661,294.899 397.423,294.673 395.276,294.443 393.225,294.208 391.263,293.969 389.38,293.724 387.572,293.475 385.833,293.219 384.159,292.958 382.545,292.69 380.986,292.415 379.479,292.133 378.021,291.844 376.609,291.546 375.24,291.24 373.909,290.924 372.616,290.599 371.359,290.264 370.135,289.918 368.941,289.56 367.776,289.19 366.639,288.807 365.527,288.41 364.44,287.998 363.375,287.57 362.332,287.126 361.309,286.663 360.305,286.182 359.319,285.681 358.349,285.157 357.395,284.61 356.457,284.037 355.532,283.438 354.62,282.81 353.721,282.151 352.833,281.459 351.956,280.73 351.089,279.961 350.231,279.164 349.382,278.333 348.541,277.471 347.707,276.577 346.88,275.648 346.06,274.682 345.245,273.68 344.435,272.638 343.63,271.556 342.828,270.431 342.031,269.264 341.236,268.052 340.444,266.793 339.654,265.458 338.865,264.033 338.078,262.519 337.291,260.914 336.504,260.309 335.717,259.991 334.929,259.647 334.139,259.29 333.348,258.908 332.555,258.513 331.758,258.097 330.959,257.663 330.155,257.221 329.348,256.757 328.535,256.276 327.717,255.778 326.893,255.261 326.062,254.731 325.225,254.185 324.379,253.619 323.525,253.039 322.662,252.439 321.79,251.823 320.907,251.192 320.012,250.537 319.106,249.868 318.187,249.18 317.255,248.47 316.308,247.743 315.346,246.997 314.367,246.227 313.371,245.443 312.357,244.634 311.323,243.802 310.268,242.957 309.19,242.085 308.09,241.186 306.964,240.272 305.811,239.332 304.63,238.362 303.424,237.378 302.2,236.365 300.972,235.322 299.739,234.276 298.502,233.209 297.258,232.132 296.007,231.066 294.754,230.002 293.495,228.918 292.229,227.833 290.958,226.749 289.683,225.666 288.401,224.574 287.114,223.479 285.822,222.383 284.525,221.289 283.222,220.204 281.913,219.095 280.6,217.988 279.281,216.89 277.956,215.799 276.627,214.707 275.292,213.596 273.952,212.494 272.607,211.394 271.257,210.298 269.901,209.218 268.542,208.114 267.176,207.015 265.805,205.925 264.43,204.85 263.051,203.779 261.665,202.686 260.276,201.608 258.882,200.54 257.484,199.478 256.08,198.436 254.672,197.423 253.26,196.459 251.844,195.541 250.423,194.673 248.998,193.851 247.569,193.038 246.136,192.259 244.699,191.518 243.259,190.81 241.814,190.125 240.365,189.43 238.913,188.758 237.457,188.098 235.998,187.448 234.535,186.803 233.07,186.145 231.601,185.483 230.128,184.824 228.653,184.163 227.174,183.507 225.693,182.819 224.209,182.121 222.722,181.419 221.233,180.717 219.741,179.996 218.247,179.288 216.751,178.648 215.252,178.088 213.751,177.601 212.249,177.195 210.743,176.833 209.236,176.548 207.727,176.345 206.215,176.222 204.701,176.18 203.185,176.185 201.667,176.276 200.146,176.455 198.622,176.719 197.096,177.051 195.566,177.436 194.034,177.901 192.498,178.443 190.959,179.063 189.416,179.746 187.87,180.47 186.321,181.272 184.767,182.145 183.21,183.074 181.65,184.039 180.085,185.071 178.516,186.17 176.944,187.325 175.368,188.506 173.787,189.754 172.202,191.063 170.613,192.43 169.02,193.801 167.422,195.224 165.819,196.698 164.212,198.485 162.601,200.437 160.985,202.397 159.364,204.348 157.738,206.318 156.107,208.226 154.472,210.149 152.831,212.069 151.185,213.972 149.534,215.843 147.878,217.716 146.216,219.593 144.549,221.416 142.876,223.243 141.198,225.061 139.514,226.876 137.825,228.644 136.129,230.417 134.381,232.195 132.452,233.928 130.518,235.658 128.592,237.349 126.67,239.009 124.753,240.615 122.841,242.187 120.933,243.706 119.029,245.188 117.126,246.625 115.226,248.016 113.329,249.369 111.437,250.679 109.546,251.959 107.655,253.195 105.768,254.394 103.883,255.555 101.998,256.678 100.115,257.766 98.2328,258.815 96.3518,259.832 94.4712,260.809 92.5911,261.758 90.7113,262.667 88.8315,263.539 86.9517,264.373 85.0717,265.169 83.1912,265.922 81.31,266.523 79.428,266.891 77.545,267.243 75.661,267.587 73.7756,267.917 71.8887,268.234 70,268.536 " />
</g>
</g>
</svg>
